<?xml version="1.0" encoding="utf-8"?>
<!-- Generator: Adobe Illustrator 26.2.1, SVG Export Plug-In . SVG Version: 6.00 Build 0)  -->
<svg version="1.1"
	 id="svg5" sodipodi:docname="logo-light.svg" xmlns:inkscape="http://www.inkscape.org/namespaces/inkscape" xmlns:sodipodi="http://sodipodi.sourceforge.net/DTD/sodipodi-0.dtd" xmlns:svg="http://www.w3.org/2000/svg"
	 xmlns="http://www.w3.org/2000/svg" xmlns:xlink="http://www.w3.org/1999/xlink" x="0px" y="0px" viewBox="0 0 285 48"
	 style="enable-background:new 0 0 285 48;" xml:space="preserve">
<style type="text/css">
	.st0{fill:#FFFFFF;}
	.st1{fill:#008EAA;}
</style>
<sodipodi:namedview  bordercolor="#666666" borderopacity="1.0" fit-margin-bottom="0" fit-margin-left="0" fit-margin-right="2.7755576e-17" fit-margin-top="0" id="namedview7" inkscape:current-layer="text6846" inkscape:cx="264.36955" inkscape:cy="40.747028" inkscape:document-units="mm" inkscape:pagecheckerboard="true" inkscape:pageopacity="0" inkscape:pageshadow="2" inkscape:window-height="1377" inkscape:window-maximized="1" inkscape:window-width="2560" inkscape:window-x="1912" inkscape:window-y="32" inkscape:zoom="5.6568542" pagecolor="#ffffff" showgrid="false" units="px">
	</sodipodi:namedview>
<g id="layer1" transform="translate(-0.06401282,0.01494702)" inkscape:groupmode="layer" inkscape:label="Layer 1">
	<g id="g2229" transform="matrix(0.0810205,0,0,-0.0810205,-5.3466415,18.003283)">
		<path id="path2231" class="st0" d="M224.3,48c0-66.3-27.4-87.3-78.9-87.3c-59,0-78.6,29.4-78.6,90.4v166.5h38.8V54.1
			c0-22.3-1.5-64.3,40.1-64.3c34.3,0,40.4,24.9,40.4,62.5v165.2h38.2V48"/>
		<path id="path2233" class="st0" d="M1270.8-365.7l-76,218.1v-218.1h-32.6v252.4h56.9l76-218.1v218.1h35v-252.4H1270.8"/>
		<path id="path2235" class="st0" d="M383.6-34.8l-75.9,218.1V-34.8h-32.6v252.4h57L408-0.5v218.1H443V-34.8H383.6"/>
		<path id="path2237" class="st0" d="M501.8-34.8v252.4h39.1V-34.8H501.8"/>
		<path id="path2239" class="st0" d="M1333.8-34.8v252.4h39.1V-34.8H1333.8"/>
		<path id="path2241" class="st0" d="M682.4-34.8h-46l-63.8,252.4h40.7L661.2,0.9l49.7,216.7h38.1L682.4-34.8"/>
		<path id="path2243" class="st0" d="M779.8-34.8v252.4h125v-30.2h-86.2v-77h80.6V81.3h-80.6V-4.6h88.6v-30.2H779.8"/>
		<path id="path2245" class="st0" d="M989.6-365.7v252.4h125v-30.2h-86.2v-77h80.6v-29.2h-80.6v-85.9h88.6v-30.2H989.6"/>
		<path id="path2247" class="st0" d="M1548.7-365.7v252.4h125v-30.2h-86.2v-77h80.6v-29.2h-80.6v-85.9h88.6v-30.2H1548.7"/>
		<path id="path2249" class="st0" d="M1056.4,150.7c0,29.2-15.5,37.4-39.9,37.4h-26.2v-80.8h20.4
			C1044.1,107.3,1056.4,116.1,1056.4,150.7z M1056.9-34.8c-3.5,24.2-3.6,61.4-3.8,66.1c-0.9,18.9-3.3,31-7.3,36.4
			c-4.6,6.7-15.3,10.1-32.1,10.1h-23.4V-34.8h-39.1v252.4h72.6c41.8,0,72.2-10,72.2-63.9c0-34-13.8-54.4-41.2-61.1
			c14.2-1.1,23.9-6.1,29.3-14.6c4.2-6.5,8-21.6,8-40.4c0-7.2,1.5-56.5,5.2-72.3L1056.9-34.8"/>
		<path id="path2251" class="st0" d="M1285.9,28.7c0-45.3-24.8-68.1-74.4-68.1c-55.5,0-74.7,22.3-74.7,75.3v2.8h40.1V36
			c0-30,7.7-46.4,34.6-46.4c23.1,0,34.7,12,34.7,36.1c0,21.5-13.1,31.6-24.1,38.8c-5.3,3.5-12.4,7.9-21.3,13.3
			c-37.3,22.9-60.4,38.2-60.4,79.1c0,41.8,25.8,65.5,73.9,65.5c46.1,0,69.1-21,69.1-63v-9.1h-39.2v6.3c0,24.4-10.5,36.6-31.7,36.6
			c-19.2,0-32.4-11-32.4-33.5c0-25.1,17.8-33.2,34.6-44c5.8-3.7,11.8-7.5,17.8-11.5C1272,78.9,1285.9,67.4,1285.9,28.7"/>
		<path id="path2253" class="st0" d="M1502.7,187.4V-34.8h-39.1v222.2h-58.3v30.2H1561v-30.2L1502.7,187.4"/>
		<path id="path2255" class="st0" d="M597.1-143.5v-222.2H558v222.2h-58.3v30.2h155.7v-30.2H597.1"/>
		<path id="path2257" class="st0" d="M1458.5-143.5v-222.2h-39.1v222.2h-58.3v30.2h155.6v-30.2H1458.5"/>
		<path id="path2259" class="st0" d="M902.2-365.7h-45.6L817.1-154l-43.6-211.8h-45.6l-53.7,252.4h41.3l37.3-211.1l43.3,211.1h45.7
			l39.8-211.1l40.1,211.1h36.6L902.2-365.7"/>
		<path id="path2261" class="st0" d="M1750.4-350.8c0-11.2-9.1-20.4-20.4-20.4s-20.4,9.2-20.4,20.4c0,11.3,9.1,20.5,20.4,20.5
			C1741.3-330.3,1750.4-339.5,1750.4-350.8"/>
		<path id="path2263" class="st0" d="M1674,61.5v-96.3h-39.1v96.3l-66.3,156.1h43.3l45.4-120.4l46.4,120.4h40.1L1674,61.5"/>
		<path id="path2265" class="st0" d="M187.9-237.3c0,30.4-1,51.5-3.1,63.2c-4.7,24.2-17.1,36.3-37.4,36.3c-20,0-32.7-12.8-38.1-38.4
			c-0.9-4.7-1.6-12.1-2.1-22.4c-0.5-10.2-0.7-23.5-0.7-39.8c0-15.1,0.2-27.8,0.5-38c0.3-10.2,1-18.2,1.9-23.7
			c2.1-13.7,5.8-23.8,11.2-30.4c5.8-7.2,14.9-10.8,27.2-10.8c20.7,0,33.3,13,37.7,39.1c0.9,5.3,1.6,13.4,2.1,24.1
			C187.7-267.4,187.9-253.8,187.9-237.3z M228.4-241.8c0-45.6-4-76.5-11.9-92.5c-11.4-24-34.8-36-70.2-36
			c-33.8,0-56.4,11.5-67.8,34.5c-4.7,9.8-7.9,22.5-9.7,38c-1.4,11.9-2.1,30.4-2.1,55.5c0,30.5,1,52.6,3.1,66.3
			c2.8,18.9,8.7,33.8,17.8,44.7c13.1,15.1,33,22.7,59.7,22.7c27.2,0,47.1-6.9,59.7-20.6c9.3-10,15.4-24.9,18.2-44.7
			C227.4-187.5,228.4-210.2,228.4-241.8"/>
		<path id="path2267" class="st0" d="M316.6-143.4v-77.5h74.7v-29.3h-74.7v-115.5h-38.8v252.4h117.7v-30L316.6-143.4"/>
	</g>
	<path id="path1929" class="st1" d="M158.7,47.2c-3.1-0.4-5.7-0.7-5.8-0.7c-0.1,0-0.1-2.9,0-6.3L153,34l0.2,6l0.2,6h0.5h0.5v-4.8
		v-4.8l0.6-0.6c0.8-0.8,2.1-0.7,3.1,0.2l0.8,0.8v4.8v4.8l0.8,0.3c0.4,0.2,1,0.3,1.3,0.3h0.5l-0.2-5.1l-0.2-5.1l0.7-0.8l0.7-0.8h0.9
		c0.5,0,1.2,0.3,1.7,0.8l0.8,0.8v5.4v5.4h1h1l0-9l0-9l-7.7-0.2l-7.7-0.2l0.3,1.1l0.3,1.1l-0.5-0.7c-0.3-0.4-0.5-1-0.5-1.3l0-0.5
		l3.4-2.4c1.9-1.3,3.7-2.7,3.9-3.2l0.5-0.8l0,0.7l0,0.7l-3.2,2.2c-1.8,1.2-3.1,2.2-3,2.3c0.1,0.1,4.8,0.2,10.6,0.2l10.4,0l0.7-0.4
		l0.7-0.4l-2.6-1.9l-2.6-1.9l-3.2,0l-3.2,0l1.8-0.2c1-0.1,1.8-0.4,1.8-0.6c0-0.2-0.7-4.4-1.6-9.4L164.8,5l-0.1,1.7
		c-0.1,0.9-0.3,4.6-0.6,8.1l-0.4,6.4l0.2-7.6l0.2-7.6l-2.1,8.4c-1.2,4.6-2.1,8-2.1,7.6c0-0.4,0.9-4.9,2.1-10.1l2.1-9.3l-0.5-0.6
		L163,1.3l0.3-0.5c0.2-0.3,0.8-0.5,1.3-0.5h1l-0.1,1.1l-0.1,1.1l2.9,10.5l2.9,10.5l3.6,2.5l3.6,2.5l-0.3,1c-0.2,0.5-0.4,4.7-0.5,9.2
		l-0.2,8.2l-4.3,0.6C167.9,48.1,166.1,48,158.7,47.2L158.7,47.2z M170.8,46.8c0,0,0.2-0.8,0.5-1.8l0.5-1.7l0.8-0.5l0.8-0.5l0.8,0.6
		l0.8,0.6l0,1.3l0,1.3l-0.5-1.4l-0.5-1.4l-0.8,0.2l-0.8,0.2l-0.2,1.3l-0.2,1.3h2.2h2.2l0.1-8c0.1-4.4,0.3-8.3,0.4-8.7l0.2-0.7
		l-3.7,0.1l-3.7,0.1l-0.9,0.5l-0.9,0.5v8.6v8.6l1.4-0.3C170.1,47.1,170.7,46.9,170.8,46.8L170.8,46.8z M165.1,42.3
		c0-2.5-0.1-5-0.3-5.4l-0.3-0.8h-1.1h-1.1l-0.3,0.8c-0.2,0.4-0.3,2.9-0.3,5.4V47h1.7h1.7L165.1,42.3z M158.2,41.9v-4.6l-0.6-0.6
		c-0.3-0.3-1-0.6-1.4-0.6h-0.8l-0.3,0.8c-0.4,1.1-0.4,8.8,0,9.2c0.2,0.2,1,0.3,1.7,0.3h1.4L158.2,41.9z M169.1,18.9
		c-0.7-2.4-1.3-4.3-1.4-4.2c-0.2,0.2,0.7,6.6,1.2,8.2l0.2,0.8l0.6-0.2l0.6-0.2L169.1,18.9z M161.6,24c0.7-0.1,1.4-0.5,1.6-0.8
		l0.4-0.6l0,0.9l0,0.9l-1.6-0.1l-1.6-0.1L161.6,24z"/>
	<g id="text6846">
		<path id="path10567" class="st0" d="M181.2,13.2V0.3h3.7c1.2,0,2.1,0.3,2.6,0.9c0.6,0.6,0.9,1.4,0.9,2.6c0,0.6-0.2,1.1-0.5,1.6
			c-0.3,0.5-0.7,0.8-1.2,1.1c0.6,0.2,1.1,0.5,1.4,1.1c0.3,0.5,0.5,1.2,0.5,2c0,1.2-0.3,2.1-1,2.7c-0.6,0.7-1.5,1-2.7,1L181.2,13.2z
			 M182.8,7.2v4.6h2.2c0.6,0,1.1-0.2,1.5-0.6c0.4-0.4,0.5-1,0.5-1.7c0-1.6-0.7-2.3-2-2.3L182.8,7.2z M182.8,5.8h2.1
			c0.6,0,1-0.2,1.4-0.6c0.3-0.4,0.5-0.9,0.5-1.5c0-0.7-0.2-1.2-0.5-1.5c-0.3-0.3-0.8-0.5-1.4-0.5h-2.1L182.8,5.8z"/>
		<path id="path10569" class="st0" d="M197.3,7.2h-4.6v4.6h5.3v1.4h-6.9V0.3h6.8v1.4h-5.2v4.1h4.6V7.2z"/>
		<path id="path10571" class="st0" d="M208.6,13.2h-1.6v-6h-5.2v6h-1.6V0.3h1.6v5.5h5.2V0.3h1.6V13.2z"/>
		<path id="path10573" class="st0" d="M217.6,9.8h-4.4l-1,3.4h-1.7l4.2-12.9h1.4l4.2,12.9h-1.7L217.6,9.8z M213.6,8.4h3.5l-1.8-5.9
			L213.6,8.4z"/>
		<path id="path10575" class="st0" d="M224.9,10.7l3-10.4h1.8l-4,12.9h-1.4l-4-12.9h1.8L224.9,10.7z"/>
		<path id="path10577" class="st0" d="M233.1,13.2h-1.6V0.3h1.6V13.2z"/>
		<path id="path10579" class="st0" d="M244.3,7.9c0,1.8-0.4,3.1-1.1,4.1c-0.8,1-1.8,1.4-3.2,1.4c-1.3,0-2.4-0.5-3.2-1.4
			c-0.8-0.9-1.2-2.2-1.2-3.9V5.6c0-1.7,0.4-3.1,1.1-4c0.8-1,1.8-1.5,3.2-1.5c1.4,0,2.4,0.5,3.2,1.4c0.8,0.9,1.2,2.3,1.2,4V7.9z
			 M242.7,5.6c0-1.4-0.2-2.4-0.7-3c-0.4-0.7-1.1-1-2-1c-0.9,0-1.6,0.3-2,1c-0.5,0.7-0.7,1.7-0.7,3v2.3c0,1.3,0.2,2.3,0.7,3
			c0.5,0.7,1.1,1,2.1,1c0.9,0,1.6-0.3,2-1c0.4-0.6,0.7-1.6,0.7-2.9L242.7,5.6z"/>
		<path id="path10581" class="st0" d="M254.5,0.3v9.2c0,1.2-0.4,2.2-1.1,2.9c-0.7,0.7-1.7,1-2.9,1c-1.3,0-2.3-0.3-2.9-1
			c-0.7-0.7-1-1.6-1-2.9V0.3h1.6v9.1c0,0.9,0.2,1.5,0.5,1.9c0.4,0.4,1,0.6,1.8,0.6c0.8,0,1.4-0.2,1.8-0.6c0.4-0.4,0.6-1.1,0.6-1.9
			V0.3H254.5z"/>
		<path id="path10583" class="st0" d="M260.9,8h-2.3v5.2H257V0.3h3.6c1.3,0,2.2,0.3,2.9,1c0.6,0.7,1,1.6,1,2.9
			c0,0.8-0.2,1.5-0.5,2.1c-0.3,0.6-0.8,1-1.5,1.3l2.5,5.5v0.1h-1.7L260.9,8z M258.6,6.6h2c0.7,0,1.2-0.2,1.6-0.7
			c0.4-0.4,0.6-1,0.6-1.8c0-1.7-0.8-2.5-2.3-2.5h-1.9L258.6,6.6z"/>
		<path id="path10585" class="st0" d="M272.7,9.8h-4.4l-1,3.4h-1.7l4.2-12.9h1.4l4.2,12.9h-1.7L272.7,9.8z M268.7,8.4h3.5l-1.8-5.9
			L268.7,8.4z"/>
		<path id="path10587" class="st0" d="M278.7,11.8h5.1v1.4h-6.7V0.3h1.6V11.8z"/>
		<path id="path10589" class="st1" d="M180.6,30.4V17.5h3.1c1.5,0,2.7,0.5,3.5,1.4c0.8,0.9,1.2,2.3,1.2,4v2.2c0,1.7-0.4,3-1.3,4
			c-0.8,0.9-2.1,1.4-3.7,1.4L180.6,30.4z M182.2,18.9V29h1.3c1.1,0,2-0.3,2.5-1c0.5-0.7,0.8-1.6,0.8-2.9v-2.3c0-1.4-0.3-2.4-0.8-3
			c-0.5-0.6-1.3-1-2.4-1H182.2z"/>
		<path id="path10591" class="st1" d="M196.8,27.1h-4.4l-1,3.4h-1.7l4.2-12.9h1.4l4.2,12.9h-1.7L196.8,27.1z M192.8,25.7h3.5
			l-1.8-5.9L192.8,25.7z"/>
		<path id="path10593" class="st1" d="M207.6,18.9h-3.4v11.5h-1.6V18.9h-3.4v-1.4h8.4L207.6,18.9z"/>
		<path id="path10595" class="st1" d="M214.8,27.1h-4.4l-1,3.4h-1.7l4.2-12.9h1.4l4.2,12.9h-1.7L214.8,27.1z M210.9,25.7h3.5
			l-1.8-5.9L210.9,25.7z"/>
		<path id="path10597" class="st1" d="M229.1,27.2c0-0.6-0.2-1.1-0.5-1.5c-0.3-0.3-1-0.7-1.9-1c-0.9-0.3-1.6-0.7-2.1-1
			c-0.5-0.4-0.8-0.8-1.1-1.2c-0.2-0.5-0.4-1-0.4-1.6c0-1,0.3-1.9,1-2.5c0.7-0.7,1.6-1,2.7-1c0.8,0,1.4,0.2,2,0.5
			c0.6,0.3,1,0.8,1.4,1.4c0.3,0.6,0.5,1.3,0.5,2h-1.6c0-0.8-0.2-1.4-0.6-1.9s-0.9-0.7-1.7-0.7c-0.7,0-1.2,0.2-1.5,0.5
			c-0.4,0.4-0.5,0.9-0.5,1.5c0,0.5,0.2,1,0.6,1.4c0.4,0.4,1,0.7,1.8,1c1.3,0.4,2.2,0.9,2.7,1.6c0.5,0.6,0.8,1.4,0.8,2.4
			c0,1-0.3,1.9-1,2.5c-0.7,0.6-1.6,0.9-2.8,0.9c-0.8,0-1.4-0.2-2.1-0.5c-0.6-0.3-1.1-0.8-1.5-1.4c-0.4-0.6-0.5-1.3-0.5-2h1.6
			c0,0.8,0.2,1.4,0.7,1.9c0.4,0.4,1.1,0.7,1.8,0.7c0.7,0,1.3-0.2,1.6-0.5C228.9,28.3,229.1,27.8,229.1,27.2z"/>
		<path id="path10599" class="st1" d="M240.9,26.3c-0.1,1.4-0.5,2.4-1.2,3.2c-0.7,0.7-1.7,1.1-3,1.1c-1.3,0-2.3-0.5-3.1-1.5
			c-0.8-1-1.1-2.3-1.1-4v-2.3c0-1.7,0.4-3,1.2-4c0.8-1,1.9-1.5,3.2-1.5c1.2,0,2.2,0.4,2.9,1.1c0.7,0.7,1.1,1.8,1.1,3.2h-1.6
			c-0.1-1.1-0.3-1.8-0.7-2.3s-0.9-0.7-1.7-0.7c-0.9,0-1.6,0.3-2,1c-0.5,0.7-0.7,1.7-0.7,3v2.4c0,1.3,0.2,2.3,0.7,3
			c0.4,0.7,1.1,1,1.9,1c0.8,0,1.5-0.2,1.8-0.6s0.6-1.2,0.7-2.3L240.9,26.3z"/>
		<path id="path10601" class="st1" d="M244.8,30.4h-1.6V17.5h1.6V30.4z"/>
		<path id="path10603" class="st1" d="M253.8,24.5h-4.6V29h5.3v1.4h-6.9V17.5h6.8v1.4h-5.2v4.1h4.6V24.5z"/>
		<path id="path10605" class="st1" d="M265.1,30.4h-1.6l-5.2-9.9v9.9h-1.6V17.5h1.6l5.2,10v-10h1.6L265.1,30.4z"/>
		<path id="path10607" class="st1" d="M276,26.3c-0.1,1.4-0.5,2.4-1.2,3.2c-0.7,0.7-1.7,1.1-3,1.1c-1.3,0-2.3-0.5-3.1-1.5
			c-0.8-1-1.1-2.3-1.1-4v-2.3c0-1.7,0.4-3,1.2-4c0.8-1,1.9-1.5,3.2-1.5c1.2,0,2.2,0.4,2.9,1.1c0.7,0.7,1.1,1.8,1.1,3.2h-1.6
			c-0.1-1.1-0.3-1.8-0.7-2.3s-0.9-0.7-1.7-0.7c-0.9,0-1.6,0.3-2,1c-0.5,0.7-0.7,1.7-0.7,3v2.4c0,1.3,0.2,2.3,0.7,3
			c0.4,0.7,1.1,1,1.9,1c0.8,0,1.5-0.2,1.8-0.6c0.4-0.4,0.6-1.2,0.7-2.3L276,26.3z"/>
		<path id="path10609" class="st1" d="M284.4,24.5h-4.6V29h5.3v1.4h-6.9V17.5h6.8v1.4h-5.2v4.1h4.6L284.4,24.5z"/>
		<path id="path10611" class="st0" d="M182.3,47.7h-1.6V34.8h1.6V47.7z"/>
		<path id="path10613" class="st0" d="M193.6,47.7h-1.6l-5.2-9.9v9.9h-1.6V34.8h1.6l5.2,10v-10h1.6L193.6,47.7z"/>
		<path id="path10615" class="st0" d="M204.5,43.6c-0.1,1.4-0.5,2.4-1.2,3.2c-0.7,0.7-1.7,1.1-3,1.1c-1.3,0-2.3-0.5-3.1-1.5
			c-0.8-1-1.1-2.3-1.1-4V40c0-1.7,0.4-3,1.2-4c0.8-1,1.9-1.5,3.2-1.5c1.2,0,2.2,0.4,2.9,1.1c0.7,0.7,1.1,1.8,1.1,3.2h-1.6
			c-0.1-1.1-0.3-1.8-0.7-2.3c-0.4-0.4-0.9-0.7-1.7-0.7c-0.9,0-1.6,0.3-2,1c-0.5,0.7-0.7,1.7-0.7,3v2.4c0,1.3,0.2,2.3,0.7,3
			c0.4,0.7,1.1,1,1.9,1c0.8,0,1.5-0.2,1.8-0.6c0.4-0.4,0.6-1.2,0.7-2.3L204.5,43.6z"/>
		<path id="path10617" class="st0" d="M214.3,34.8v9.2c0,1.2-0.4,2.2-1.1,2.9c-0.7,0.7-1.7,1-2.9,1c-1.3,0-2.3-0.3-2.9-1
			c-0.7-0.7-1-1.6-1-2.9v-9.2h1.6v9.1c0,0.9,0.2,1.5,0.5,1.9c0.4,0.4,1,0.6,1.8,0.6c0.8,0,1.4-0.2,1.8-0.6c0.4-0.4,0.6-1.1,0.6-1.9
			v-9.1H214.3z"/>
		<path id="path10619" class="st0" d="M216.8,47.7V34.8h3.7c1.2,0,2.1,0.3,2.6,0.9c0.6,0.6,0.9,1.4,0.9,2.6c0,0.6-0.2,1.1-0.5,1.6
			c-0.3,0.5-0.7,0.8-1.2,1.1c0.6,0.2,1.1,0.5,1.4,1.1c0.3,0.5,0.5,1.2,0.5,2c0,1.2-0.3,2.1-1,2.7c-0.6,0.7-1.5,1-2.7,1H216.8z
			 M218.5,41.6v4.6h2.2c0.6,0,1.1-0.2,1.5-0.6c0.4-0.4,0.5-1,0.5-1.7c0-1.6-0.7-2.3-2-2.3L218.5,41.6z M218.5,40.3h2.1
			c0.6,0,1-0.2,1.4-0.6c0.3-0.4,0.5-0.9,0.5-1.5c0-0.7-0.2-1.2-0.5-1.5c-0.3-0.3-0.8-0.5-1.4-0.5h-2.1L218.5,40.3z"/>
		<path id="path10621" class="st0" d="M232.8,44.3h-4.4l-1,3.4h-1.7l4.2-12.9h1.4l4.2,12.9h-1.7L232.8,44.3z M228.8,42.9h3.5
			l-1.8-5.9L228.8,42.9z"/>
		<path id="path10623" class="st0" d="M243.6,36.2h-3.4v11.5h-1.6V36.2h-3.4v-1.4h8.4V36.2z"/>
		<path id="path10625" class="st0" d="M253.6,42.4c0,1.8-0.4,3.1-1.1,4.1c-0.8,1-1.8,1.4-3.2,1.4c-1.3,0-2.4-0.5-3.2-1.4
			c-0.8-0.9-1.2-2.2-1.2-3.9v-2.4c0-1.7,0.4-3.1,1.1-4c0.8-1,1.8-1.5,3.2-1.5c1.4,0,2.4,0.5,3.2,1.4c0.8,0.9,1.2,2.3,1.2,4
			L253.6,42.4z M252,40.1c0-1.4-0.2-2.4-0.7-3c-0.4-0.7-1.1-1-2-1c-0.9,0-1.6,0.3-2,1c-0.5,0.7-0.7,1.7-0.7,3v2.3
			c0,1.3,0.2,2.3,0.7,3c0.5,0.7,1.1,1,2.1,1s1.6-0.3,2-1c0.4-0.6,0.7-1.6,0.7-2.9L252,40.1z"/>
		<path id="path10627" class="st0" d="M260,42.5h-2.3v5.2h-1.6V34.8h3.6c1.3,0,2.2,0.3,2.9,1c0.6,0.7,1,1.6,1,2.9
			c0,0.8-0.2,1.5-0.5,2.1c-0.3,0.6-0.8,1-1.5,1.3l2.5,5.5v0.1h-1.7L260,42.5z M257.8,41.1h2c0.7,0,1.2-0.2,1.6-0.7
			c0.4-0.4,0.6-1,0.6-1.8c0-1.7-0.8-2.5-2.3-2.5h-1.9L257.8,41.1z"/>
	</g>
</g>
<g id="layer2" transform="translate(-0.06401282,0.01494702)" inkscape:groupmode="layer" inkscape:label="Layer 2">
</g>
</svg>
