<?xml version="1.0" encoding="UTF-8"?><svg id="b" xmlns="http://www.w3.org/2000/svg" viewBox="0 0 1902.04 1010.35"><defs><style>.d{fill:#c0ddbf;}.d,.e,.f,.g,.h,.i,.j,.k,.l,.m,.n,.o,.p,.q,.r,.s,.t,.u,.v,.w,.x,.y,.z,.aa,.ab,.ac,.ad,.ae,.af,.ag,.ah,.ai,.aj,.ak,.al,.am,.an,.ao,.ap{stroke-width:0px;}.e{fill:#feb27e;}.f{fill:#3d567a;}.g{fill:#2c3a64;}.h{fill:#666;}.i{fill:#c4dfc5;}.j{fill:#cae3cd;}.k{fill:#bddcbc;}.l{fill:#94b0ed;}.m{fill:#163560;}.n{fill:#b8dab6;}.o{fill:#2f3652;}.p{fill:#bcdcbb;}.q{fill:#a9d3a1;}.r{fill:#aec3ff;}.s{fill:#96b0eb;}.t{fill:#bcdbba;}.u{fill:#ed9960;}.v{fill:#a9d2a0;}.w{fill:#fff;}.x{fill:#f8fcff;}.y{fill:#a8d29f;}.z{fill:#feffff;}.aa{fill:#fca56b;}.ab{fill:#ffc9a1;}.ac{fill:#f78248;}.ad{fill:#bddcbb;}.ae{fill:#f89868;}.af{fill:#a7d19f;}.ag{fill:#aa8173;}.ah{fill:#f88f5b;}.ai{fill:#ffb27d;}.aj{fill:#badbb7;}.ak{fill:#243862;}.al{fill:#95b0ed;}.am{fill:#1c468a;}.an{fill:#f99746;}.ao{fill:#a8d2a0;}.ap{fill:#ed7d2b;}</style></defs><g id="c"><path class="ac" d="m1255.45,537.97c44.26,12.32,76.97,44.91,76.46,93.37-.5,48.07-40.52,87.28-87.83,89.75-47.06,2.46-90.27-32.93-95.73-80.06-5.98-51.61,27.83-89.83,75.49-103.01,10.53-1.01,21.06-.9,31.6-.04Zm28.27,57.79c23.67,1.86,9.11-38.56-9.84-39.48-26.7-1.3-10.87,42.61,9.84,39.48Z"/><path class="o" d="m1608.6,1004.2c.67.3,1.33.81,2.03.86,1.73.13,3.48.07,5.21.07,92.77.02,185.55.04,278.32.06,2.32,0,4.64.04,6.96.06.32.89.81,1.76.9,2.67.1,1.02-.51,1.87-1.56,2.14-.74.19-1.53.24-2.29.26-1.74.04-3.48.02-5.22.02-627.84,0-1255.68,0-1883.52,0-2.13,0-4.26.04-6.38-.04-1.84-.07-2.78-.75-3-2.1-.26-1.58.48-2.58,1.98-3.06,102.91,4.34,206.84-.04,309.86.21,16.71-.03,33.43-.07,50.14-.1,18.82,0,37.64.01,56.45.02,16.75.01,33.5.03,50.25.04,74.16.88,148.36-.24,222.52-.09,133,.28,265.99-.1,398.99.06,132.41.16,265.01,2.02,397.4,0,16.81.02,33.62.03,50.42.09,1.98,0,3.83-.29,5.61-1.13,2.98,1.31,6.09.88,9.32.88.79-.87,1.41-1.57,2.04-2.26,1.14,5.08,48.17,4.31,53.55,1.35Z"/><path class="y" d="m311.89,1005.35c-103.02-.25-206.95,4.13-309.87-.21,9.41-3.47,23.05-.8,33.13-.8,11.83,0,23.67,0,35.5,0,22.74,0,45.51.33,68.25-.15,14.86.03,30.9,1.78,45.63-.12,10.84-1.4,24.69-1.85,35.07-5.11-5.35-7.5-52.37-27.71-35.98-41.5,20.31-17.09,35.31,30.64,40.61,40.66,11.6,0-5.56-30.84-8.62-36.42-4.73-8.62-26.21-31.04-13.15-39.81,14.2-9.54,24.22,11.08,27.68,20.81,3.3,9.29,5.24,19.37,6.77,29.09.96,6.07-.45,18.01,3.68,22.78,12.27,0,15.81-.37,23.5,9.67,15.69.02,31.71.04,47.73.06.19.33.21.68.07,1.03Z"/><path class="x" d="m1053.78,169.54c-87.11,0-174.12-2.31-261.21-2.32-44.83,0-89.53-1.15-134.41-1.16-21.32,0-42.41-1.15-63.73-1.15-12.69,0-25.37,0-38.06,0-8.6,0-23.85,3.18-31.82-.74,7.71-19.4,35.2-33.43,54.02-38.29,11.07-2.86,23.44.08,33.92-2.85,9.85-2.75,18.91-12.07,28.05-16.86,46.52-24.38,100.89-28.1,147.92-3,10.73,5.73,15,9.57,27.37,8.31,11.41-1.16,22.77-1.62,34.22-2.3,22.83-1.35,45.44-.5,68.27,1.81,45.31,4.59,105.13,21.98,135.46,58.55Z"/><path class="h" d="m561.5,577.62c.34-11.61,4-21.34,15.43-25.56,5.73-46.2,6.16-93.68,9.16-140.14,3.1-48.12,6.07-96.26,9.41-144.37-3.34-4.71-6.17-4.92-7.12-11.45-.69-4.73.65-10.59.65-15.43-37.92-4.61-78.87-.42-117.1-.42h-116.84c-2,12.68,1.35,18.3-9.13,26.6-24.73,89.62-68.76,172.78-109.75,255.69,9.96,7.4,7.38,19.88,2.9,29.61-5.82-2.91-11.57-5.99-17.5-8.65-3.65-1.63-7.6-2.61-11.41-3.88,4.19-9.96,10.56-18.53,22.27-18.53,24.07-39.7,42.86-84.16,61.65-126.55,18.46-41.65,35.76-83.94,48.12-127.84-9.08-7.27-7.13-14.64-7.13-25.72-6.29-1.33-12.83-.6-19.24-.97-.7-5.56-.48-10.85-.15-15.88,5.43-5,32.71-.84,40.15-.84,17.28,0,34.56,0,51.84,0,35.64,0,71.29-.01,106.93-.02,70.21-.01,140.41-.02,210.62-.03,139.33-.02,278.67-.04,418-.06,38.88,0,77.77-.01,116.65-.02,19.44,0,38.88,0,58.33,0,9.72,0,19.44,0,29.16,0,6.92,0,17.89-2.2,24.29.72.7,5.13.51,10.43.06,16.02-45.64,4.77-94.02.37-139.94.37-46.04,0-92.13-.65-138.17.12-3.08,10.41,3,18.71-7.54,25.98,9.04,44.85,30.61,89.36,49.15,130.92,18.64,41.77,38.16,83.71,60.3,123.76,11.68,0,18.3,8.68,22.32,18.6-9.77,3.83-19.32,8.59-29.05,12.31-.98-2.52-1.95-5.03-2.92-7.54,2.12-3.12-1.43-6.74-.93-10.13.82-5.57,2.67-8.19,6.93-11.95-41.44-83.87-81.13-166.63-109.91-255.83-11.2-5.69-7.34-15.53-8.73-26.24-18.07,0-36.15,0-54.22,0-9.67,0-19.34,0-29.02,0-4.44,0-16.43-2.22-19.73,1.28,0,12.45.46,16.59-7.73,25.26-.57,7.76-.39,280.99.22,285.6,11.23,4.65,13.6,14.86,13.65,26.12-10.53-.86-21.07-.97-31.6.04-.15-11.26,3.01-21.44,13.97-26.35,0-39.18,1.85-78.88-.28-118,1.41-16.87,1.46-35.4-.02-52.24,2.45-38.15.3-77.11.3-115.34-10.09-6.29-7.4-15.05-7.85-25.83-11.93-4-29.89-.54-42.41-.54-14.95,0-29.89,0-44.84,0-28.05,0-59.98-4.03-87.67.6,0,8.19,2.4,19.5-5.64,24.83-6.93.98-2.29,126.41-2.29,140.38,0,48.37-3.22,97.99.27,146.23,11.15,5.2,13.83,14.84,13.67,26.51-10.45-1.37-20.9-1.36-31.35,0-.14-11.35,2.89-21.67,13.8-26.63v-285.45c-9.93-8.21-6.38-14.34-8.37-26.44-25.21,0-50.41,0-75.62,0-22.92,0-49.04-3.52-71.6.44-1.12,11.14.81,20.43-9.8,26.64-5.23,47-6.04,94.96-9.13,142.16-3.11,47.47-6.92,94.95-9.12,142.47,9.61,7.93,13.11,14.65,12.05,27.39-.95-.06-1.93,0-2.86-.19-9.44-1.95-18.95-2.51-28.54-1.56Zm516.02-336.96c-.48,4.7-3.37,20.36,4.68,21.56,10.64,1.59,7.56-15.82,7.11-21.75-4.07-.29-7.8-.5-11.8.18Zm-484.41-.16c-.47,5.21-5.05,21.76,4.19,22.59,9.74.87,7.8-17.11,7.55-22.61-3.96-.36-7.69-.37-11.74.02Zm167.07,0c0,5.41-3.05,21.8,6.25,22.02,9.1.22,6.46-16.6,5.56-22.02h-11.81Zm-421-.04c-1.52,5.11-2.73,19.27,3.76,21.45,10.62,3.56,8.3-16.07,7.28-21.39-3.85-.41-7.44-.38-11.04-.06Zm615.5.02c0,4.23-1.93,29.53,9.87,20.61,4.47-3.38,2.22-16.34,1.48-20.64-3.47-.32-7.03-.28-11.35.03Zm-188.58,329.03h0c3.81,0,8.48,1.5,9.89-2.74,1.75-5.27-5.8-9.93-9.95-9.78-3.93.14-11.07,4.87-9.31,9.84,1.43,4.04,5.69,2.68,9.38,2.68Zm203.62-.69c4.16-14.37-21.39-15.74-17.75.11,4.79.88,13.21.85,17.75-.11Zm-733.29-28.07c9.8-13.53-14.31-22.3-16.17-7.23,5.32,2.85,10.83,4.96,16.17,7.23Zm971.71-7.23c-3.77-15.86-26.19-4.78-16.72,7.17,5.64-1.96,10.99-4.43,16.72-7.17Zm-621.63,36.28c4.62-19.41-23.29-12.59-17.37-1.23,5.71.4,11.39.81,17.37,1.23Z"/><path class="ac" d="m210.2,539.63c3.81,1.27,7.76,2.25,11.41,3.88,5.93,2.66,11.68,5.74,17.5,8.65,36.49,30.52,55.3,77.51,29.74,122.15-23.27,40.65-73.8,58.41-117.15,39.73-41.6-17.93-63.81-64.96-52.37-108.6,13.27-50.61,62.22-73.16,110.86-65.81Zm50.65,61.59c-.16-9.37-3.38-21.15-12.56-25.65-10.56-5.17-18.64,3.68-19.76,13.8-1.06,9.63,4.24,24.78,14.59,27.9,9.58,2.89,18.21-6.64,17.74-16.05Z"/><path class="ac" d="m561.5,577.62c9.59-.94,19.1-.39,28.54,1.56.93.19,1.9.13,2.86.19,29.47,10.17,53.67,27.69,65.05,57.92,10.33,27.45,6.19,60.54-10.63,84.55-18,25.69-48.55,41.09-79.88,39.58-29.1-1.4-63.63-18.03-75.72-46.29,2.88-3.28-3.81-19.01-3.06-19.33,1.51.97,3.04,1.95,5.31,3.41-.93-7.66-6.66-14.07-13.99-16.62.03-.71.06-1.43.09-2.14.03-4.22.11-8.45.03-12.67-.02-.85-.68-1.7-1.04-2.55h0c.38-2.62.86-5.23,1.11-7.85.74-7.78,2.78-15.22,5.81-22.4,13.14-33.79,41.92-49.91,75.54-57.35Zm33.6,35.04c-1.16,19.47,34.13,40.41,35.96,13.44,1.45-21.23-36.89-41.38-35.96-13.44Z"/><path class="ac" d="m1188.83,551.95c9.72-3.72,19.27-8.49,29.04-12.31,2.5-.36,5-.72,7.5-1.07,2.04.11,4.14.68,5.91-.92.34-.1.68-.18,1.02-.22,5.53,2.18,10.47,4.34,16.46,4.68,5.49.31,10.81-2.24,16.3-1.18,34.4,10.49,56.08,33.42,64.58,68.1,8.56,34.92-5.57,70.03-29.67,90.07-10.67,2.19-40.06,2.14-43.28,17.13-8.87,4.83-15.25,4.77-25.45,4.89-37.79-3.95-70.64-30.62-80.64-67.7-11.11-41.2,8.14-75.27,38.22-101.44Zm-21.4,46.91c-.99,10.45,7.21,22.07,18.45,17.98,7.98-2.9,12.48-13.16,13.5-20.85,1.08-8.19-1.79-20.64-11.74-22.16-12.69-1.95-19.85,15.39-20.21,25.04Z"/><path class="r" d="m1500.61,641.98c-12.33-14.14-37.05-31.06-30.27-52.02,6.03-18.65,20.5-37.23,32.54-52.48,5.23-4.56,10.44-8.74,14.95-14.02,2.74,3.93,18.78-5.81,22.4-6.99,5.19-1.71,20.22-.76,23.13-4.54,4.63,2.09,8.49,4.99,11.31,9.4,1.62,2.54,4.03,4.58,6.08,6.85-1.96,1.38,10.26,36.41,11.23,40.88,2.32,10.65,1.19,33.16,7.33,41.64.18,16.69,3.38,33.25,3.41,50.02.03,16.52-1.13,31.49-3.32,47.34-.28.05-.56.05-.85,0-.29-.47-.58-.93-.81-1.31-4.21,2.06-8.31,4.06-12.42,6.07-30.14,2.46-54.37,7.19-83.33-5.81-4.97-5.24-5.05-5.24-5.03-12.77.02-5.79.27-11.58.42-17.38,3.25-.86,5.77-3.1,8.31-5.03,3.8-2.89,7.45-6.09,9.94-10.32.65-1.11,1.31-2.22,1.96-3.33,13.41-7.31,28.13-72.79,12.96-76.41-5.85-1.39-15.18,6.32-19.44,9.73-6.42,5.14-7.76,7.25-4.9,15.2,2.67,7.43,7.84,13.84,11.46,20.78,2.69,5.16,1.62,7.05,2.64,12.18-.92.67-1.87,1.3-2.76,2.01-2.93,2.31-6.11,3.97-9.97,3.87-2.32-1.18-4.65-2.37-6.97-3.55Z"/><path class="r" d="m319.08,983.42c-.7-29.08-8.09-55.5-2.41-84.88,2.61-13.5,10.52-25.2,13.29-38.12,2.3-10.71-1.16-24.9-1.92-35.81-1.59-22.7-2.09-45.57-3.15-68.27-1.23-26.12-2.64-50.17,6.96-74.95,23.9,10.62,48.37,13.17,74.08,16.28-10.11,45.91-20.29,91.76-27.89,138.21-6.66,5.77-7.5,24.7-11.29,32.93-4.79,10.41-9.46,19.61-12.71,30.83-8.17,28.16-13.86,57.19-18.99,86.03-6.02-.16-9.59-1.55-14.75-4.6-.53,1.01-.88,1.68-1.23,2.35Z"/><path class="x" d="m697.44,50.93c-22.2,1.01-44.25-.93-66.46-.95-27.69-.02-55.91,1.41-83.5-.47-53.15-3.62-107.12-.51-160.37-2.01-2.84-6.99,15.75-17.27,20.58-19.55,8-3.78,21.09-7.57,29.67-4.64C455.4,7.85,482.56-1.77,506.3.27c10.25.88,20.35,3.54,29.66,7.88,10.97,5.12,15.15,8.25,27.38,6.99,45.09-4.63,101.17.84,134.1,35.78Z"/><path class="an" d="m431.61,553.6c14.22,4.29,22.37,10.94,27.93,24.35-.09,4.12-5.91,2.31-7.57,4.89-1.5,2.34-.31,5.1-.77,7.63-2.19,11.86-6.06,22.59-9.11,34.41-.48,1.64-1.01,3.27-1.43,4.92-1.95,7.55-3.88,15.1-5.82,22.65-1.22.93-1.13,2.23-.99,3.54h.01c-23.92-4.31-29.93-37.3-36.34-55.98-3.24-9.44-6.18-29.82-13.69-36.95-6.83-6.48-18.36.49-25.2,4.05-.18-2.01-.33-3.7-.47-5.39,0-3.54,1.11-6.84,2.64-9.92,2.31-4.66,5.66-8.21,11.3-8.63,2.43.07,4.94.85,7.15-.86,1.93,0,3.86-.01,5.79-.02.86.33,1.72.92,2.59.94,3.05.09,6.11,0,9.16-.04.35-.06.69-.03,1.03.07,3.03,8.94,9.48,14.23,18.82,15.94,8.49,1.55,9.59-.78,14.98-5.61Z"/><path class="ai" d="m358.15,561.72c.15,1.69.3,3.37.47,5.39,6.84-3.56,18.37-10.53,25.2-4.05,7.51,7.13,10.45,27.51,13.69,36.95,6.41,18.68,12.42,51.67,36.34,55.98,3.13,6.11,16.24,10.69,22.01,14.09,7.84,4.62,15.39,9.67,24.1,12.51,7.33,2.55,13.06,8.96,13.99,16.62-2.27-1.46-3.8-2.44-5.31-3.41-.75.32,5.94,16.05,3.06,19.33-4.16-3.15-10.74-6.53-13.7-10.91-3.06-4.55-1.33-9.99-4.49-14.28-7.67-1.25-39.81-13.74-45.43-8.34-4.1-6.37-23.42-9.32-30.33-14.03-10.4-6.88-17.04-23.52-21.98-34.39-6.4-14.07-9.85-29.31-16.15-43.28-1.09-8.16-4.65-20.45-1.49-28.19Z"/><path class="g" d="m411.03,518.26c-3.41-7.94-11.33-4.94-15.18-13.83-4.41-10.19-.58-20.78,3.79-30.17-11.87-2.5-13.74-20.36-6.19-28.57,10.2-11.07,25.18-1.86,29.2,9.96,25.15-4.57,49.68,34.26,33.12,54.58-5.61-4.06-.09-19.3-6.13-25.76-7.72,9.99-15.36,21.13-28.5,23.89,3.24-2.37,5.56-4.07,7.88-5.77,1.46-.47,2.6-1.26,3.15-3.38-1.92.5-3.73,1.24-5.45,2.23-4.14.09-8.29.19-12.49.28-1.4,4.73-.45,12.78-3.21,16.53Z"/><path class="an" d="m397.77,667.57c6.91,4.72,26.22,7.66,30.33,14.03-1.43,7.05-.9,12.7-8.23,15.27-4.65.27-9.29.54-13.94.81-25.71-3.12-50.17-5.66-74.08-16.28-9.02-15.57,14.04-38.32,22.92-48.8,2.49,6.83,34.67,46.52,43,34.98Z"/><path class="m" d="m1522.04,442.93c-12.71-29.14,38.95-18.22,51.71-9.58,22.41,15.18-3.14,44.06-17.43,56.01-5.59,2.4-16.13,4.32-19.12-3.01-1.84-4.49,3.91-10.77,1.95-15.15-2.63-5.87-8.11-2.49-12.29-6.73-4.03-4.08-3.85-15.98-4.8-21.55Z"/><path class="ai" d="m411.03,518.26c2.75-3.75,1.8-11.81,3.21-16.53,4.2-.1,8.35-.19,12.49-.28.76.38,1.53.77,2.29,1.15-2.32,1.7-4.64,3.4-7.88,5.77,13.15-2.76,20.79-13.9,28.5-23.89,6.04,6.45.53,21.69,6.13,25.76-1.84,6.07-5.04,15.22-9.65,19.66-4.05,3.9-8.94,1.69-12.11,4.38-1.65-3.71-14.9-10.83-18.64-12.28,1.66,7.22,8.52,18.74,17.17,17.87-.62,2.96-1.21,5.93-1.86,8.88-.39,1.76-.25,3.4.92,4.85-5.39,4.83-6.49,7.16-14.98,5.61-9.34-1.71-15.78-7-18.82-15.94,7.12-4.39,12.61-17.18,13.22-25.01Z"/><path class="ai" d="m442.08,624.87c3.06-11.82,6.93-22.54,9.11-34.41.47-2.53-.73-5.28.77-7.63,1.65-2.58,7.48-.77,7.57-4.89,2.73,6.67,19.65,58.05,26.43,57.03-3.03,7.18-5.07,14.62-5.81,22.4-.25,2.63-.73,5.23-1.11,7.85-16.01-7.73-26.94-26.5-36.97-40.35Z"/><path class="ai" d="m1522.04,442.93c.95,5.57.78,17.47,4.8,21.55,4.19,4.24,9.66.86,12.29,6.73,1.96,4.38-3.79,10.65-1.95,15.15,3,7.32,13.53,5.41,19.12,3.01.28,5.23-.19,10.52,1.1,15.68-1.28.36-2.55.78-3.85,1.06-10.08,2.17-20.13,4.48-29.76,8.25.08-3.71.81-7.29,2.2-10.73.13.92.25,1.84.37,2.76,7.3-1.07,19.3-6.92,23.19-11.21-6.29-.78-15.72.66-22.47.63-21.81-4.79-11.38-37.79-5.05-52.87Z"/><path class="l" d="m1599.32,610.7c-6.14-8.48-5.01-30.99-7.33-41.64-.97-4.47-13.2-39.5-11.23-40.88,10.33,11.17,21.9,23.42,28.85,37.1,8.07,15.89.31,32.58-10.28,45.42Z"/><path class="ap" d="m397.77,667.57c-8.33,11.54-40.51-28.15-43-34.98,3.93-7.41,4.05-15.57,4.5-23.62.36-6.35.26-12.72.36-19.08,6.3,13.97,9.76,29.21,16.15,43.28,4.94,10.87,11.58,27.51,21.98,34.39Z"/><path class="ak" d="m319.08,983.42c.35-.67.7-1.34,1.23-2.35,5.16,3.05,8.73,4.44,14.75,4.6,3.65,5.33,6.09,9.5,11.9,12.26,5.43,2.58,11.46,1.6,15.08,7.31-16.71.03-33.43.07-50.14.1.14-.36.12-.7-.07-1.03.5-5.62,1.86-10.93,5.31-15.58,1.14-1.53,2.03-3.28,1.95-5.31Z"/><path class="al" d="m1523.81,514.35c9.64-3.77,19.68-6.09,29.76-8.25,1.3-.28,2.57-.7,3.85-1.06,3.4,1.07,5.34,3.41,5.95,6.89-2.91,3.77-17.95,2.83-23.13,4.54-3.61,1.19-19.66,10.92-22.4,6.99.63-3.93,3.85-6.16,5.97-9.11Z"/><path class="aa" d="m1527.09,495.8c6.75.03,16.18-1.41,22.47-.63-3.88,4.29-15.88,10.14-23.19,11.21-.12-.92-.25-1.84-.37-2.76.08-.7.16-1.4.24-2.1,1.32-.98,1.06-2.36.93-3.7-.03-.68-.06-1.35-.09-2.03Z"/><path class="u" d="m432.55,539.87c-8.65.86-15.5-10.65-17.17-17.87,3.73,1.45,16.99,8.56,18.64,12.28-.49,1.87-.98,3.73-1.47,5.59Z"/><path class="ai" d="m396.78,543.2c-3.05.03-6.11.13-9.16.04-.87-.03-1.73-.61-2.59-.94,3.95-.07,7.95-.81,11.75.91Z"/><path class="ai" d="m379.23,542.31c-2.21,1.71-4.72.92-7.15.86,2.24-1.52,4.71-1.06,7.15-.86Z"/><path class="ai" d="m1231.29,537.64c-1.77,1.6-3.88,1.03-5.91.92,1.8-1.37,3.87-1.07,5.91-.92Z"/><path class="ai" d="m1527.18,497.82c.13,1.34.38,2.72-.93,3.7-.14-1.35-.13-2.66.93-3.7Z"/><path class="ai" d="m1683.95,933.43c-1.5-1.98-1.21-3.98-.09-5.99.03,2,.06,3.99.09,5.99Z"/><path class="m" d="m1598.56,708.05c-1.88,27.95-3.31,56.02-2.3,84.03,1.04,28.69,7.94,54.77,12.66,82.86,2.45,24.68,4.57,49.15,5.44,73.96.68,19.28,1.78,37.19-5.76,55.3-5.38,2.96-52.41,3.73-53.55-1.35,1.78-6.59,10.59-6.45,15.68-8.39,6.19-2.36,11.77-5.52,16.11-10.58-5.38-.83-8.33-32.3-9.66-37.93-3.55-15.07-7.66-30-11.66-44.95-3.71-16.21.74-36.14-.32-53.02-.89-14.17-.3-27.9,1.59-41.97,4.22-31.43,10.88-62.44,18.55-93.2,4.1-2,8.2-4.01,12.42-6.07.23.38.52.84.81,1.31Z"/><path class="af" d="m1487.65,1005.28c-132.39,2.02-264.99.16-397.4,0-133-.16-265.99.21-398.99-.06-74.16-.15-148.37.96-222.52.09-.09-.32-.11-.65-.06-.98,37.19-.77,74.47-.04,111.67-.03,19.39,0,38.81.28,58.2.04,15.26-.19,26.14-10.77,41.27-10.65,1.64-.05,3.49.73,4.66-1.18,0,0-.06,0-.06,0,.43.02.87.05,1.3.07,12.32,1.87,24.43,3.51,36.91,3.39,1.2-.31,1.38-1.23,1.33-2.28.04-1.52.08-3.04.12-4.56.39-.01.78-.02,1.17-.03-.02,1.91-.05,3.83-.07,5.74,2.05,1.6,2.26,1.61,4.62.17,12.71-2.28,23.06-3.35,29.41,9.18,68.25,1.06,136.86,1.28,205.11-.01,70.89,0,141.78.01,212.67.01,1.54,0,3.09-.07,4.63-.11,24.2.77,48.57.52,72.78.05,24.86,0,49.71-.01,74.57-.02,1.54.06,3.09.18,4.63.18,51.35,0,102.7-.02,154.05-.03.09.34.09.68,0,1.02Z"/><path class="m" d="m1547.2,990.49c-.13,4.85-.88,9.54-3.52,13.75-1.77.85-3.63,1.14-5.61,1.13-16.81-.06-33.62-.07-50.42-.09.08-.34.08-.68,0-1.02,2.82-4.74,6.97-7.18,12.41-8.32,8.77-1.84,16.57-5.79,22.63-12.67,5.2-2.78,18.3-.51,24.08.77.16,2.31.3,4.38.44,6.46Z"/><path class="ak" d="m468.68,1004.32c-.05.33-.03.66.06.98-16.75-.01-33.5-.03-50.25-.04,1.02-7.19,5.73-14.86,2.7-21.9,5.06,1.59,10.02,1.67,14.82-.95.31-.17.74-.11,1.12-.15,4.91,5.42,9.53,12.17,16.16,15.36,5.49,2.64,10.97,1.91,15.39,6.7Z"/><path class="am" d="m1522.68,983.27c-4.53-4.04-.74-30.75-.97-37.24-.47-12.92-1.49-25.83-2.6-38.72-2.21-25.85-5.75-51.5-9.35-77.19-3.52-40.82-8.59-82.08-7.76-123.13,28.96,13,53.19,8.27,83.33,5.81-7.67,30.76-14.33,61.77-18.55,93.2-1.89,14.07-2.48,27.8-1.59,41.97,1.06,16.88-3.38,36.82.32,53.02-6.02,3.46-5.99,38.23-7.04,44.96-.99,6.35-1.85,36.82-9.65,37.82-.56,2.31-1.09,4.51-1.61,6.71-.14-2.07-.28-4.15-.44-6.46-5.78-1.28-18.87-3.55-24.08-.77Z"/><path class="s" d="m1515.64,661.49c-2.49,4.23-6.14,7.43-9.94,10.32-2.54,1.93-5.06,4.17-8.31,5.03-.82-11.18,1.63-23.78,3.23-34.86,2.32,1.18,4.65,2.37,6.97,3.55-3.45,5.11-2.27,19.65,8.05,15.96Z"/><path class="ac" d="m782.05,578.8c45.98,9.32,79.66,50.06,76.29,97.62-3.25,45.92-41.28,82.81-87.13,85.35-46.86,2.6-89.45-32.22-96.13-78.78-7.31-50.96,27.59-92.82,75.61-104.19,10.45-1.36,20.9-1.37,31.35,0Zm40.62,44.12c.06,0,.11,0,.17,0-.8-10.09-6.62-20.53-16.42-24.6-10.91-4.53-20.03.72-19.95,12.39.13,19.52,36.2,39.22,36.2,12.22Z"/><path class="ac" d="m976.44,578.52c44.26,12.32,76.97,44.91,76.46,93.37-.5,48.07-40.52,87.28-87.83,89.75-47.06,2.46-90.27-32.93-95.73-80.06-5.98-51.61,27.83-89.83,75.49-103.01,10.53-1.01,21.06-.9,31.6-.04Zm28.27,57.79c23.67,1.86,9.11-38.56-9.84-39.48-26.7-1.3-10.87,42.61,9.84,39.48Z"/><path class="x" d="m769.32,363.45c12.5.62,24.98-3.16,37.79-2.13,16.37,1.31,32.81,5.94,47.43,13.42,7.42,3.79,13.36,9.57,21.83,9.88,9.05.33,18.73-2.19,27.77-2.7,18.26-1.03,36.09.06,54.38.06,1.48,16.84,1.42,35.37.02,52.24-62.63,0-125.03-1.16-187.65-1.16-5.49-4.42-1.61-26.99-1.6-33.01,0-12.2.02-24.39.03-36.59Z"/><path class="ab" d="m260.85,601.22c.47,9.41-8.16,18.94-17.74,16.05-10.34-3.12-15.65-18.26-14.59-27.9,1.11-10.12,9.2-18.97,19.76-13.8,9.19,4.5,12.41,16.28,12.56,25.65Z"/><path class="ab" d="m595.1,612.67c-.93-27.94,37.41-7.79,35.96,13.44-1.84,26.97-37.12,6.03-35.96-13.44Z"/><path class="ai" d="m480.06,680.45c-.32-1.26-.88-2.52-.93-3.79-.13-3.8-.07-7.62-.08-11.42.36.85,1.02,1.69,1.04,2.55.08,4.22,0,8.45-.03,12.67Z"/><path class="ab" d="m1167.44,598.86c.36-9.65,7.52-26.98,20.21-25.04,9.95,1.53,12.82,13.98,11.74,22.16-1.01,7.69-5.52,17.95-13.5,20.85-11.24,4.09-19.44-7.53-18.45-17.98Z"/><path class="l" d="m1520.31,639.65c-1.02-5.13.06-7.03-2.64-12.18-3.62-6.94-8.79-13.34-11.46-20.78-2.86-7.95-1.52-10.06,4.9-15.2,4.26-3.41,13.59-11.12,19.44-9.73,15.17,3.61.45,69.1-12.96,76.41.97-3.11-.08-6.51,1.5-9.56,1.45-2.8,1.68-5.85,1.21-8.95Z"/><path class="e" d="m1520.31,639.65c.47,3.1.24,6.15-1.21,8.95-1.58,3.05-.54,6.45-1.5,9.56-.66,1.11-1.31,2.22-1.96,3.33-10.32,3.69-11.51-10.85-8.05-15.96,3.86.1,7.04-1.56,9.97-3.87.89-.7,1.84-1.34,2.76-2.01Z"/><path class="l" d="m419.87,696.87c2.82,17.95,8.15,38.25,7.02,56.52.24,3.38-.81,6.37-2.36,9.34-6.66,12.78-13.28,25.6-19.8,38.46-6.96,13.73-13.78,27.52-20.7,41.27-.93,1.85-1.4,4.08-3.62,5.01-.42-2.68-.85-5.36-1.27-8.04.09-1.32.32-2.69-1.08-3.55,0,0,0,0,0,0,7.6-46.45,17.78-92.3,27.89-138.21,4.65-.27,9.29-.54,13.94-.81Z"/><path class="ai" d="m434.83,652.45c.19,1.33.13,2.58-.99,3.54-.14-1.31-.23-2.61.99-3.54Z"/><path class="ag" d="m429.03,502.6c-.76-.38-1.53-.77-2.29-1.15,1.71-.99,3.53-1.73,5.45-2.23-.56,2.12-1.7,2.91-3.15,3.38Z"/><path class="r" d="m380.4,847.47c2.22-.93,2.69-3.16,3.62-5.01,6.92-13.75,13.74-27.54,20.7-41.27,6.52-12.86,13.13-25.67,19.8-38.46,1.55-2.97,2.61-5.97,2.36-9.34,3.65,3.45,1.04,16.31,1.04,21.18,0,10.59.51,21.32.01,31.89-.91,19.4-5.84,38.46-6.94,57.78-2.15,37.51,4.37,82.44,16.13,118.01-.38.04-.81-.02-1.12.15-4.8,2.62-9.76,2.55-14.82.95-13.62-21.4-25.78-43.94-33.63-68.16-7.41-22.85-6.68-44.34-7.16-67.73Z"/><path class="r" d="m378.05,835.88c1.4.87,1.17,2.23,1.08,3.55-1.18-.93-1.1-2.25-1.08-3.55Z"/><path class="y" d="m1164.04,990.23c7.19,2.92,12.92,7.7,17.58,13.84-1.54.04-3.09.11-4.63.11-70.89,0-141.78,0-212.67-.01,16.63-20.35,37.44-18.38,61.14-12.18,23.45,6.14,39.53-.31,61.76-7.63,1.31.05,2.67.31,3.62-.98,22.64-6.17,47.37-7.23,68.5,4.5.86,2.21,2.68,2.5,4.71,2.35Z"/><path class="y" d="m1254.39,1004.13c.12-11.49,14.86-10.03,22.23-9.29,6.04-13.07,3.57-83.99,34.22-72.15,14.03,5.42,1.24,21.29-3.86,29.28-8.79,13.79-14.54,28.29-20.09,43.63,1.19,2.35,2.98,2.3,4.59,2.78,8.81-10.59,14.04-49.48,36.33-42.07,25.55,8.49-26.52,36.84-31.22,42.27,6.79,5.69,23.42.6,32.35,5.54-24.86,0-49.71.01-74.57.02Z"/><path class="n" d="m724.07,989.13c-.68-6.67.81-18.41,3.32-24.53.32,1.62-.49,3.53,1.25,4.78-1.83,6.23-.55,13.94-3.41,19.72-.39.01-.78.02-1.17.03Z"/><path class="ad" d="m683.43,976.32c.24.29.66.57.69.88.56,5.12,1.07,10.24,1.59,15.36-.43-.02-.87-.05-1.3-.07-.21-.53-.56-1.04-.62-1.59-.51-4.88-.97-9.76-1.45-14.64.36.03.73.04,1.09.05Z"/><path class="ad" d="m679.81,993.68c1.29-1.44,3.08-.9,4.66-1.18-1.17,1.91-3.02,1.13-4.66,1.18Z"/><path class="n" d="m725.18,994.84c1.54.05,3.08.11,4.62.17-2.36,1.44-2.57,1.44-4.62-.17Z"/><path class="n" d="m722.63,995.96c.44-.76.89-1.52,1.33-2.28.05,1.04-.13,1.96-1.33,2.28Z"/><path class="x" d="m762.59,366.15c3.97,8.05.93,23.44.88,32.19-.05,11.13.88,22.89-.5,33.96-8.34,1.99-16.57,0-24.86-.38-12.87-.61-25.94-.02-38.82-.02-12.29,0-24.59,0-36.88,0-9.07,0-25.67,3.02-34.2-.56-.29-8.9,17.99-21.04,24.41-25.05,12.46-7.78,26.96-11.49,41.52-11.71,14.13-.21,19.6-6.94,31.76-13.86,9.31-5.29,25.71-15.33,36.69-14.56Z"/><path class="x" d="m1088.54,435.38c-41.54,0-83.07-.55-124.53-1.26-3.58-13.23-2.99-36.41-.44-50.06,6.59-4.46,27.62,2.62,35.06,4.31,12.26,2.78,23.96,6.61,35.58,11.42,19.55,8.09,39.93,19.03,54.81,34.37-.16.41-.32.81-.48,1.22Z"/><path class="w" d="m744.89,889.23c-2.34-4.4-1.1-8.6.89-12.52-2.08-3.49-16.87,11.38-17.15-4.69-.16-9.34,8.13-8.22,14.69-7.21-3.46-4.61-14.25-14.6-2.55-18.38,8.19-2.65,10.14,7.62,11.94,12.86,5.04.09,3.14-14.14,13.23-11.37,12.22,3.35,1.25,14.67-3.99,18.19,2.18,4.41,12.02-.99,13.78,7.79,2.7,13.47-12.26,7.74-17.03,3.3-3.62,2.46,1.98,21.27-12.48,13.2-.44-.39-.88-.78-1.32-1.17Zm8.16-19.5c5.83.06-.67-5.53-.58-4.55.03.3-4.29,4.5.58,4.55Z"/><path class="w" d="m1068.82,893.95c-10.46,2.34-12.03-3.02-10.6-12.2-4.92,2.49-14.22,11.42-16.21.18-1.56-8.81,8.23-8.92,14.01-9.19-4.33-3.48-17.17-9.34-7.29-16.15,8.81-6.07,9.72,6.89,13.98,9.71,1.73-6.03,4.76-16.41,12.89-11.11,7.87,5.12.36,11.29-4.09,15.52,5.96,0,14.12-1.38,13.43,7.11-.74,9.1-9.12,6.24-14.53,3.38-.28,4.69,2.31,8.99-1.59,12.76,0,0,0,0,0,0Zm-3.79-20.95c-.83-5.77-5,.72-4.86.71.06,0,5.59,4.43,4.86-.71Z"/><path class="ao" d="m728.65,969.38c-1.74-1.24-.93-3.16-1.25-4.78.55-4.56,1.1-9.12,1.69-13.97-10.03-4.16-35.7-13.03-24.85-28.25,12.27-17.2,24.34,7.46,25.61,17.85-.15,1.2.17,1.96,1.58,1.89.24-.01.51.4.76.61-.42,6.81-2.07,13.47-3.37,20.15,5.51-1.37,20.3-23.24,24.1-4.6,2.78,13.62-16.6,11.17-24.28,11.1Z"/><path class="w" d="m665.92,904.35c-3.83,2.29-6.99,1.08-10.11-2.2-.76-2.98-.25-6.31.6-10.6-14.1,12.83-22.17-2.79-4.36-8.82-15.21-8.96-.82-23.07,7.6-5.88,4.29-1.68,4-15.21,12.61-10.08,8,4.76-.41,11.71-3.89,15.46,18.8-2.16,14.39,19.33-1.7,8.98-1.28,2.06,1.41,8.78.45,12.03-.4.37-.81.73-1.21,1.1Zm-5.81-22.09c-4.76,0-.26,4-.28,4.42,0,.2,5.51-4.42.28-4.42Z"/><path class="w" d="m1179,905.6c-3.24-2.96-1.82-6.77-1.31-10.55-12.95,6.5-18.78-9.2-2.23-10.79-3.99-3.56-9.13-11.76-.09-13.53,6.8-1.33,7.12,5.85,9.8,9.99,7.76-15.87,21.98-4.31,7.47,5.65,17.06,4.43,8.43,19.94-3.14,9.47-3.95,2.11,2.1,17.52-10.5,9.73,0,0,0,.02,0,.02Z"/><path class="y" d="m1082.69,940.36c-3.01-2.04,9.1-23.63,19.13-20.33,25.01,8.23-9.77,26.33-16.85,29.57-.72,0-1.43-.01-2.15-.02-.43-2.69-.86-5.37-1.3-8.06l1.17-1.17Z"/><path class="y" d="m673.08,928.62c-.08-.71-.17-1.41-.25-2.12.4-1.61.8-3.22,1.2-4.83,1.19-8.28,11.91-34.47,23.08-17.59,8.36,12.63-11.73,21.24-20.64,23.55-1.13.33-2.26.66-3.39.99Z"/><path class="z" d="m989.76,936.83c-6.11,3.03-7.51-.43-8.34-5.94-3.72-.19-5.35,6.4-9.76,2.36-5.19-4.75,2.77-8.28,5.78-9.84-10.05-6.47-3.56-14.84,5.18-5.76,4.54-11.24,14.24-6.35,7.64,2.57,12.28,1.33,9.49,12.14-1.01,7.89-1.04,5.03,4.12,2.08.54,8.68,0,0-.04.04-.04.04Z"/><path class="ao" d="m1164.04,990.23c-2.03.15-3.85-.14-4.71-2.35,3.76-1.44,2.96-12.67,3.16-15.23-7.95-3.56-27.21-9.01-21.85-21.26,2.29-5.24,7.84-7.46,13.02-5.14,6.79,3.03,7.62,11.88,9.23,18.28.39,2.03.79,4.06,1.18,6.09-.35,3.02-.86,6.03-1,9.05-.16,3.54-1.4,7.22.97,10.54Z"/><path class="v" d="m1060.29,980.38c-4.86-5.83-34.91,8.43-29.31-11.79,5.05-18.24,20.88,3.62,27.82,5.07,1.06,1.81,1.93,3.67,1.49,6.72Z"/><path class="v" d="m1057.76,969.81c-4.25-7.72.9-29.54,12.14-27.89,22.92,3.37-6.15,24.23-12.14,27.89Z"/><path class="v" d="m1037.39,937.96c-7.95.27-28.08,4.8-26.33-9.81,2.41-20.13,22.63,1.04,27.5,6.41-.39,1.13-.78,2.27-1.17,3.4Z"/><path class="ao" d="m683.43,976.32c-.37,0-.73-.02-1.09-.05-.05-.74-.1-1.49-.14-2.23-.73-1.13-1.87-1.22-3.04-1.21-3.65.03-7.31.06-10.96.08-5.76-1.25-11.75-6.71-6.33-12.7,6.73-7.45,13.72,2.35,17.96,7.05.43,2.02,2.35,2.89,3.4,4.43.07,1.54.14,3.08.21,4.62Z"/><path class="v" d="m1003.69,964.62c-.33-7.53,8.83-21.01,15.16-9.86,5.08,8.93-10.01,14.73-14.83,19.42-.5-1.93-1.02-3.92-1.54-5.9.4-1.22.81-2.44,1.21-3.65Z"/><path class="v" d="m1110.09,965.57c-5.99-.7-25.23-11.37-11.46-16.5,6.58-2.45,16.26,12.03,11.46,16.5Z"/><path class="q" d="m1118.91,941.05c1.49-5.72,9.5-20.63,16.71-11.91,7.91,9.57-10.72,13.3-16.71,11.91Z"/><path class="v" d="m1116.99,971.81c-10.93,0-2.79-11.5,3.29-13.1,11.68-3.08,11.4,12.94-3.29,12.94v.16Z"/><path class="k" d="m1164.06,970.64c-.39-2.03-.79-4.06-1.18-6.09,5.6-6.54,4.99-22.6,7.06-31.04,2.07-8.46,3.12-21.17,9.05-27.91,0,0,0-.02,0-.02-.18,10.58-6.05,22.68-8.37,32.92-1.96,8.62-1.94,24.58-6.55,32.14Z"/><path class="aj" d="m732.2,942.73c-.25-.21-.52-.62-.76-.61-1.42.07-1.74-.69-1.58-1.89,4.58-3.13,5.34-18.1,6.56-22.95,2.4-9.49,5.52-18.73,8.47-28.06.44.39.88.78,1.32,1.17-4.88,16.12-6.41,37.54-14.01,52.34Z"/><path class="p" d="m1082.69,940.36l-1.17,1.17c-3.82-5.02-4.47-17.04-5.89-22.79-2.06-8.33-4.42-16.54-6.81-24.78,0,0,0,0,0,0,5.79.34,13.8,40.88,13.88,46.4Z"/><path class="ad" d="m683.23,971.7c-1.05-1.54-2.97-2.41-3.4-4.43,4.07-10.75-6.35-27.48-6.75-38.66,1.13-.33,2.26-.66,3.39-.99-4.65,7.64,5.33,34.98,6.76,44.08Z"/><path class="t" d="m1082.81,949.58c.72,0,1.43.01,2.15.02.91,7.28-.07,29.04,5.87,33.78-.94,1.29-2.31,1.04-3.62.98-.98-11.67-2.72-23.2-4.4-34.78Z"/><path class="i" d="m1003.69,964.62c-.4,1.22-.81,2.44-1.21,3.65-4.15-10.11-10.04-20.84-12.72-31.44,0,0,.04-.04.04-.04,8.3,3.58,7.58,21.66,13.89,27.83Z"/><path class="j" d="m1037.39,937.96c.39-1.13.78-2.27,1.17-3.4,6.67,7.36,14.7,16.65,16.29,26.75l.06-.06c-3.57-5.61-9.41-22.14-17.52-23.29Z"/><path class="d" d="m674.02,921.67c-.4,1.61-.8,3.22-1.2,4.83-.63-1.75-1.34-3.48-1.88-5.26-1.71-5.62-3.36-11.26-5.03-16.89.4-.37.81-.74,1.21-1.1,2.12,4.46,3.33,9.23,4.64,13.96.46,1.67.79,3.33,2.26,4.46Z"/><path class="ad" d="m668.19,972.92c3.65-.03,7.31-.06,10.96-.08,1.18,0,2.32.08,3.04,1.21-3.43-.02-6.85-.04-10.28-.07-1.34,0-2.69.03-3.72-1.06Z"/><path class="v" d="m1054.85,961.31c.81.34.94.82.38,1.42-.26-.45-.37-.95-.32-1.49,0,0-.06.06-.06.06Z"/><path class="ab" d="m822.66,622.92c0,27-36.08,7.29-36.2-12.22-.08-11.67,9.04-16.92,19.95-12.39,9.8,4.07,15.62,14.51,16.42,24.6-.06,0-.11,0-.17,0Z"/><path class="ab" d="m1004.71,636.31c-20.71,3.13-36.54-40.78-9.84-39.48,18.95.92,33.5,41.34,9.84,39.48Z"/><path class="ah" d="m753.05,869.72c-4.88-.05-.55-4.25-.58-4.55-.09-.98,6.41,4.62.58,4.55Z"/><path class="f" d="m1065.03,873.01c.73,5.13-4.8.7-4.86.71-.14.01,4.03-6.48,4.86-.71Z"/><path class="ae" d="m660.1,882.26c5.24,0-.28,4.62-.28,4.42.01-.42-4.48-4.42.28-4.42Z"/></g></svg>