<?xml version="1.0" encoding="UTF-8"?><svg id="b" xmlns="http://www.w3.org/2000/svg" viewBox="0 0 672.8 282.55"><defs><style>.d{fill:#f05b5c;}.d,.e,.f,.g,.h,.i,.j,.k,.l,.m,.n,.o,.p,.q,.r,.s,.t,.u,.v,.w,.x,.y,.z,.aa,.ab,.ac,.ad,.ae,.af,.ag,.ah,.ai,.aj,.ak,.al,.am,.an{stroke-width:0px;}.e{fill:#726d66;}.f{fill:#4bbea0;}.g{fill:#f2a0a0;}.h{fill:#7dc575;}.i{fill:#6e6a64;}.j{fill:#6fbe4b;}.k{fill:#a5d9c8;}.l{fill:#f29e9e;}.m{fill:#b3853a;}.n{fill:#736d66;}.o{fill:#726c65;}.p{fill:#fe5a5a;}.q{fill:#dcbb76;}.r{fill:#716b65;}.s{fill:#72ceea;}.t{fill:#716c65;}.u{fill:#f15c5c;}.v{fill:#eac67a;}.w{fill:#00397f;}.x{fill:#f05758;}.y{fill:#f15c5d;}.z{fill:#6d6963;}.aa{fill:#706b65;}.ab{fill:#75cfea;}.ac{fill:#f2a1a1;}.ad{fill:#7ad1eb;}.ae{fill:#fe5b5b;}.af{fill:#f29c9c;}.ag{fill:#78d0ea;}.ah{fill:#e6b449;}.ai{fill:#6f6a64;}.aj{fill:#a97b37;}.ak{fill:#f15d5e;}.al{fill:#b68236;}.am{fill:#f2a2a2;}.an{fill:#09aed8;}</style></defs><g id="c"><path class="w" d="m204.18,196.87c-5.01,14.38-10.76,18.41-26.26,18.41-10.31,0-20.61,0-31.69,0,0,2.03,0,3.78,0,5.52,0,15.81.03,31.61,0,47.42-.02,10.09-4.23,14.32-14.21,14.32-39.31.01-78.63.01-117.94,0-10.02,0-14.07-3.96-14.07-13.79C0,193.71,0,118.67,0,43.64c0-1.62.13-3.24.23-5.48,2.09,0,3.87,0,5.64,0,44.81,0,89.62.08,134.43-.11,4.9-.02,6.13,1.43,6.03,6.15-.3,13.77-.11,27.55-.11,41.9,10.86,0,21.3,0,31.74,0,15.64,0,21.22,3.92,26.21,18.4,0,30.79,0,61.58,0,92.37Zm-21.81-1.61c.68-1.56,1.94-3.12,1.94-4.68.12-26.61.11-53.22.04-79.83,0-1.49-.72-2.98-1.11-4.47h-36.63v88.99h35.75Zm-44.04-150.89c-23.91-.07-47.82-.2-71.73-.21-19.76,0-39.52.13-59.28.21-.43,1.73-1.24,3.45-1.24,5.18-.06,64.35-.06,128.7-.03,193.05,0,1.81.29,3.61.44,5.42,1.34,4.07,4.69,4.05,8.1,4.05,38.78-.02,77.56,0,116.34-.01,7.6,0,9.16-1.53,9.16-8.9,0-64.67,0-129.34-.03-194.01,0-1.54-.49-3.08-.76-4.62-.33-.05-.65-.1-.98-.15Z"/><path class="w" d="m252.2,121.28h146.8c.09,1.96.24,3.72.24,5.49.01,47.26.01,94.52,0,141.78,0,9.82-4.12,13.99-13.93,13.99-39.99.02-79.97.02-119.96,0-8.91,0-13.4-4.34-13.4-13.02-.03-48.09-.02-96.18,0-144.28,0-1.15.14-2.29.24-3.96Zm140.26,127.26c.28-1.43.79-2.86.79-4.29.05-24.84.05-49.68,0-74.52,0-1.16-.6-2.32-.93-3.48-9.58-2.95-18.54-6.92-25.58-14.43-6.53-6.97-10.5-15.21-12.52-24.47-.87-.11-1.52-.27-2.17-.27-30.91.06-61.83.14-92.74.21-.44,1.72-1.26,3.43-1.26,5.15-.07,36.57-.06,73.14-.04,109.7,0,1.65.21,3.29.32,4.94.45,3.76,2.94,4.84,6.3,4.83,40.61,0,81.21.04,121.82-.15,2.01,0,4.01-2.11,6.02-3.23Z"/><path class="w" d="m547.23,155.21c-1.62-2.95-2.67-6.45-4.94-8.77-21.78-22.25-43.77-44.3-65.71-66.4-12.2-12.29-24.42-24.56-36.61-36.86-1.12-1.12-2.09-2.39-4.06-4.67,3.34-.16,5.37-.34,7.4-.34,60.99-.02,121.98-.05,182.97.07,3.57,0,5.83-.84,7.64-4.01,2.14-3.74,4.83-7.16,7.31-10.7,2.25-3.21,4.26-6.11,3.04-10.7-1.12-4.22,2.64-8.08,7-8.64,4.51-.59,8.32,1.97,9.39,6.29,1.06,4.32-1.15,9.43-5.35,9.75-5.33.4-7.17,4-9.55,7.47-2.15,3.14-4.27,6.31-7,10.33h34.04c-1.85,2.53-2.67,4.02-3.83,5.19-23.57,23.76-47.19,47.47-70.76,71.23-11.02,11.11-22.13,22.14-32.8,33.58-2.24,2.4-3.85,6.4-3.87,9.68-.28,33.12-.11,66.24-.24,99.36-.02,4.75,2.03,6.87,6.39,7.92,18.9,4.57,37.76,9.29,56.63,13.99,1.68.42,3.3,1.1,4.95,1.66-.07.42-.14.83-.2,1.25h-149.11c-.11-.3-.21-.61-.32-.91,1.67-.67,3.3-1.54,5.03-1.97,18.86-4.72,37.74-9.36,56.6-14.07,3.1-.77,6.35-1.54,6.02-5.88.06-17.56.18-35.11.18-52.67,0-17.06-.14-34.11-.22-51.17Zm80.11-93.48c-2.11,7.95-5.55,9.86-13.02,7.59-1.31-.4-3.16.02-4.46.67-7.14,3.55-14.15,7.36-21.28,10.92-3.29,1.64-6.45,2.97-7.06,7.37-.2,1.48-2.03,3.63-3.41,3.89-5.45,1.02-6.5,5.45-8.27,9.42-2.09,4.71-4.11,9.44-6.3,14.1-1.57,3.33-2.79,6.26-.87,10.22,1.91,3.92-.83,8.62-4.81,10.15-4.18,1.6-9.15-.42-10.92-4.44-1.75-3.98-.4-9.52,3.64-10.6,4.92-1.32,6.17-4.88,7.8-8.62,2.45-5.63,4.87-11.28,7.45-16.85,1.15-2.49,1.53-4.5.4-7.4-.9-2.31-.32-6.23,1.21-8.16,1.53-1.94,5.88-3.93,7.55-3.08,4.74,2.41,7.97-.04,11.53-1.83,6.83-3.43,13.59-7,20.31-10.63,1.16-.63,2.02-1.82,3.02-2.75.73-3.86,2.56-7.62,6.56-7.84,6.53-.35,7.06-5.68,10.49-9.38h-176.74c1.13,1.21,1.76,1.91,2.42,2.58,31.38,31.7,62.75,63.41,94.14,95.1,5.92,5.97,9.59,5.95,15.57-.07,29.9-30.12,59.79-60.25,89.66-90.39,2.17-2.19,4.22-4.51,7.04-7.53-6.87,0-12.78,0-18.69,0-8.15,0-15.34,9.74-12.97,17.57Zm-66.27,66.22c-2.84-2.05-4.81-4.51-6.21-4.22-1.8.38-4.08,2.76-4.46,4.62-.59,2.91,1.9,4.79,4.71,4.15,1.83-.42,3.29-2.42,5.97-4.55ZM652.02,5.78c-1.94,3.34-4.04,5.35-3.83,7.07.2,1.6,2.88,2.89,4.46,4.32,1.49-1.7,3.87-3.26,4.16-5.14.21-1.38-2.32-3.18-4.8-6.24Zm-33.12,62.51c2.02-2.94,4.38-4.91,4.07-6.29-.41-1.81-2.91-3.14-4.52-4.68-1.44,1.67-3.78,3.22-4.02,5.05-.18,1.41,2.27,3.17,4.47,5.92Zm-46.13,21.96c.69-.03,1.38-.06,2.07-.09,1.2-1.66,3.58-3.57,3.31-4.94-.36-1.82-2.8-3.23-4.35-4.81-1.48,1.47-4.04,2.85-4.16,4.43-.14,1.71,1.99,3.6,3.13,5.41Z"/><path class="h" d="m398.81,116.92h-44.7c-.65-23.01,20.81-44.58,44.7-44.78v44.78Z"/><path class="f" d="m444.99,102.77c-2.12.77-4.26,1.63-6.45,2.34-11.52,3.74-23.04,7.45-35.08,11.33v-44.07c17.25-1.28,37.7,13.71,41.53,30.4Z"/><path class="j" d="m403.48,165.6v-43.85c14.24,4.62,27.93,9.05,41.58,13.48-4.27,17.21-25.84,32.89-41.58,30.37Z"/><path class="k" d="m446.55,106.17c2.75,8.67,2.65,16.88.07,25.81-12.85-4.17-25.45-8.26-38.05-12.35,0-.35-.01-.7-.02-1.05,12.44-4.06,24.88-8.13,37.99-12.41Z"/><path class="r" d="m121.64,26.03c-2.35-2.86-4.91-4.62-4.87-6.31.04-1.77,2.6-3.48,4.06-5.21,1.78,1.58,4.57,2.92,5.02,4.81.35,1.49-2.17,3.67-4.2,6.71Z"/><path class="aa" d="m58.76,29.31c-1.89-2.54-4.09-4.22-3.93-5.63.17-1.51,2.57-2.76,4-4.12,1.31,1.48,3.38,2.83,3.67,4.48.21,1.21-1.92,2.84-3.74,5.27Z"/><path class="r" d="m78.89,8.5c-1.62-2.18-3.37-3.51-3.34-4.79.03-1.26,1.87-2.47,2.92-3.7,1.26,1.18,3.25,2.21,3.54,3.59.23,1.11-1.6,2.65-3.12,4.9Z"/><path class="ai" d="m106.31,4.7c-1.99,1.57-3.07,2.98-4.39,3.25-.69.14-2.46-1.7-2.51-2.71-.06-1.03,1.38-3.04,2.17-3.04,1.29,0,2.58,1.27,4.73,2.5Z"/><path class="t" d="m89.26,23.43c-2.14,1.38-3.33,2.71-4.55,2.74-.91.03-2.64-1.67-2.59-2.54.05-1.08,1.53-2.92,2.42-2.93,1.23-.02,2.49,1.34,4.73,2.72Z"/><path class="z" d="m46.4,5.8c-2.09,1.37-3.28,2.71-4.55,2.78-.8.05-2.41-1.82-2.38-2.78.03-1.05,1.6-2.93,2.4-2.88,1.27.08,2.45,1.46,4.53,2.88Z"/><path class="o" d="m20.76,26.98c-1.13-1.99-2.41-3.23-2.23-4.18.21-1.07,1.77-2.65,2.68-2.61,1.02.05,2.85,1.77,2.75,2.56-.15,1.23-1.64,2.3-3.2,4.23Z"/><path class="an" d="m609.85,61.68c-1,.93-1.85,2.12-3.02,2.75-6.73,3.63-13.49,7.19-20.31,10.63-3.56,1.79-6.79,4.24-11.53,1.83-1.67-.85-6.02,1.14-7.55,3.08-1.53,1.94-2.11,5.85-1.21,8.16,1.13,2.91.75,4.91-.4,7.4-2.58,5.57-5,11.22-7.45,16.85-1.63,3.74-2.88,7.3-7.8,8.62-4.04,1.08-5.38,6.62-3.64,10.6,1.76,4.02,6.74,6.04,10.92,4.44,3.97-1.53,6.71-6.22,4.81-10.15-1.92-3.95-.69-6.89.87-10.22,2.19-4.66,4.21-9.4,6.3-14.1,1.77-3.98,2.82-8.41,8.27-9.42,1.38-.26,3.21-2.41,3.41-3.89.6-4.4,3.76-5.73,7.06-7.37,7.14-3.55,14.14-7.37,21.28-10.92,1.3-.65,3.15-1.07,4.46-.67,7.48,2.27,10.92.37,13.02-7.59,2.76,0,5.51,0,9.14,0-1.45,1.7-2.22,2.72-3.1,3.61-24.49,24.72-48.99,49.43-73.5,74.13-4.8,4.84-6.04,4.82-10.96-.12-21.26-21.36-42.52-42.72-63.74-64.12-4.05-4.08-7.93-8.33-12.87-13.53h137.55Zm-88.63,28.19c1.82-2.43,3.64-3.82,3.51-4.97-.15-1.27-1.93-2.81-3.33-3.28-.63-.21-2.79,1.83-2.89,2.97-.12,1.28,1.3,2.71,2.71,5.27Zm24.75-4.17c1.62-2.06,3.38-3.36,3.19-4.26-.29-1.39-1.9-2.5-2.95-3.73-1.13,1.02-3.11,1.97-3.18,3.06-.08,1.27,1.49,2.66,2.95,4.94Zm-1.61,14.02c-2.1-1.31-3.33-2.61-4.61-2.67-.78-.04-2.33,1.9-2.28,2.88.06,1.04,1.68,2.86,2.48,2.79,1.26-.12,2.4-1.53,4.41-2.99Zm58.13-14.07c-1.7-1.49-2.95-3.25-3.62-3.04-1.29.38-2.24,1.88-3.34,2.91.96.91,1.85,2.44,2.89,2.55,1.02.11,2.19-1.23,4.07-2.42Zm-102.53-14.8c-1.34,1.68-3,2.92-2.81,3.72.28,1.2,1.87,2.08,2.9,3.1.9-.98,2.44-1.92,2.52-2.96.07-1.01-1.36-2.13-2.61-3.86Z"/><path class="ak" d="m561.07,127.95c-2.68,2.13-4.14,4.13-5.97,4.55-2.8.64-5.3-1.24-4.71-4.15.38-1.86,2.66-4.25,4.46-4.62,1.39-.29,3.37,2.17,6.21,4.22Z"/><path class="y" d="m652.02,5.78c2.48,3.06,5.01,4.86,4.8,6.24-.29,1.88-2.68,3.44-4.16,5.14-1.59-1.43-4.26-2.72-4.46-4.32-.22-1.72,1.89-3.73,3.83-7.07Z"/><path class="d" d="m618.9,68.28c-2.2-2.76-4.65-4.51-4.47-5.92.24-1.83,2.58-3.38,4.02-5.05,1.6,1.54,4.11,2.87,4.52,4.68.31,1.37-2.05,3.35-4.07,6.29Z"/><path class="u" d="m572.77,90.25c-1.14-1.81-3.26-3.7-3.13-5.41.12-1.58,2.68-2.96,4.16-4.43,1.55,1.58,3.98,2.99,4.35,4.81.27,1.37-2.11,3.27-3.31,4.94-.69.03-1.38.06-2.07.09Z"/><path class="m" d="m107.38,88.28c7.66-.04,15.33.18,22.96-.23,4.72-.25,6.22,1.07,6.19,5.98-.21,36.25-.11,72.5-.11,108.75,0,13.47-.14,26.94.08,40.4.06,3.99-1.23,5.23-5.16,5.09-7.98-.29-15.98-.16-23.97-.21,0-53.26,0-106.52,0-159.79Z"/><path class="ah" d="m10.32,248.11c-.26-2.12-.73-4.23-.74-6.35-.1-38.74-.14-77.48-.19-116.22,9.57,0,19.13,0,28.7,0v122.57H10.32Z"/><path class="aj" d="m43.31,146.36h27.69c.11,1.98.29,3.58.29,5.19.02,30.41-.08,60.82.12,91.22.03,4.49-1.31,5.72-5.64,5.5-7.47-.38-14.96-.2-22.45-.25,0-33.89,0-67.77-.01-101.66Z"/><path class="n" d="m92.17,94.69c-.16,3.86-3.84,7.34-7.48,7.1-3.98-.26-7.14-3.7-7-7.63.14-3.78,3.38-6.85,7.2-6.81,3.92.05,7.43,3.59,7.27,7.34Z"/><path class="e" d="m18.39,83.46c.93-4.66,2.49-6.96,6.12-7.15,3.77-.2,5.92,1.94,6.38,5.55.36,2.82-3.25,6.79-5.95,6.03-2.41-.67-4.38-2.89-6.54-4.43Z"/><path class="al" d="m43.31,146.36c0,33.89,0,67.77.01,101.66-.34.02-.67.04-1.01.06.04-33.95.07-67.91.11-101.86.3,0,.6.04.88.15Z"/><path class="ai" d="m94.63,55.34c2.04,2.78,4.04,4.31,4.03,5.84,0,1.31-2.47,3.8-3.55,3.65-1.65-.23-3.93-2.08-4.27-3.62-.28-1.26,1.87-3.06,3.79-5.87Z"/><path class="aa" d="m68.08,77.7c-1.72-2.54-3.68-4.17-3.45-5.4.28-1.54,2.26-3.68,3.68-3.82,1.19-.12,3.68,2.24,3.69,3.53.02,1.52-1.99,3.07-3.92,5.69Z"/><path class="t" d="m36.22,69.08c-1.89-2.93-3.64-4.49-3.68-6.09-.03-1.21,2.43-3.67,3.26-3.47,1.65.4,3.87,2.11,4.12,3.57.23,1.37-1.8,3.11-3.7,6Z"/><path class="t" d="m61.02,93.97c1.68,2.05,3.51,3.31,3.48,4.53-.03,1.27-1.87,2.49-2.91,3.73-1.35-1.14-3.34-2.06-3.81-3.48-.3-.91,1.66-2.56,3.24-4.77Z"/><path class="i" d="m122.05,77.33c-1.76-2.37-3.54-3.71-3.46-4.93.09-1.3,1.93-2.48,3.01-3.71,1.22,1.13,3.18,2.12,3.44,3.43.23,1.16-1.45,2.69-2.99,5.2Z"/><path class="ai" d="m55.34,117.91c-2.13,1.41-3.33,2.75-4.66,2.89-.71.07-2.26-1.94-2.26-3.01,0-.99,1.66-2.83,2.44-2.76,1.28.12,2.45,1.48,4.48,2.88Z"/><path class="x" d="m262.25,149.15c1.57-.27,3.14-.77,4.71-.77,29.28-.05,58.56,0,87.84-.1,3.11-.01,5.14.87,7.19,3.31,7.12,8.46,15.79,14.64,26.96,16.67.06.33.13.67.19,1-.27,1.43-.77,2.86-.77,4.29-.05,23.06-.05,46.12,0,69.18,0,1.43.51,2.86.78,4.28-.03.34-.06.67-.09,1.01-19.96.07-39.92.17-59.87.2-20.46.04-40.92.04-61.38-.04-1.86,0-3.72-.67-5.58-1.04.37-1.72,1.06-3.44,1.06-5.16.07-29.22.07-58.44,0-87.66,0-1.72-.67-3.45-1.03-5.17Zm62.01,43.53c0,3.98,2.34,6.05,5.83,6.22,3.67.18,5.97-2.18,6.11-5.82.15-3.72-2.01-5.85-5.8-5.97-3.83-.12-5.81,1.91-6.14,5.57Zm-44.34,9.55c.74-1.12,3.19-3.26,2.82-4.64-.53-1.97-3.14-3.37-4.86-5.02-1.53,1.66-3.99,3.12-4.38,5.02-.65,3.12,1.77,4.63,6.42,4.65Zm83.57-26.31c.74.03,1.49.06,2.23.09,1.23-1.76,3.43-3.52,3.42-5.27-.01-1.54-2.62-4.4-3.85-4.28-1.79.18-4.38,2.29-4.72,3.97-.32,1.56,1.85,3.63,2.92,5.48Zm-26.24,44.84c-2.71-2.09-4.28-4.23-5.89-4.26-1.33-.02-3.95,2.66-3.77,3.77.28,1.7,2.26,3.84,3.95,4.34,1.11.33,2.98-1.91,5.71-3.86Zm-60.37-50.54c1.7-2.9,3.53-4.67,3.19-5.77-.49-1.62-2.53-2.78-3.91-4.14-1.24,1.33-3.5,2.68-3.47,3.98.03,1.55,2.03,3.05,4.19,5.93Zm36.75-1.66c-2.43-1.57-3.88-3.23-5.15-3.11-1.15.11-2.78,2.09-2.93,3.4-.11.91,1.94,2.92,3,2.9,1.36-.03,2.69-1.59,5.08-3.19Zm-13.03,25.68c-2.24-1.7-3.59-3.48-4.56-3.29-1.37.27-2.46,1.98-3.68,3.07,1.02,1.06,2.01,2.93,3.06,2.97,1.35.05,2.76-1.38,5.17-2.75Zm68.93-1.92c-1.95-1.44-3.05-2.86-4.23-2.93-.92-.05-1.92,1.6-2.89,2.49.98,1.05,1.81,2.63,3,2.98.81.24,2.12-1.24,4.12-2.55Zm-65.51,25.94c1.38-2.14,2.72-3.34,2.75-4.58.02-.8-1.9-2.36-2.87-2.29-.92.06-2.33,1.73-2.43,2.79-.1.99,1.25,2.12,2.55,4.08Z"/><path class="p" d="m262.25,149.15c.36,1.72,1.03,3.45,1.03,5.17.06,29.22.06,58.44,0,87.66,0,1.72-.69,3.44-1.06,5.16-.19-1.29-.56-2.58-.56-3.87-.03-30.09-.03-60.18,0-90.26,0-1.28.38-2.57.59-3.85Z"/><path class="ab" d="m521.22,89.87c-1.41-2.57-2.83-3.99-2.71-5.27.1-1.14,2.26-3.18,2.89-2.97,1.39.46,3.17,2,3.33,3.28.14,1.15-1.69,2.53-3.51,4.97Z"/><path class="ad" d="m545.97,85.71c-1.46-2.28-3.03-3.66-2.95-4.94.07-1.08,2.05-2.04,3.18-3.06,1.05,1.23,2.67,2.35,2.95,3.73.19.9-1.57,2.2-3.19,4.26Z"/><path class="s" d="m544.36,99.73c-2.02,1.46-3.16,2.88-4.41,2.99-.8.07-2.42-1.75-2.48-2.79-.05-.98,1.5-2.91,2.28-2.88,1.28.06,2.51,1.36,4.61,2.67Z"/><path class="ab" d="m602.5,85.65c-1.88,1.19-3.05,2.53-4.07,2.42-1.04-.11-1.93-1.64-2.89-2.55,1.09-1.03,2.05-2.53,3.34-2.91.67-.2,1.93,1.56,3.62,3.04Z"/><path class="ag" d="m499.97,70.85c1.24,1.73,2.68,2.84,2.61,3.86-.08,1.04-1.62,1.98-2.52,2.96-1.03-1.02-2.61-1.91-2.9-3.1-.19-.8,1.47-2.04,2.81-3.72Z"/><path class="q" d="m76.32,112.33h27.07v135.65c-9.21,0-18.14,0-27.07,0,0-45.22,0-90.44,0-135.65Z"/><path class="v" d="m76.32,112.33c0,45.22,0,90.44,0,135.65-.42-1.44-1.2-2.89-1.2-4.33-.07-42.33-.07-84.66,0-126.99,0-1.44.78-2.89,1.2-4.33Z"/><path class="ac" d="m324.26,192.68c.33-3.66,2.31-5.69,6.14-5.57,3.79.12,5.95,2.25,5.8,5.97-.14,3.64-2.44,6-6.11,5.82-3.49-.17-5.82-2.23-5.83-6.22Z"/><path class="ae" d="m389.13,169.25c.14,5.14.38,10.28.39,15.42.05,18.96.03,37.93,0,56.89,0,1.81-.25,3.63-.38,5.44-.27-1.43-.78-2.86-.78-4.28-.05-23.06-.05-46.12,0-69.18,0-1.43.5-2.86.77-4.29Z"/><path class="am" d="m279.92,202.23c-4.66-.02-7.07-1.53-6.42-4.65.39-1.89,2.85-3.36,4.38-5.02,1.72,1.65,4.33,3.05,4.86,5.02.37,1.38-2.08,3.53-2.82,4.64Z"/><path class="am" d="m363.49,175.92c-1.07-1.85-3.25-3.92-2.92-5.48.35-1.68,2.94-3.79,4.72-3.97,1.22-.12,3.84,2.73,3.85,4.28.01,1.75-2.18,3.51-3.42,5.27-.74-.03-1.49-.06-2.23-.09Z"/><path class="g" d="m337.25,220.76c-2.73,1.95-4.6,4.19-5.71,3.86-1.69-.5-3.67-2.64-3.95-4.34-.18-1.12,2.44-3.8,3.77-3.77,1.61.03,3.18,2.17,5.89,4.26Z"/><path class="l" d="m276.88,170.22c-2.17-2.88-4.16-4.38-4.19-5.93-.03-1.3,2.23-2.65,3.47-3.98,1.38,1.36,3.42,2.51,3.91,4.14.34,1.1-1.49,2.87-3.19,5.77Z"/><path class="af" d="m313.63,168.57c-2.39,1.6-3.72,3.17-5.08,3.19-1.06.02-3.1-1.99-3-2.9.15-1.31,1.78-3.29,2.93-3.4,1.27-.13,2.72,1.54,5.15,3.11Z"/><path class="l" d="m300.6,194.24c-2.41,1.38-3.82,2.81-5.17,2.75-1.06-.04-2.05-1.91-3.06-2.97,1.21-1.09,2.3-2.8,3.68-3.07.97-.19,2.32,1.59,4.56,3.29Z"/><path class="af" d="m369.52,192.33c-2,1.31-3.32,2.79-4.12,2.55-1.19-.35-2.02-1.93-3-2.98.97-.89,1.97-2.54,2.89-2.49,1.18.06,2.28,1.49,4.23,2.93Z"/><path class="l" d="m304.01,218.27c-1.3-1.96-2.64-3.09-2.55-4.08.1-1.06,1.5-2.73,2.43-2.79.97-.06,2.9,1.49,2.87,2.29-.04,1.24-1.38,2.45-2.75,4.58Z"/></g></svg>