<?xml version="1.0" encoding="UTF-8"?><svg id="a" xmlns="http://www.w3.org/2000/svg" width="600" height="300" xmlns:xlink="http://www.w3.org/1999/xlink" viewBox="0 0 600 300"><defs><style>.d{fill:#50485a;}.d,.e,.f,.g,.h,.i,.j,.k,.l,.m,.n,.o,.p,.q,.r,.s,.t,.u,.v,.w,.x,.y,.z,.aa,.ab,.ac,.ad,.ae,.af,.ag,.ah,.ai,.aj,.ak,.al,.am,.an,.ao,.ap,.aq,.ar,.as,.at,.au,.av,.aw,.ax,.ay,.az,.ba,.bb,.bc,.bd,.be,.bf,.bg,.bh,.bi,.bj,.bk,.bl,.bm,.bn,.bo,.bp,.bq,.br,.bs{stroke-width:0px;}.e{fill:#6c6375;}.f{fill:#463f50;}.g{fill:#605769;}.h{fill:#150035;}.i{fill:#413a4b;}.j{fill:#4e4658;}.k{fill:#534b5d;}.l{fill:#433c4d;}.m{fill:#393243;}.n{fill:#61586a;}.o{fill:#3b3445;}.p{fill:#423b4c;}.q{fill:#595163;}.r{fill:#544c5e;}.s{fill:#685f71;}.t{fill:#756b7e;}.u{fill:#40394a;}.v{fill:#4b4455;}.w{fill:#645b6d;}.x{fill:#6e6577;}.y{fill:#6a6173;}.z{fill:#746a7d;}.aa{fill:#776d80;}.ab{fill:#3f3849;}.ac{fill:#72687b;}.ad{fill:#443d4e;}.ae{fill:none;}.bt{clip-path:url(#b);}.af{fill:#6d6476;}.ag{fill:#675e70;}.ah{fill:#696072;}.ai{fill:#524a5c;}.aj{fill:#6b6274;}.ak{fill:#453e4f;}.al{fill:#574f61;}.am{fill:#554d5f;}.an{fill:#4d4557;}.ao{fill:#71677a;}.ap{fill:#4c4456;}.aq{fill:#5e5567;}.ar{fill:#4f4759;}.as{fill:#766c7f;}.at{fill:#3d3647;}.au{fill:#5c5466;}.av{fill:#706779;}.aw{fill:#474051;}.ax{fill:#655c6e;}.ay{fill:#73697c;}.az{fill:#635a6c;}.ba{fill:#51495b;}.bb{fill:#786e81;}.bu{clip-path:url(#c);}.bc{fill:#5f5668;}.bd{fill:#5a5264;}.be{fill:#62596b;}.bf{fill:#3e3748;}.bg{fill:#6f6678;}.bh{fill:#665d6f;}.bi{fill:#932ec8;}.bj{fill:#4a4354;}.bk{fill:#fff;}.bl{fill:#796f82;}.bm{fill:#494253;}.bn{fill:#564e60;}.bo{fill:#3a3344;}.bp{fill:#3c3546;}.bq{fill:#5b5365;}.br{fill:#585062;}.bs{fill:#484152;}</style><clipPath id="b"><path class="ae" d="M483.24,349.28l-20.07-11.59,30.84-17.78c7.99-4.61,7.98-16.14-.02-20.74l-152.72-87.64-237.1,136.7c-7.99,4.61-7.98,16.14.02,20.74l135.99,78.04c10.36,5.94,23.1,5.93,33.44-.03l90.47-52.16c5.28-3.05,11.79-3.04,17.07,0l8.88,5.12c5.28,3.05,11.79,3.05,17.07,0l15.38-8.88c5.28-3.05,11.79-3.05,17.07,0h0c5.28,3.05,11.79,3.05,17.07,0l32.05-18.51c2.58-1.49,2.58-5.22,0-6.71l-5.45-3.14c-2.58-1.49-2.58-5.22,0-6.71h0c2.58-1.49,2.58-5.22,0-6.71Z"/></clipPath><clipPath id="c"><path class="ae" d="M188.47,124.25s.07.03.07.03c0,0-.05-.02-.07-.03Z"/></clipPath></defs><g class="bt"><rect class="h" x="-61.52" y="319.61" width="817.39" height="3.33" transform="translate(-114.07 216.38) rotate(-29.97)"/><rect class="h" x="-52.46" y="324.44" width="817.39" height="3.33" transform="translate(-115.27 221.56) rotate(-29.97)"/><rect class="h" x="-44.23" y="329.59" width="817.39" height="3.33" transform="translate(-116.74 226.36) rotate(-29.97)"/><rect class="h" x="-34.99" y="334.32" width="817.39" height="3.33" transform="translate(-117.86 231.54) rotate(-29.96)"/><rect class="h" x="-27.36" y="339.63" width="817.4" height="3.33" transform="translate(-119.5 236.09) rotate(-29.96)"/><rect class="h" x="-18.3" y="344.46" width="817.39" height="3.33" transform="translate(-120.7 241.26) rotate(-29.96)"/><rect class="h" x="-10.07" y="349.62" width="817.4" height="3.33" transform="translate(-122.17 246.06) rotate(-29.96)"/><rect class="h" x="-.83" y="354.35" width="817.4" height="3.33" transform="translate(-123.31 251.35) rotate(-29.97)"/><rect class="h" x="7.39" y="359.5" width="817.39" height="3.33" transform="translate(-124.78 256.14) rotate(-29.97)"/><rect class="h" x="16.61" y="364.31" width="817.39" height="3.33" transform="translate(-125.95 261.39) rotate(-29.97)"/><rect class="h" x="24.83" y="369.47" width="817.4" height="3.33" transform="translate(-127.43 266.19) rotate(-29.97)"/><rect class="h" x="34.07" y="374.2" width="817.4" height="3.33" transform="translate(-128.55 271.39) rotate(-29.96)"/><rect class="h" x="41.7" y="379.51" width="817.39" height="3.33" transform="translate(-130.19 275.96) rotate(-29.97)"/><rect class="h" x="50.77" y="384.34" width="817.39" height="3.33" transform="translate(-131.38 281.05) rotate(-29.96)"/><rect class="h" x="58.99" y="389.49" width="817.4" height="3.33" transform="translate(-132.85 285.85) rotate(-29.96)"/><rect class="h" x="68.23" y="394.22" width="817.4" height="3.33" transform="translate(-133.99 291.18) rotate(-29.97)"/><rect class="h" x="76.46" y="399.37" width="817.4" height="3.33" transform="translate(-135.46 295.98) rotate(-29.97)"/><rect class="h" x="-182.69" y="250.11" width="817.4" height="3.33" transform="translate(-95.53 146.5) rotate(-29.96)"/><rect class="h" x="-173.45" y="254.84" width="817.39" height="3.33" transform="translate(-96.68 151.81) rotate(-29.97)"/><rect class="h" x="-165.82" y="260.15" width="817.4" height="3.33" transform="translate(-98.3 156.3) rotate(-29.96)"/><rect class="h" x="-156.76" y="264.98" width="817.39" height="3.33" transform="translate(-99.5 161.48) rotate(-29.96)"/><rect class="h" x="-148.53" y="270.13" width="817.39" height="3.33" transform="translate(-100.98 166.27) rotate(-29.96)"/><rect class="h" x="-139.29" y="274.86" width="817.39" height="3.33" transform="translate(-102.11 171.55) rotate(-29.97)"/><rect class="h" x="-131.07" y="280.01" width="817.39" height="3.33" transform="translate(-103.59 176.35) rotate(-29.97)"/><rect class="h" x="-121.85" y="284.83" width="817.39" height="3.33" transform="translate(-104.76 181.6) rotate(-29.97)"/><rect class="h" x="-113.63" y="289.98" width="817.39" height="3.33" transform="translate(-106.23 186.39) rotate(-29.97)"/><rect class="h" x="-104.38" y="294.71" width="817.39" height="3.33" transform="translate(-107.34 191.55) rotate(-29.96)"/><rect class="h" x="-96.76" y="300.02" width="817.39" height="3.33" transform="translate(-109 196.16) rotate(-29.97)"/><rect class="h" x="-87.69" y="304.85" width="817.4" height="3.33" transform="translate(-110.2 201.34) rotate(-29.97)"/><rect class="h" x="-79.47" y="310" width="817.4" height="3.33" transform="translate(-111.67 206.13) rotate(-29.97)"/><rect class="h" x="-70.23" y="314.74" width="817.39" height="3.33" transform="translate(-112.8 211.39) rotate(-29.97)"/><rect class="h" x="-62" y="319.89" width="817.39" height="3.33" transform="translate(-114.27 216.18) rotate(-29.97)"/></g><path class="bi" d="M482.32,273.14c0-.12,0-.23,0-.35v-32.88l-36.96.83-85.45-49.53c-14.94-8.62-33.34-8.63-48.28-.01l-145.1,85.16-62.2,11.62v33.59c-.58,6.86,2.51,14,9.32,17.93l113,65.43c14.94,8.62,33.34,8.63,48.28.01l197.98-115.65c6.14-3.54,9.26-9.68,9.4-15.87h.02v-.27Z"/><path class="h" d="M250.79,413.52c-8.72,0-17.44-2.25-25.22-6.74l-113-65.43c-7.1-4.1-11.08-11.76-10.39-19.98v-35.2s63.59-11.88,63.59-11.88l144.78-84.97c15.57-8.98,34.9-8.97,50.45,0l84.93,49.22,38.56-.87v37.86h-.17c-.8,6.53-4.55,12.26-10.33,15.59l-197.97,115.64c-7.78,4.49-16.5,6.73-25.22,6.73ZM106.48,289.76v31.79c-.56,6.72,2.6,12.8,8.24,16.06l113,65.43c14.21,8.21,31.89,8.21,46.12.01l197.97-115.64c5.08-2.93,8.19-8.19,8.33-14.06v-.62s.01-30.62.01-30.62l-35.36.8-.52-.3-85.45-49.53c-14.22-8.21-31.89-8.21-46.12,0l-145.42,85.34-60.81,11.36Z"/><path class="bk" d="M113.64,305.97l113,65.43c14.94,8.62,33.34,8.63,48.28.01l197.98-115.65c12.57-7.25,12.57-25.38,0-32.64l-113-65.43c-14.94-8.62-33.34-8.63-48.28-.01l-197.98,115.65c-12.57,7.25-12.57,25.39,0,32.64Z"/><path class="h" d="M250.79,380c-8.72,0-17.45-2.25-25.23-6.74l-113-65.43h0c-6.58-3.79-10.5-10.59-10.5-18.19,0-7.59,3.93-14.39,10.51-18.19l197.97-115.64c15.57-8.98,34.9-8.97,50.45,0l113,65.43c6.57,3.79,10.5,10.6,10.5,18.19,0,7.59-3.93,14.39-10.51,18.18l-197.97,115.64c-7.78,4.49-16.5,6.73-25.22,6.73ZM335.76,153.4c-7.97,0-15.94,2.05-23.05,6.15l-197.97,115.64c-5.24,3.02-8.36,8.42-8.36,14.46,0,6.03,3.12,11.44,8.34,14.45h0s113,65.43,113,65.43c14.22,8.2,31.89,8.21,46.12,0l197.97-115.64c5.24-3.02,8.36-8.42,8.36-14.45,0-6.03-3.12-11.44-8.34-14.45l-113-65.43c-7.11-4.11-15.09-6.16-23.07-6.16Z"/><rect class="h" x="464.94" y="258.62" width="4.31" height="34.84"/><polygon class="h" points="279.01 369.02 279.01 402.54 458.5 297.71 458.5 264.18 279.01 369.02"/><path class="h" d="M360.49,256.8l-3.07-5.13c3.63-2.17,5.88-6.15,5.88-10.38v-95.4s5.97,0,5.97,0v95.4c0,6.32-3.36,12.26-8.78,15.51Z"/><path class="h" d="M212.59,223.35l-3.02-5.16,45.97-26.92c3.6-2.16,5.86-6.13,5.85-10.36v-95.4s5.97,0,5.97,0v95.4c.01,6.32-3.36,12.26-8.78,15.51l-46,26.94Z"/><path class="bi" d="M375.39,187.69s0-6.07,0-7.24c0-.12-.08-.22-.2-.25l-18.05-5.03s-.04-.02-.06-.03l-44.38-25.81c-.08-.05-.19-.05-.27,0l-15.52,8.97c-.06.04-.14.05-.21.03l-5.62-1.56c-.17-.05-.34.07-.34.25,0,1.44.02,6.79.03,6.95v.05c.1.94.6,1.85,1.53,2.39l57.2,33.26c2.52,1.47,5.63,1.47,8.16.01l16.17-9.35c1.01-.58,1.52-1.58,1.56-2.6v-.05Z"/><path class="h" d="M353.58,202.07c-1.64,0-3.28-.43-4.74-1.27l-57.2-33.26c-1.22-.71-2.01-1.94-2.16-3.38-.03-.29-.04-4.59-.05-7.13,0-.5.23-.95.62-1.25.39-.3.9-.39,1.37-.26l5.2,1.45,15.15-8.76c.49-.28,1.09-.28,1.57,0l44.27,25.74,17.93,4.99c.69.19,1.15.8,1.15,1.5l-.02,7.48c-.05,1.4-.87,2.77-2.19,3.53l-16.17,9.35c-1.46.84-3.09,1.26-4.72,1.26ZM292.03,158.38c0,2.05.02,5.24.03,5.53.04.33.2.99.89,1.39l57.2,33.26c2.11,1.23,4.74,1.23,6.86,0l16.17-9.35c.55-.32.89-.88.91-1.53h0v-6.45l-17.64-4.96-43.9-25.53-15.01,8.67c-.36.21-.8.26-1.2.15l-4.31-1.2Z"/><path class="h" d="M375.19,180.21l-18.05-5.03s-.04-.02-.06-.03l-3.73-2.17v27.79c1.49.04,2.98-.31,4.31-1.08l16.17-9.35c1.01-.58,1.52-1.58,1.56-2.6v-.05s0-6.07,0-7.24c0-.12-.08-.22-.2-.25Z"/><path class="h" d="M353.59,202.07c-.1,0-.19,0-.29,0l-1.26-.04v-31.3l5.57,3.24,17.93,4.99c.68.19,1.15.8,1.15,1.5l-.02,7.48c-.05,1.4-.87,2.77-2.19,3.53l-16.17,9.35c-1.42.82-3.05,1.25-4.71,1.25ZM354.64,175.23v24.17c.84-.13,1.64-.41,2.37-.83l16.17-9.35c.55-.32.89-.88.91-1.53v-6.45s-17.64-4.96-17.64-4.96l-1.82-1.06Z"/><path class="bk" d="M349.63,192.54l-57.34-33.34c-2.09-1.22-2.09-4.24,0-5.45l16.31-9.42c2.44-1.41,5.45-1.41,7.89.01l57.34,33.34c2.09,1.22,2.09,4.24,0,5.45l-16.31,9.42c-2.44,1.41-5.45,1.41-7.89-.01Z"/><path class="h" d="M353.58,194.9c-1.59,0-3.18-.41-4.6-1.24l-57.34-33.34c-1.39-.81-2.21-2.25-2.21-3.85,0-1.61.83-3.04,2.22-3.85l16.31-9.43c2.84-1.64,6.36-1.63,9.19.01l57.34,33.34c1.39.81,2.21,2.25,2.21,3.85,0,1.6-.83,3.04-2.22,3.84l-16.31,9.43c-1.41.82-3,1.23-4.58,1.23ZM350.28,191.42c2.03,1.18,4.55,1.18,6.59,0l16.31-9.43c.58-.33.93-.94.93-1.6,0-.67-.34-1.27-.92-1.61l-57.34-33.34c-2.03-1.18-4.55-1.19-6.59,0l-16.31,9.42c-.58.33-.93.94-.93,1.61,0,.67.34,1.27.92,1.61l57.34,33.34Z"/><path class="bi" d="M384.6,132.06l-9.48-.02-99.51-57.45-69.16,57.03h-5.31s.46,7.4.46,7.4h.02c.11,2.08,1.19,4.09,3.2,5.25l100.63,58.1c2.92,1.68,6.57,1.38,9.17-.76l68.58-56.56c1.26-1.04,1.87-2.5,1.91-3.96l-.48-8.98s-.02-.05-.05-.05Z"/><path class="h" d="M309.49,204.74c-1.61,0-3.23-.41-4.67-1.25l-100.63-58.1c-2.04-1.18-3.41-3.21-3.77-5.53l-.04-.02-.06-.75-.55-8.79,6.22.02,69.49-57.31,99.99,57.73,10.33.06.14,1.21.48,9c-.06,2.07-.9,3.82-2.38,5.03l-68.58,56.56c-1.71,1.41-3.83,2.13-5.97,2.13ZM202.86,138.19h0s.06.76.06.76c.1,1.79,1.03,3.32,2.56,4.2l100.63,58.1c2.44,1.41,5.53,1.15,7.7-.64l68.59-56.56c.89-.74,1.4-1.8,1.44-3l-.41-7.69-8.64-.02-.3-.17-98.73-57-68.82,56.76h-4.39s.33,5.28.33,5.28Z"/><path class="h" d="M314.64,201.63l68.58-56.56c1.26-1.04,1.87-2.5,1.91-3.96l-.48-8.98s-.02-.05-.05-.05l-9.48-.02-4.95-2.86-50.74,33.9-9.83,20.2v20.15c1.8-.02,3.58-.63,5.03-1.82Z"/><path class="h" d="M308.31,204.76v-21.76l10.11-20.79,51.7-34.54,5.35,3.09,10.33.03.14,1.24.48,9c-.06,2.07-.9,3.82-2.38,5.03l-68.58,56.56c-1.62,1.34-3.69,2.09-5.83,2.12l-1.31.02ZM310.9,183.6v18.41c1.07-.22,2.07-.69,2.91-1.38h0l68.58-56.56c.89-.74,1.4-1.8,1.44-3l-.41-7.69-8.64-.02-4.55-2.63-49.78,33.26-9.55,19.62Z"/><path class="h" d="M205.21,143.8l-.06-8.65,2.6-1.97-.19-2.45-.91.75h-5.31s.46,7.4.46,7.4h.02c.11,2.08,1.19,4.09,3.2,5.25l.19-.34h0Z"/><path class="h" d="M205.51,145.92l-1.14-.66c-2.04-1.18-3.41-3.21-3.77-5.53l-.04-.02-.06-.75-.55-8.79,6.22.02,2.47-2.04.45,5.63-2.65,2,.06,8.34-1,1.79ZM203.05,138.06h0s.06.76.06.76c.05.92.33,1.78.79,2.51l-.05-6.82,2.29-1.73h-3.42s.33,5.28.33,5.28Z"/><path class="bi" d="M305.01,194.3l-100.63-58.1c-3.91-2.26-4.36-7.72-.88-10.59l67.75-55.87c2.36-1.94,5.67-2.22,8.32-.69l102.47,59.16c3.23,1.87,3.61,6.38.73,8.76l-68.58,56.56c-2.6,2.14-6.25,2.45-9.17.76Z"/><path class="h" d="M309.04,196.67c-1.61,0-3.23-.41-4.67-1.25l-100.63-58.1c-2.2-1.27-3.64-3.54-3.85-6.08-.21-2.53.83-5.01,2.79-6.63l67.75-55.87c2.76-2.28,6.69-2.6,9.79-.81l102.47,59.16c1.88,1.09,3.12,3.03,3.3,5.2.18,2.17-.71,4.29-2.39,5.68l-68.59,56.56c-1.71,1.41-3.83,2.13-5.97,2.13ZM275.92,69.37c-1.37,0-2.74.47-3.84,1.37l-67.75,55.87c-1.32,1.09-2,2.7-1.86,4.42.14,1.71,1.08,3.19,2.57,4.05l100.63,58.1c2.44,1.41,5.53,1.15,7.7-.64l68.59-56.56c1.04-.86,1.57-2.12,1.46-3.46-.11-1.34-.85-2.5-2.01-3.17l-102.47-59.16c-.93-.54-1.97-.8-3.01-.8Z"/><path class="bk" d="M306.3,187.56l-95.93-55.7c-.86-.5-.96-1.7-.19-2.33l64.65-53.68c.92-.76,2.21-.87,3.24-.28l96.71,55.76c.75.43.84,1.48.17,2.04l-64.86,53.87c-1.07.89-2.59,1.02-3.79.32Z"/><path class="h" d="M307.96,189.3c-.8,0-1.6-.2-2.32-.62h0s-95.93-55.7-95.93-55.7c-.77-.44-1.27-1.24-1.35-2.12-.07-.89.29-1.75.97-2.32l64.65-53.68c1.33-1.1,3.22-1.26,4.72-.4l96.71,55.76c.72.41,1.19,1.16,1.26,1.99.07.83-.27,1.64-.91,2.17l-64.86,53.87c-.84.7-1.9,1.06-2.95,1.06ZM306.95,186.44c.73.43,1.66.35,2.32-.19l64.86-53.87-96.7-55.68c-.56-.32-1.27-.26-1.77.15l-64.65,53.68.02.21,95.93,55.7Z"/><path class="bi" d="M239.88,131.05l57.72,33.06s.02,0,.02,0l32.24-26.78s0-.03,0-.03l-57.4-33.32s-.02,0-.02,0l-32.56,27.04s0,.03,0,.03Z"/><path class="h" d="M297.7,165.72l-.83-.53-58.22-33.35-.14-1.33.5-.46,33.34-27.69.83.53,57.92,33.62.11,1.38-.54.44-32.97,27.38ZM242.12,130.84l55.36,31.71,30.15-25.05-55.05-31.96-30.46,25.3Z"/><path class="bk" d="M272.46,103.98l57.4,33.32s.03,0,.03-.02l2.76-45.41s0-.01,0-.02l-57.4-33.32s-.03,0-.03.02l-2.76,45.41s0,.01,0,.02Z"/><path class="h" d="M329.82,138.77l-.62-.35-58.25-33.88.21-.78,2.79-45.97,1.26-.74.67.37,58.05,33.7v.76s-2.8,46.24-2.8,46.24l-1.31.65ZM273.79,103.26l54.93,31.89,2.58-42.56-54.93-31.88-2.58,42.56Z"/><polygon class="h" points="278.21 100.58 325.15 127.67 326.88 95.16 279.94 68.07 278.21 100.58"/><rect class="h" x="295.01" y="97.96" width="2.59" height="54.67" transform="translate(39.19 318.65) rotate(-59.87)"/><rect class="h" x="272.92" y="116.23" width="2.59" height="54.67" transform="translate(12.39 308.64) rotate(-59.87)"/><polygon class="bi" points="303.08 101.95 299.02 97.15 285.15 100.19 284.59 97.67 299.99 94.28 304.13 99.18 320.58 96.86 320.94 99.42 303.08 101.95"/><path class="bi" d="M235.12,281.73l9.13,2.24,9.97-3.79-1.31-2.38-3.2-1.07s-4.16-.68-4.78-2.84c-.63-2.16-6.63,0-6.63,0l-4.12,3.53.94,4.31Z"/><path class="h" d="M244.34,285.32l-10.31-2.53-1.27-5.86,5.12-4.27c1.14-.41,5.02-1.67,7.05-.64.64.32,1.07.84,1.26,1.49.26.89,2.34,1.69,3.75,1.92l.2.05,3.69,1.23,2.26,4.13-11.73,4.46ZM236.22,280.66l7.96,1.95,8.2-3.12-.35-.63-2.63-.88c-.85-.15-4.92-1.02-5.71-3.74-.43-.24-2.7.09-4.73.78l-3.35,2.87.6,2.76Z"/><path class="bk" d="M203.11,229.55s18.54-6.04,23.54-10.56c0,0-3.24,6.68.72,17.71,3.1,8.66,4.55,29.05,5.53,36.38.25,1.88,1.67,3.31,3.39,3.41l1.63.22c2.04.13,6.12-1.62,6.19-3.88.42-14.93,1.58-65.69-1.87-70.26-4.05-5.36-17.4-10.72-24.07-9.52-6.67,1.2-26.47,4.31-26.47,4.31l11.41,32.19Z"/><path class="h" d="M238.14,278.02c-.1,0-.2,0-.3,0l-1.72-.23c-2.24-.14-4.17-2.04-4.5-4.52-.24-1.76-.5-4.28-.81-7.21-.94-8.95-2.35-22.47-4.66-28.91-2.39-6.67-2.26-11.83-1.71-15.03-7.1,4.14-20.27,8.46-20.92,8.67l-1.2.39-12.36-34.84,1.54-.24c.2-.03,19.86-3.12,26.44-4.3,7.03-1.26,20.99,4.26,25.34,10.01,3.46,4.58,2.82,46.5,2.13,71.08-.03,1.01-.53,1.99-1.46,2.83-1.46,1.33-3.94,2.31-5.8,2.31ZM230.72,213.58l-2.9,5.98c-.03.06-2.92,6.39.77,16.71,2.41,6.73,3.79,19.9,4.8,29.52.3,2.9.56,5.39.8,7.13.17,1.26,1.09,2.22,2.19,2.29l1.72.23c.95.09,3-.62,4.1-1.63.39-.36.62-.71.62-.99,1.11-39.43.47-66.69-1.61-69.44-3.83-5.07-16.63-10.13-22.81-9.03-5.52.99-20.17,3.31-24.96,4.07l10.47,29.52c4.15-1.41,17.85-6.25,21.88-9.89l4.93-4.46Z"/><path class="h" d="M255.92,277.98c-1.23-2.04-3.98-1.84-6.2-1.25.14.09.29.18.42.29,1.18.95.09,2.41-2.04,3.51-4.2,2.18-9.04,1.55-11.36-2l-.26-.74-.03-.69h0c-.74-.85-1.86-1.95-2.72-2.79-.78-.75-2-.48-2.43.55-.69,1.67-1.17,4.64.4,9.36l.77,7.18c.05.47.28.9.63,1.18.05.09.16.14.3.17.44.21,1.48.07,1.88-.15.84-.14,1.55-.33,2.4-.61.39-.13.65-.55.63-1l-.19-3.36c-.03-.52.46-.87.88-.65l1.04.68c.96.62,2.03.99,3.14,1.07h0c1.2.09,2.39-.14,3.48-.69,5.18-2.6,11.49-6.4,9.26-10.09Z"/><path class="h" d="M234.03,293.87c-.39,0-.77-.06-1.07-.2,0,.01-.31-.07-.59-.38-.5-.44-.82-1.08-.9-1.77l-.75-7.08c-1.64-4.97-1.09-8.15-.35-9.95.33-.8,1.01-1.37,1.82-1.54.79-.17,1.62.08,2.22.65.83.8,1.99,1.94,2.78,2.84l.23.26.05.9.17.48c1.97,2.9,6.15,3.56,10,1.56,1.58-.82,2.02-1.57,1.99-1.73-.19-.19-.28-.24-.37-.3l-1.9-1.22,2.11-.63c4.48-1.18,6.45.27,7.31,1.7.62,1.02.76,2.1.44,3.23-.74,2.58-3.86,5.13-10.11,8.27-1.25.63-2.63.9-4.01.79-1.26-.1-2.51-.52-3.6-1.23l-.35-.23.15,2.66c.05.91-.49,1.73-1.31,2-.9.3-1.61.48-2.42.62-.39.17-.98.29-1.54.29ZM233.73,291.82c.36.08.89,0,1.06-.08l.31-.11c.76-.13,1.41-.29,2.26-.57l-.24-3.36c-.03-.62.26-1.2.77-1.52.48-.31,1.07-.33,1.58-.06l1.11.72c.81.53,1.74.84,2.68.91,1.03.08,2.04-.12,2.96-.58,5.48-2.75,8.53-5.12,9.09-7.04.17-.58.1-1.1-.23-1.64h0c-.67-1.11-2.1-1.29-3.52-1.12.06.24.09.49.06.74-.15,1.57-1.98,2.74-3.05,3.29-4.82,2.5-10.14,1.51-12.65-2.34l-.11-.22-.33-1.37c-.67-.73-1.69-1.73-2.44-2.45-.16-.16-.32-.16-.43-.14-.1.02-.28.09-.39.36-.62,1.5-1.05,4.22.43,8.66l.05.21.76,7.18c.02.21.12.39.26.51h.02Z"/><rect class="bi" x="237.39" y="281.73" width="1.99" height="4.26" transform="translate(-36.07 34.71) rotate(-7.74)"/><path class="h" d="M195.55,324.83l-3.09-5.12,33.67-20.29c4.13-2.48,6.34-7.15,5.65-11.91l-4.85-33.17,5.92-.87,4.85,33.17c1.04,7.15-2.28,14.18-8.48,17.9l-33.67,20.29Z"/><path class="h" d="M147.4,296.04l-3.09-5.12,34.89-21.03c3.69-2.22,5.99-6.1,6.15-10.4l1.21-32.1,5.97.23-1.21,32.1c-.24,6.32-3.62,12.04-9.04,15.3l-34.89,21.02Z"/><path class="bi" d="M248.78,242.78s0-5.43,0-6.48c0-.11-.07-.2-.18-.22l-16.16-4.5s-.04-.01-.06-.02l-39.73-23.1c-.08-.04-.17-.04-.24,0l-38.17,21.74c-.06.03-.12.04-.19.02l-5.03-1.4c-.16-.04-.31.07-.31.23,0,1.28.02,6.08.03,6.22v.04c.09.84.53,1.66,1.37,2.14l51.2,29.77c2.26,1.31,5.04,1.32,7.3,0l38.75-22.08c.9-.52,1.36-1.42,1.4-2.33v-.05Z"/><path class="h" d="M204.99,269.5c-1.49,0-2.98-.39-4.31-1.16l-51.2-29.77c-1.13-.66-1.86-1.8-2-3.13-.01-.14-.03-.28-.04-6.4,0-.49.22-.93.6-1.22.38-.29.89-.39,1.34-.26l4.61,1.29,37.79-21.52c.46-.27,1.05-.27,1.53,0l39.62,23.04,16.03,4.46c.67.19,1.12.78,1.12,1.47l-.02,6.69c-.05,1.31-.81,2.58-2.03,3.29l-38.76,22.08c-1.32.76-2.8,1.14-4.28,1.14ZM150.02,230.43c0,1.83.02,4.51.03,4.77.03.26.17.8.73,1.13l51.2,29.77c1.85,1.08,4.15,1.08,6,0l38.76-22.08c.64-.37.73-1,.74-1.25h0v-5.67l-15.68-4.4-39.27-22.84-38.11,21.7-.7-.12-3.7-1.03Z"/><path class="h" d="M152.93,229.89l-3.9-1.09c-.15-.04-.31.07-.31.23,0,1.28.02,6.08.03,6.22v.04c.09.84.53,1.66,1.37,2.14l2.81,1.63v-9.18Z"/><path class="h" d="M154.23,241.33l-4.76-2.77c-1.13-.66-1.86-1.8-2-3.12-.02-.16-.02-.25-.04-6.16v-.24c0-.49.22-.93.6-1.22.38-.29.89-.38,1.34-.26l4.86,1.35v12.42ZM150.02,230.43c0,1.82.02,4.49.03,4.76.03.27.17.81.73,1.13l.86.5v-5.95l-1.61-.45Z"/><path class="h" d="M248.6,236.08l-16.16-4.5s-.04-.01-.06-.02l-27.62,20.19v16.45c1.33.04,2.67-.27,3.86-.96l38.75-22.08c.9-.52,1.36-1.42,1.4-2.33v-.05s0-5.43,0-6.48c0-.11-.07-.2-.18-.22Z"/><path class="h" d="M204.99,269.5c-.09,0-.18,0-.26,0l-1.26-.04v-18.36l28.81-21.07.62.34,16.04,4.47c.67.19,1.13.78,1.13,1.47l-.02,6.69c-.05,1.31-.81,2.58-2.03,3.29l-38.76,22.08c-1.29.74-2.76,1.14-4.28,1.14ZM206.07,252.41v14.4c.68-.12,1.32-.36,1.92-.7l38.76-22.08c.64-.37.73-1,.74-1.25v-5.67s-14.85-4.14-14.85-4.14l-26.57,19.43Z"/><path class="bk" d="M201.45,260.83l-51.32-29.84c-1.87-1.09-1.87-3.8,0-4.88l38.87-22.15c2.18-1.26,4.88-1.26,7.06,0l51.32,29.84c1.87,1.09,1.87,3.8,0,4.88l-38.87,22.15c-2.18,1.26-4.88,1.26-7.06,0Z"/><path class="h" d="M204.99,263.07c-1.45,0-2.9-.37-4.19-1.13h0l-51.32-29.84c-1.28-.75-2.05-2.08-2.05-3.56,0-1.49.77-2.82,2.06-3.56l38.88-22.15c2.57-1.49,5.77-1.48,8.35.01l51.33,29.85c1.28.75,2.05,2.08,2.05,3.57,0,1.48-.77,2.81-2.06,3.56l-38.88,22.15c-1.28.74-2.72,1.11-4.16,1.11ZM202.1,259.71c1.77,1.03,3.98,1.03,5.76,0l38.88-22.15c.68-.39.75-1.05.75-1.31,0-.26-.07-.92-.76-1.32l-51.32-29.85c-1.77-1.03-3.98-1.03-5.76,0l-38.88,22.15c-.68.39-.75,1.05-.75,1.32,0,.26.07.92.76,1.32l51.32,29.84Z"/><path class="bk" d="M247.53,143.06l5.44-3.51c2.02-1.31,4.36-1.92,6.7-1.74h0c3.04.22,5.06.87,6.62,3.75l.16,1.4-5.32,1.84-.17.8,1.73.8s-1.56,5.58-11.18,4.25c-8.83-1.22-3.98-7.58-3.98-7.58Z"/><path class="h" d="M254.34,152.14c-.92,0-1.92-.07-3.01-.22-3.26-.45-5.31-1.64-6.09-3.55-1.16-2.81,1.01-5.78,1.26-6.11l.33-.3,5.43-3.51c2.27-1.47,4.86-2.14,7.5-1.95,3.39.25,5.85,1.08,7.67,4.42l.15.47.28,2.43-4.36,1.51.74.34-.3,1.06c-.07.24-1.61,5.4-9.6,5.4ZM248.44,144.01c-.47.7-1.27,2.26-.8,3.38.51,1.23,2.48,1.75,4.05,1.96,5.87.81,8.3-1.11,9.23-2.36l-1.44-.67.54-2.52,5.02-1.74v-.11c-1.27-2.18-2.8-2.67-5.47-2.86-2.06-.16-4.11.38-5.9,1.54l-5.23,3.38Z"/><path class="h" d="M242.27,144.99l3.14-1.85c.48-.28,1.05-.25,1.48.12,1.01.86,2.83,2.73,3.89,5.68.27.74-.11,1.59-.77,1.9l-3.55,1.67c-.61.29-1.31.06-1.69-.54l-2.99-4.77c-.47-.75-.24-1.78.49-2.21Z"/><path class="h" d="M245.91,153.93c-.88,0-1.72-.45-2.24-1.27l-2.99-4.77c-.42-.66-.55-1.49-.36-2.26.18-.75.64-1.38,1.29-1.76l3.14-1.85c.97-.57,2.14-.47,2.98.25,1.09.93,3.09,2.99,4.26,6.22.49,1.36-.14,2.9-1.44,3.52l-3.55,1.67c-.36.17-.73.25-1.1.25ZM242.92,146.1s-.07.08-.08.14c-.02.09,0,.19.04.27l2.99,4.77,3.59-1.62c.07-.03.14-.18.11-.29-.97-2.67-2.62-4.37-3.52-5.14l-3.12,1.86Z"/><path class="bi" d="M206.12,141.44c.76,2.35-1.13-3,0,0,3.13,8.34,6.89,17.42,6.89,17.42,0,0,9.03-4.4,15.67-6.77,5.89-2.1,10.8-5.68,11.83-6.45.14-.11.28-.13.45-.08,1.02.34,4.83,1.93,5.09,6.78.01.21-.06.42-.2.55-2.33,2.14-22.95,20.77-38.27,24.18,0,0-8.84-8.08-13.21-23.19-4.36-15.11,9.91-18.17,11.76-12.45Z"/><path class="h" d="M207.2,178.48l-.5-.45c-.37-.34-9.17-8.51-13.58-23.79-2.66-9.22,1.18-14.88,6.16-16.41,2.87-.87,5.62-.21,7.13,1.54.34.25.57.72.76,1.22.06.14.11.28.16.42,2.41,6.4,5.21,13.31,6.35,16.09,2.72-1.29,9.31-4.35,14.56-6.22,5.76-2.05,10.58-5.58,11.49-6.27.48-.37,1.07-.46,1.64-.27,2.74.91,5.74,3.48,5.97,7.95.03.61-.19,1.18-.62,1.57-2.33,2.14-23.22,21.01-38.86,24.49l-.66.15ZM201.79,140.04c-.58,0-1.18.09-1.75.27-3.5,1.07-6.76,5.17-4.44,13.22,3.63,12.56,10.5,20.22,12.36,22.13,14.5-3.62,33.64-20.65,36.77-23.5-.29-3.35-2.63-4.73-3.8-5.22-1.53,1.12-6.26,4.39-11.82,6.38-6.5,2.32-15.45,6.67-15.54,6.71l-1.24.6-.53-1.27c-.04-.09-3.57-8.63-6.62-16.68-.19-.33-.34-.75-.48-1.18-.02-.05-.03-.1-.05-.15-.55-.91-1.67-1.3-2.88-1.3Z"/><path class="bi" d="M274.57,273.56s2.58,2.79,6.15,2.73c3.57-.06,5.59,3.1,5.59,3.1l-4.91,5.97-9.76-.34-5.27-3.85-1.45-6.49,6.05-2.73,3.61,1.6Z"/><path class="h" d="M282,286.69l-10.8-.38-5.99-4.37-1.79-8,7.54-3.4,4.38,1.94.18.19c.05.05,2.28,2.32,5.19,2.32,4.18-.06,6.6,3.55,6.7,3.7l.51.79-5.91,7.2ZM272.09,283.75l8.72.31,3.83-4.66c-.72-.75-2.11-1.81-3.89-1.8-3.46.09-6.18-2.23-6.92-2.94l-2.86-1.27-4.56,2.05,1.12,4.99,4.56,3.33Z"/><path class="bk" d="M171.36,225.48s23.63,39.96,82.57-4.7c.25-.19.56,0,.49.33-.56,2.35-2.49,10.2,1.12,18.36,3.7,8.36,7.32,26.61,8.82,33.84.38,1.85,1.9,3.15,3.62,3.11l1.64.08c2.04-.05,4.82-1.94,4.73-4.19-.63-14.92-2.72-65.44-6.39-69.79-5.61-6.64-18.87-6.07-25.43-4.3-6.57,1.77-44.38,12.26-44.38,12.26l-26.78,15.02Z"/><path class="h" d="M269.65,277.78l-1.73-.08c-2.24.06-4.32-1.68-4.83-4.14l-.34-1.67c-1.62-7.87-5-24.25-8.39-31.9-2.92-6.59-2.41-12.89-1.75-16.61-21.62,15.88-40.96,22.27-57.52,19.02-17.03-3.35-24.53-15.74-24.84-16.27l-.68-1.14,28.23-15.79c.38-.1,37.89-10.51,44.39-12.26,7.18-1.93,20.79-2.36,26.76,4.72,2.69,3.19,4.74,24.69,6.65,69.73l.04.84c.05,1.19-.42,2.35-1.37,3.36-1.2,1.29-3.01,2.14-4.62,2.18ZM267.95,275.12l1.73.08c.81-.02,1.98-.59,2.7-1.36.32-.34.7-.88.68-1.48l-.04-.84c-2.25-53.09-4.53-66.38-6.05-68.17-4.93-5.83-17.07-5.78-24.11-3.89-6.28,1.69-41.6,11.49-44.22,12.21l-25.41,14.25c2.22,3.03,9.41,11.42,22.42,13.96,16.32,3.18,35.67-3.58,57.51-20.12.55-.41,1.29-.45,1.86-.08.57.37.84,1.05.68,1.74-.6,2.51-2.35,9.87,1.04,17.54,3.5,7.91,6.91,24.47,8.56,32.43l.34,1.67c.25,1.23,1.31,2.11,2.32,2.08Z"/><path class="h" d="M289.23,279.94c-.85-3.46-4.26-4.09-8.51-3.65,1.36.4,1.98,1.06,2.89,1.96,1.16,1.15-.15,2.57-2.52,3.48-4.52,1.74-9.39.6-11.62-3.14-.24-.24-.48-.49-.72-.76l-.72-.91c-.06-.09-.13-.16-.19-.25-.66-.93-1.65-2.13-2.45-3.1-.87-1.03-2.39-.78-2.98.47-.82,1.76-1.44,4.77-.32,9.62l.1,7.72c0,.51.21.99.55,1.33.26.26.57.4.88.44h0c.49.26,1.84.12,3.39-.18.45-.09.78-.49.82-.99l.29-3.94c.03-.37.42-.55.68-.32l.65.58c.69.62,1.46,1.11,2.29,1.46h0c1.77.74,3.71.79,5.51.15,5.62-1.99,13.18-5.17,11.99-10.01Z"/><path class="h" d="M264.46,294.32c-.55,0-.9-.08-1.14-.18-.48-.1-.92-.34-1.28-.7-.53-.52-.83-1.26-.84-2.03l-.09-7.62c-1.17-5.16-.42-8.37.41-10.17.43-.92,1.25-1.54,2.2-1.67.91-.12,1.83.24,2.44.98,1.1,1.31,1.94,2.37,2.5,3.16l-.62.83.78-.62.72.91c.19.22.42.45.64.68l.15.19c1.92,3.22,6.2,4.34,10.41,2.72,1.57-.61,2.24-1.3,2.31-1.61,0-.03.02-.09-.13-.24-.92-.91-1.41-1.4-2.47-1.72l-4.83-1.43,5.01-.52c2.06-.21,8.29-.85,9.58,4.4h0c1.52,6.18-8.39,9.69-12.63,11.19-2.03.72-4.24.66-6.22-.17-.83-.35-1.61-.83-2.32-1.42l-.21,2.78c-.07.94-.74,1.72-1.62,1.89-1.27.25-2.14.34-2.75.34ZM264.06,273.94s-.06,0-.09,0c-.28.04-.52.23-.66.53-.71,1.52-1.33,4.31-.25,8.98l.03.21.1,7.72c0,.25.1.48.25.64.1.1.2.15.33.17l.33.11s.53.15,2.73-.28l.31-4.02c.04-.56.39-1.04.89-1.24.49-.2,1.04-.1,1.44.26l.65.59c.6.54,1.28.97,2,1.28,1.52.64,3.22.68,4.79.13,5.34-1.89,12.33-4.87,11.36-8.84-.32-1.31-1.14-2.72-4.29-2.97.08.08.16.16.24.24.7.69.94,1.42.78,2.16-.34,1.61-2.36,2.61-3.54,3.06-5.09,1.96-10.32.54-12.77-3.45-.23-.23-.46-.47-.68-.73l-.97-1.23c-.52-.74-1.35-1.79-2.41-3.04-.16-.19-.36-.29-.57-.29Z"/><rect class="bi" x="267.05" y="281.33" width="1.99" height="5.15"/><path class="h" d="M255.71,221.23l-2.58-.25c.02-.18.46-4.4,3.74-7.12l1.65,1.99c-2.47,2.05-2.81,5.35-2.81,5.38Z"/><path class="h" d="M168.11,160.33s-4.94,32.42-7.65,50.11c-2.71,17.7,20.1,27.01,34.79,28.78,14.7,1.77,30.07-6.17,34.66-13.69,4.59-7.52,11.62-11.21,11.62-11.21,0,0-18.66-13.03-24.02-46.38-5.35-33.35-23.94-38.68-24.98-38.66-1.04.02-24.43,31.04-24.43,31.04Z"/><path class="h" d="M199.48,240.76c-1.47,0-2.93-.08-4.39-.26-11.12-1.34-25.35-6.66-32.07-15.51-3.38-4.45-4.67-9.41-3.85-14.75,2.71-17.69,7.65-50.11,7.65-50.11l.05-.32.2-.26c23.77-31.53,24.65-31.55,25.44-31.56h0c.21,0,20.53,3.9,26.28,39.75,5.21,32.44,23.3,45.4,23.48,45.52l1.74,1.22-1.88.99c-.07.04-6.78,3.63-11.12,10.74-4.52,7.41-17.98,14.56-31.53,14.56ZM169.34,160.84c-.52,3.42-5.05,33.13-7.6,49.79-.71,4.62.42,8.92,3.36,12.79,6.26,8.25,19.74,13.23,30.31,14.51,14.65,1.78,29.33-6.42,33.4-13.08,3.39-5.56,8.01-9.07,10.46-10.68-4.66-3.94-18.48-17.74-23.02-46.03-4.9-30.51-20.66-36.64-23.37-37.46-2.57,2.65-15.46,19.46-23.53,30.16Z"/><path class="bi" d="M234.77,216.99c-15.51-10.35-22.66-33.18-22.96-34.15l1.9-.58c.07.23,7.25,23.13,22.16,33.08l-1.11,1.66Z"/><path class="bk" d="M268.05,152.16s1.92-5.31,4.39-7.26c1.85-1.46,3.31.14,3.92,1.04.21.3.57.38.87.22l5.52-3.06c.64-.36,1.43-.19,1.87.44.85,1.2,1.8,3.55.38,7.19-2.21,5.64-11.69,7.75-11.69,7.75l-5.26-6.31Z"/><path class="h" d="M272.81,159.91l-6.24-7.49.25-.7c.21-.58,2.12-5.72,4.8-7.83,1.1-.87,2.12-.93,2.78-.83,1.17.18,2.06.95,2.67,1.7l5.04-2.79c1.24-.69,2.74-.34,3.56.82.92,1.3,2.21,4.12.53,8.41-2.43,6.21-12.21,8.45-12.62,8.54l-.77.17ZM269.53,151.92l4.24,5.09c2.18-.61,8.43-2.69,10.02-6.76,1.18-3.01.53-4.91-.23-5.97l-5.71,3.01c-.89.49-1.99.23-2.57-.61-.42-.61-.89-1-1.26-1.06-.09-.01-.34-.05-.79.3-1.54,1.22-3.01,4.29-3.71,6Z"/><path class="h" d="M264.34,154.58l2.87-3.02c.44-.46,1.06-.62,1.62-.36,1.32.6,3.78,2,5.73,4.82.49.71.32,1.74-.31,2.3l-3.36,2.96c-.57.51-1.39.5-1.96-.02l-4.51-4.14c-.71-.65-.75-1.84-.08-2.54Z"/><path class="h" d="M269.92,162.95c-.66,0-1.33-.25-1.87-.74l-4.51-4.14c-.59-.54-.95-1.33-.97-2.15-.03-.83.27-1.65.83-2.23l2.87-3.02c.83-.87,2.04-1.13,3.1-.65,1.43.64,4.13,2.19,6.26,5.26.85,1.23.63,2.99-.52,4.01l-3.36,2.96c-.53.47-1.18.7-1.83.7ZM268.3,152.37l-3.02,3.09c-.08.09-.13.22-.12.36,0,.14.05.26.14.33l4.51,4.14c.08.07.15.07.23,0l3.36-2.96c.16-.14.21-.44.11-.59-1.77-2.56-4.02-3.84-5.2-4.38Z"/><path class="bi" d="M207.86,145.84c1.02-1.66,2.81-2.29,4.51-1.94.84.17,1.65.58,2.33,1.22,1.94,1.82,5.25,5.28,8.51,10.38,5.08,7.92,16.15,22.4,16.15,22.4,0,0,7.82-7.09,13.79-11.44,5.3-3.87,9.25-8.89,10.07-9.97.11-.14.25-.21.42-.21,1.09.02,5.29.43,6.75,5.19.06.19.03.41-.07.57-1.69,2.7-16.35,25.74-30.21,34.59-.94.6-2.11.47-2.96-.28-4.36-3.84-17.8-16.12-24.52-27.42-8.1-13.61-6.64-19.88-4.82-22.98.02-.03.04-.06.06-.09Z"/><path class="h" d="M238.82,198.28c-.9,0-1.8-.33-2.54-.98-4.08-3.59-17.91-16.19-24.78-27.73-6.47-10.87-8.05-18.82-4.82-24.3l.07-.11c1.23-2.01,3.53-3.01,5.87-2.53,1.1.22,2.12.76,2.96,1.54,2.18,2.05,5.47,5.55,8.71,10.62,4.18,6.52,12.56,17.66,15.25,21.2,2.35-2.09,8.18-7.18,12.84-10.59,5.18-3.79,9.08-8.75,9.81-9.71.37-.47.83-.74,1.48-.72,2.96.07,6.6,1.71,7.95,6.11.17.54.09,1.16-.21,1.64-1.64,2.63-16.48,25.97-30.61,34.99-.61.39-1.29.58-1.97.58ZM208.97,146.5l-.03.05c-2.69,4.56-1.07,11.85,4.79,21.69,6.67,11.21,20.26,23.58,24.27,27.11.43.38.97.44,1.41.16,13.3-8.49,27.44-30.42,29.66-33.94-1.12-3.25-3.8-3.88-5.06-4-1.18,1.51-5.05,6.23-10.09,9.91-5.84,4.27-13.61,11.29-13.68,11.36l-1.04.94-.86-1.12c-.11-.15-11.17-14.61-16.22-22.49-3.1-4.84-6.23-8.18-8.31-10.13-.49-.46-1.07-.76-1.7-.89-1.27-.26-2.47.26-3.14,1.34Z"/><path class="h" d="M241.06,184.33l-2.54-.51c.39-1.94-.17-4.7-.41-5.6l2.5-.68c.04.16,1.04,3.85.45,6.78Z"/><path class="bi" d="M205.32,124.8s-2.4,8.04-.35,11.86c2.06,3.82-7.71,2.76-7.71,2.76l-9.93-7.14s2.96-4.83,2.77-8.95c-.19-4.13-.64-4.53.31-4.24.95.29,14.91,5.71,14.91,5.71Z"/><path class="h" d="M200.07,140.87c-1.15,0-2.22-.09-2.94-.17l-.34-.04-11.19-8.04.63-1.03s2.75-4.54,2.58-8.22c-.06-1.25-.14-2.15-.2-2.79-.12-1.29-.18-2,.5-2.55.64-.51,1.37-.29,1.68-.2.96.3,13.56,5.18,14.99,5.74l1.11.43-.34,1.15c-.62,2.1-1.92,8.14-.45,10.87.78,1.45.35,2.48.02,2.96-1.01,1.51-3.72,1.86-6.06,1.86ZM197.74,138.16c2.84.26,5.78-.01,6.23-.59-.01,0-.04-.11-.14-.3-1.82-3.38-.69-9.17-.07-11.69-4.4-1.71-10.07-3.89-12.54-4.82.05.63.12,1.45.17,2.5.15,3.3-1.46,6.9-2.37,8.63l8.71,6.26Z"/><path class="bk" d="M204.52,85.65s12.24-.48,16.21,10c3.97,10.48-4.13,18.46-4.13,18.46,0,0-10.36-3.23-12.13-8.11-1.77-4.88.05-20.35.05-20.35Z"/><path class="h" d="M216.96,115.57l-.74-.23c-1.12-.35-11.03-3.57-12.96-8.91-1.85-5.11-.1-20.29-.02-20.94l.13-1.1,1.11-.04c.11-.01,13.22-.4,17.47,10.83,4.22,11.14-4.08,19.49-4.43,19.84l-.55.54ZM205.68,86.96c-.51,4.91-1.25,15.13.01,18.59,1.17,3.21,7.4,5.97,10.53,7.06,1.65-1.92,6.38-8.37,3.31-16.51-2.96-7.8-10.89-8.98-13.84-9.14Z"/><path class="bi" d="M197.48,87.07s-8.47-7.16-11.76,10.63c-2.29,12.38,2.5,19.78,11.73,26.85,2.87,2.2,6.09,2.56,8.93,1.71,3.81-1.14,6.51-4.78,7.73-8.93,2.17-7.39,2.58-14.31,1.16-21.17,1.75-7.35-3.06-6.26-11.76-8.68l-6.03-.41Z"/><path class="h" d="M203.52,127.98c-2.42,0-4.78-.82-6.86-2.4-10.83-8.3-14.37-16.44-12.21-28.11,1.34-7.25,3.75-11.55,7.17-12.77,2.86-1.02,5.41.45,6.33,1.1l5.91.43c1.82.51,3.49.86,4.95,1.17,3.53.75,6.09,1.29,7.36,3.3.82,1.3.96,3.04.42,5.47,1.39,6.93.98,13.97-1.24,21.52-1.46,4.96-4.68,8.63-8.6,9.8-1.08.32-2.16.48-3.23.48ZM193.63,86.94c-.38,0-.77.06-1.16.2-1.7.62-4.03,2.99-5.47,10.79-2.28,12.34,2.84,19.15,11.24,25.59,2.31,1.77,5.08,2.3,7.77,1.5,3.08-.92,5.64-3.93,6.86-8.05,2.13-7.23,2.5-13.95,1.13-20.54l-.06-.28.07-.28c.43-1.83.43-3.06-.02-3.77-.69-1.09-2.8-1.54-5.71-2.15-1.47-.31-3.13-.66-4.99-1.18l-6.32-.43-.32-.27c-.05-.04-1.4-1.12-3.01-1.12Z"/><path class="bi" d="M203.13,145.36c3.87.52,10.17-4.42,7.15-7.13-.14-.13-.28-.24-.43-.33-2.64-1.7-10.35.73-15.33-2.49-3.73-2.41-3.72-4.9-3.48-5.99.17-.8-.09-1.67-.68-2.16-.44-.37-1.1-.64-2.09-.56-2.71.21-4.77,3.69-3.64,7.02,1.13,3.33,5.23,7.82,10.03,9.51,3.63,1.28,4.55,1.61,8.48,2.13Z"/><path class="h" d="M203.69,146.69c-.25,0-.5-.02-.74-.05h0c-4.08-.55-5.07-.9-8.74-2.19-5.21-1.84-9.6-6.69-10.82-10.32-.71-2.09-.42-4.41.77-6.21.98-1.48,2.44-2.4,4-2.52,1.52-.12,2.48.41,3.02.86.96.8,1.39,2.15,1.11,3.43-.2.9-.08,2.69,2.92,4.62,2.56,1.65,6.08,1.63,9.17,1.6,2.54-.02,4.72-.04,6.16.89.2.13.4.29.6.46,1.27,1.14,1.56,2.74.81,4.37-1.26,2.73-5.17,5.05-8.26,5.05ZM203.3,144.08c2.08.27,5.42-1.6,6.31-3.52.36-.77.09-1.11-.19-1.37-.09-.08-.18-.15-.26-.21-.79-.5-2.79-.49-4.73-.47-3.29.03-7.39.06-10.6-2.02-4.47-2.89-4.32-6.11-4.04-7.35.07-.33-.03-.71-.25-.89-.25-.21-.63-.3-1.16-.26-.76.06-1.5.55-2.04,1.36-.75,1.14-.93,2.62-.48,3.95,1.01,2.97,4.82,7.15,9.23,8.71,3.56,1.26,4.4,1.56,8.22,2.07h0Z"/><g class="bu"><rect class="m" x="188.47" y="124.28" width=".07" height="0" transform="translate(-6.04 9.69) rotate(-2.9)"/><rect class="m" x="188.47" y="124.28" width=".07" height="0" transform="translate(-5.32 8.47) rotate(-2.54)"/><rect class="bo" x="188.47" y="124.28" width=".07" height="0" transform="translate(-6.04 9.69) rotate(-2.9)"/><rect class="o" x="188.47" y="124.28" width=".07" height="0" transform="translate(-6.04 9.69) rotate(-2.9)"/><rect class="bp" x="188.47" y="124.27" width=".07" height="0" transform="translate(-6.04 9.69) rotate(-2.9)"/><rect class="at" x="188.47" y="124.27" width=".07" height="0" transform="translate(-5.32 8.46) rotate(-2.54)"/><rect class="bf" x="188.47" y="124.27" width=".07" height="0" transform="translate(-6.04 9.69) rotate(-2.9)"/><rect class="ab" x="188.47" y="124.27" width=".07" height="0" transform="translate(-6.04 9.69) rotate(-2.9)"/><rect class="u" x="188.47" y="124.27" width=".07" height="0" transform="translate(-6.04 9.69) rotate(-2.9)"/><rect class="i" x="188.47" y="124.27" width=".07" height="0" transform="translate(-6.04 9.69) rotate(-2.9)"/><rect class="p" x="188.47" y="124.27" width=".07" height="0" transform="translate(-6.04 9.69) rotate(-2.9)"/><rect class="l" x="188.47" y="124.27" width=".07" height="0" transform="translate(-6.04 9.69) rotate(-2.9)"/><rect class="ad" x="188.47" y="124.27" width=".07" height="0" transform="translate(-6.04 9.69) rotate(-2.9)"/><rect class="ak" x="188.47" y="124.27" width=".07" height="0" transform="translate(-6.04 9.69) rotate(-2.9)"/><rect class="f" x="188.47" y="124.27" width=".07" height="0" transform="translate(-5.32 8.46) rotate(-2.54)"/><rect class="aw" x="188.47" y="124.27" width=".07" height="0" transform="translate(-6.04 9.69) rotate(-2.9)"/><rect class="bs" x="188.47" y="124.27" width=".07" height="0" transform="translate(-6.04 9.69) rotate(-2.9)"/><rect class="bm" x="188.47" y="124.27" width=".07" height="0" transform="translate(-6.04 9.69) rotate(-2.9)"/><rect class="bj" x="188.47" y="124.27" width=".07" height="0" transform="translate(-6.04 9.69) rotate(-2.9)"/><rect class="v" x="188.47" y="124.27" width=".07" height="0" transform="translate(-6.04 9.69) rotate(-2.9)"/><rect class="ap" x="188.47" y="124.27" width=".07" height="0" transform="translate(-6.04 9.69) rotate(-2.9)"/><rect class="an" x="188.47" y="124.27" width=".07" height="0" transform="translate(-6.04 9.69) rotate(-2.9)"/><rect class="j" x="188.47" y="124.27" width=".07" height="0" transform="translate(-6.04 9.69) rotate(-2.9)"/><rect class="ar" x="188.47" y="124.27" width=".07" height="0" transform="translate(-5.32 8.46) rotate(-2.54)"/><rect class="d" x="188.47" y="124.26" width=".07" height="0" transform="translate(-6.04 9.69) rotate(-2.9)"/><rect class="ba" x="188.47" y="124.26" width=".07" height="0" transform="translate(-6.04 9.69) rotate(-2.9)"/><rect class="ai" x="188.47" y="124.26" width=".07" height="0" transform="translate(-6.04 9.69) rotate(-2.9)"/><rect class="k" x="188.47" y="124.26" width=".07" height="0" transform="translate(-5.32 8.46) rotate(-2.54)"/><rect class="r" x="188.47" y="124.26" width=".07" height="0" transform="translate(-6.04 9.69) rotate(-2.9)"/><rect class="am" x="188.47" y="124.26" width=".07" height="0" transform="translate(-6.04 9.69) rotate(-2.9)"/><rect class="bn" x="188.47" y="124.26" width=".07" height="0" transform="translate(-6.04 9.69) rotate(-2.9)"/><rect class="al" x="188.47" y="124.26" width=".07" height="0" transform="translate(-6.04 9.69) rotate(-2.9)"/><rect class="br" x="188.47" y="124.26" width=".07" height="0" transform="translate(-6.04 9.69) rotate(-2.9)"/><rect class="q" x="188.47" y="124.26" width=".07" height="0" transform="translate(-6.04 9.69) rotate(-2.9)"/><rect class="bd" x="188.47" y="124.26" width=".07" height="0" transform="translate(-6.04 9.69) rotate(-2.9)"/><rect class="bq" x="188.47" y="124.26" width=".07" height="0" transform="translate(-6.04 9.69) rotate(-2.9)"/><rect class="au" x="188.47" y="124.26" width=".07" height="0" transform="translate(-5.32 8.46) rotate(-2.54)"/><rect class="aq" x="188.47" y="124.26" width=".07" height="0" transform="translate(-6.04 9.69) rotate(-2.9)"/><rect class="bc" x="188.47" y="124.26" width=".07" height="0" transform="translate(-6.04 9.69) rotate(-2.9)"/><rect class="g" x="188.47" y="124.26" width=".07" height="0" transform="translate(-6.04 9.69) rotate(-2.9)"/><rect class="n" x="188.47" y="124.26" width=".07" height="0" transform="translate(-6.04 9.69) rotate(-2.9)"/><rect class="be" x="188.47" y="124.26" width=".07" height="0" transform="translate(-6.04 9.69) rotate(-2.9)"/><rect class="az" x="188.47" y="124.26" width=".07" height="0" transform="translate(-6.04 9.69) rotate(-2.9)"/><rect class="w" x="188.47" y="124.25" width=".07" height="0" transform="translate(-6.04 9.69) rotate(-2.9)"/><rect class="ax" x="188.47" y="124.25" width=".07" height="0" transform="translate(-6.04 9.69) rotate(-2.9)"/><rect class="bh" x="188.47" y="124.25" width=".07" height="0" transform="translate(-5.31 8.46) rotate(-2.54)"/><rect class="ag" x="188.47" y="124.25" width=".07" height="0" transform="translate(-6.04 9.69) rotate(-2.9)"/><rect class="s" x="188.47" y="124.25" width=".07" height="0" transform="translate(-6.04 9.69) rotate(-2.9)"/><rect class="ah" x="188.47" y="124.25" width=".07" height="0" transform="translate(-6.04 9.69) rotate(-2.9)"/><rect class="y" x="188.47" y="124.25" width=".07" height="0" transform="translate(-5.31 8.46) rotate(-2.54)"/><rect class="aj" x="188.47" y="124.25" width=".07" height="0" transform="translate(-6.04 9.69) rotate(-2.9)"/><rect class="e" x="188.47" y="124.25" width=".07" height="0" transform="translate(-6.04 9.69) rotate(-2.9)"/><rect class="af" x="188.47" y="124.25" width=".07" height="0" transform="translate(-6.04 9.69) rotate(-2.9)"/><rect class="x" x="188.47" y="124.25" width=".07" height="0" transform="translate(-6.04 9.69) rotate(-2.9)"/><rect class="bg" x="188.47" y="124.25" width=".07" height="0" transform="translate(-6.04 9.69) rotate(-2.9)"/><rect class="av" x="188.47" y="124.25" width=".07" height="0" transform="translate(-6.04 9.69) rotate(-2.9)"/><rect class="ao" x="188.47" y="124.25" width=".07" height="0" transform="translate(-6.04 9.69) rotate(-2.9)"/><rect class="ac" x="188.47" y="124.25" width=".07" height="0" transform="translate(-6.04 9.69) rotate(-2.9)"/><polygon class="ay" points="188.47 124.25 188.53 124.25 188.54 124.25 188.54 124.25 188.47 124.25 188.47 124.25"/><polygon class="z" points="188.47 124.25 188.52 124.25 188.53 124.25 188.47 124.25 188.47 124.25"/><polygon class="t" points="188.47 124.25 188.51 124.25 188.52 124.25 188.47 124.25 188.47 124.25"/><polygon class="as" points="188.47 124.25 188.5 124.25 188.51 124.25 188.47 124.25 188.47 124.25"/><polygon class="aa" points="188.47 124.25 188.49 124.25 188.5 124.25 188.47 124.25 188.47 124.25"/><polygon class="bb" points="188.47 124.25 188.48 124.25 188.49 124.25 188.47 124.25 188.47 124.25"/><polygon class="bl" points="188.47 124.25 188.47 124.25 188.48 124.25 188.47 124.25 188.47 124.25"/></g><path class="bk" d="M200.62,80.08c6.72.85,14.61,6.27,16.07,10.95,1.72,5.52,1.01,8.73-4.66,8.09-2.25-.25-4.06,5.88-4.9,8.03-.5,1.27-2.45,2.14-3.2,2.06-1.76-.2-4.18,2.2-4.44,4.89-.21,2.21.53,4.84,1.78,5.6-3.77,8.92,13.91,18.7-3.59,25.71-.46.18,12.09,17.57-4.15,27.09-13.52,7.93-40.89,5.04-46.97-10.44-10.61-27.01,26.58-32.11,28.36-55.22,1.39-18.07,14.79-28.13,25.7-26.76Z"/><path class="h" d="M175.44,178.09c-4.98,0-10.06-.78-14.68-2.38-7.74-2.68-13.07-7.24-15.4-13.18-6.33-16.11,3.57-24.93,13.15-33.46,7.07-6.3,14.39-12.81,15.12-22.34.72-9.43,4.68-17.52,11.13-22.78,4.85-3.95,10.69-5.83,16.03-5.16h0c7.19.91,15.52,6.67,17.14,11.85,1.23,3.93,1.17,6.53-.17,8.16-1.15,1.39-3.06,1.92-5.86,1.6-.45.09-1.38,1.21-3.12,6.04-.17.45-.31.86-.43,1.18-.72,1.86-3.26,3.03-4.56,2.87-.22-.02-.69.1-1.25.55-.95.77-1.64,2.02-1.75,3.18-.19,2.01.56,4.01,1.16,4.37l.96.58-.44,1.03c-1.22,2.88.3,6.03,1.9,9.37,1.65,3.42,3.35,6.96,2,10.44-.93,2.39-3.21,4.39-6.95,6.08,8.02,15.52,1.6,23.54-5.22,27.54-5.03,2.95-11.8,4.47-18.76,4.47ZM198.61,81.25c-4.12,0-8.48,1.67-12.22,4.71-5.9,4.81-9.51,12.26-10.18,20.97-.81,10.57-8.52,17.43-15.98,24.08-9.32,8.3-18.13,16.15-12.46,30.58,2.59,6.59,8.95,9.99,13.84,11.68,10.23,3.54,23.38,2.75,31.28-1.88,8.68-5.09,10.03-13.06,4.11-24.36-.55-1.05-.75-1.44-.53-2.05l.2-.54.54-.23c3.79-1.52,5.99-3.2,6.75-5.14.94-2.43-.45-5.32-1.92-8.37-1.57-3.27-3.34-6.94-2.27-10.61-1.26-1.46-1.76-4.05-1.56-6.11.18-1.85,1.21-3.75,2.71-4.95,1.03-.83,2.15-1.23,3.18-1.11.36-.01,1.6-.61,1.84-1.24.12-.3.25-.68.41-1.11,1.23-3.4,2.95-8.04,5.84-7.73,1.26.14,2.9.14,3.58-.68.49-.6.84-2.08-.3-5.74-1.32-4.21-8.88-9.28-15-10.05h0c-.61-.08-1.23-.12-1.85-.12Z"/><path class="h" d="M213.32,99.3l-2.56-.36c.96-6.9-3.67-8.99-3.71-9.01l1.03-2.38c2.24.98,6.23,4.69,5.25,11.74Z"/><path class="h" d="M196.45,145.82c-.89-2.74-2.15-5.01-3.74-6.75l1.91-1.75c1.84,2.01,3.28,4.6,4.28,7.7l-2.46.8Z"/><path class="h" d="M182.38,106.3l-2.58-.27c1.06-10.13,6.44-15.09,6.66-15.29l1.74,1.92-.87-.96.87.96s-4.87,4.55-5.83,13.64Z"/><path class="h" d="M160.95,167.8c-7.97-4.57-8.37-12.44-8.38-12.77l2.59-.11c.01.28.39,6.8,7.08,10.63l-1.29,2.25Z"/><path class="bk" d="M205.17,229.56l-7.83-38.87c-.51-2.53-2.09-4.72-4.33-6.01l-47.86-27.43c-.6-.34-1.28-.47-1.86-.35h0c-4.15.49-6.58,4.25-7.02,4.97-.04.07-.01.15.06.2l5.54,3.3.44-.2,6.29,32.99c.47,2.48,1.98,4.63,4.15,5.92,0,0,.02.01.03.01l36.17,14.05s.05.03.06.05l3.51,4.41s.02.03.03.05l4.7,14.31c.02.06.07.11.14.11.9,0,7.47-.22,7.85-5.5l.03-.41c.06-.31-.05-1.24-.12-1.59Z"/><path class="h" d="M196.47,238.36l-.43-.99-4.64-14.12-3.19-4-36.11-14.05c-2.48-1.48-4.22-3.95-4.76-6.79l-6.13-31.92-5.54-3.3c-.7-.42-.92-1.29-.51-1.97.5-.84,3.23-5.04,7.98-5.6.76-.17,1.77,0,2.65.51l47.86,27.43c2.56,1.47,4.37,3.97,4.96,6.87l7.82,38.87c.04.2.24,1.43.12,2.07l-.02.29c-.35,4.9-5.14,6.67-9.13,6.69h-.94ZM153.36,202.93l36.39,14.13.28.31,3.77,4.87,4.43,13.49c1.82-.15,5.49-.88,5.74-4.26l.04-.42c.02-.26-.04-.94-.1-1.22h0s-7.82-38.87-7.82-38.87c-.44-2.17-1.79-4.04-3.7-5.14l-47.86-27.43c-.38-.22-.74-.25-.94-.21-2.7.32-4.57,2.19-5.52,3.41l3.91,2.33,1.33-.61,6.6,34.61c.4,2.08,1.66,3.91,3.47,5.01Z"/><path class="h" d="M205.27,231.66l.03-.41c.06-.31-.05-1.24-.12-1.59l-7.83-38.87c-.26-1.31-.83-2.52-1.61-3.57-2.24,2.28-5.58,3.56-5.58,3.56,0,0-6.88,4.03-7.48,4.27-.6.24-11.45,11.21-11.9,12.4-.09.24.1,1.72.44,3.9l17.75,6.89s.05.03.06.05l3.51,4.41s.02.03.03.05l4.7,14.31c.02.06.07.11.14.1.9,0,7.47-.22,7.85-5.5Z"/><path class="h" d="M196.49,238.46l-.43-.99-4.64-14.12-3.19-4-18.15-7.05-.11-.74c-.59-3.74-.54-4.13-.38-4.55.56-1.51,11.72-12.79,12.63-13.16.45-.2,4.1-2.31,7.31-4.19l.19-.09s3.11-1.22,5.12-3.27l1.06-1.07.9,1.21c.92,1.24,1.54,2.61,1.84,4.09l7.83,38.87s.25,1.38.12,2.07v.27c-.37,4.92-5.16,6.69-9.15,6.7h-.93ZM172.41,210.42l17.37,6.74.28.31,3.71,4.65.09.34,4.39,13.36c1.83-.15,5.49-.88,5.74-4.26l.03-.42c.03-.27-.04-.94-.1-1.24l-7.83-38.87c-.13-.64-.34-1.25-.63-1.84-2,1.59-4.21,2.53-4.72,2.74-2.01,1.18-6.39,3.74-7.42,4.24-1.3,1-10.03,9.93-11.25,11.65.02.3.09.99.33,2.58Z"/><path class="h" d="M147.24,158.45l-2.09-1.2c-.6-.34-1.28-.47-1.86-.35-4.15.49-6.58,4.25-7.02,4.97-.04.07-.01.15.06.2l3.01,1.79c1.21-.82,1.38-1.38,1.38-1.38,0,0,2.08-2.24,6.52-4.03h0Z"/><path class="h" d="M139.39,165.4l-3.72-2.22c-.69-.42-.91-1.28-.51-1.97.5-.84,3.23-5.04,7.98-5.6.76-.17,1.77,0,2.65.51l4.4,2.52-2.47,1c-3.51,1.42-5.45,3.14-5.94,3.6-.23.4-.71,1-1.71,1.69l-.68.46ZM138.05,161.58l1.2.72c.21-.2.28-.32.28-.32l.09-.29.16-.09c.08-.08,1.58-1.67,4.65-3.27-.35-.17-.67-.2-.85-.16-2.7.32-4.57,2.2-5.52,3.41Z"/><path class="bi" d="M199.86,233.97l-7.96-39.55c-.5-2.49-2.05-4.64-4.26-5.91l-47.92-27.47c-1.91-1.1-4.23.56-3.82,2.72l7.29,38.19c.47,2.48,1.99,4.64,4.17,5.93l48.66,28.81c1.92,1.14,4.29-.54,3.85-2.73Z"/><path class="h" d="M197.34,238.37c-.68,0-1.36-.18-1.98-.55l-48.66-28.81c-2.49-1.48-4.24-3.96-4.78-6.8l-7.29-38.19c-.29-1.5.31-2.99,1.55-3.88,1.25-.89,2.85-.97,4.18-.21l47.92,27.47c2.53,1.45,4.31,3.92,4.88,6.78l7.96,39.55c.31,1.52-.29,3.03-1.56,3.93-.68.48-1.46.72-2.24.72ZM138.44,162c-.37,0-.65.17-.75.25-.16.11-.66.54-.52,1.29l7.29,38.19c.4,2.12,1.7,3.96,3.56,5.06l48.66,28.81c.66.39,1.24.06,1.4-.06.16-.11.67-.54.52-1.3l-7.96-39.55c-.43-2.12-1.75-3.96-3.63-5.04l-47.92-27.46c-.23-.13-.44-.18-.63-.18Z"/><path class="h" d="M194.32,268.53c-1.37,0-2.75-.35-4.01-1.06-2.65-1.48-4.23-4.16-4.23-7.2,0-4.2-.46-8.41-1.38-12.5l-7.9-35.65c-1.66-7.51-6.46-13.97-13.16-17.74l-2.26-1.27c-1.32-.74-2.84-.65-4.06.25-1.22.9-1.77,2.32-1.46,3.8l7.13,33.88c.9,4.29,1.36,8.68,1.36,13.07v.36c0,1.2.81,1.78,1.16,1.97.35.19,1.27.58,2.29-.05l3.15,5.08c-2.57,1.59-5.7,1.67-8.34.19-2.65-1.48-4.23-4.16-4.23-7.2v-.36c0-3.97-.41-7.95-1.23-11.83l-7.13-33.88c-.8-3.79.65-7.56,3.77-9.86,3.12-2.29,7.16-2.53,10.53-.64l2.26,1.27c8.18,4.6,14.04,12.49,16.08,21.65l7.9,35.65c1.01,4.52,1.52,9.16,1.52,13.8,0,1.2.81,1.78,1.16,1.97.35.19,1.27.58,2.29-.05l3.15,5.08c-1.34.83-2.84,1.25-4.33,1.25Z"/><path class="bi" d="M201.09,237.49l-.42-1.95c4.1-.88,3.67-4.01,3.65-4.14l-7.94-40.41,1.95-.38,7.94,40.45c.28,1.81-.46,5.42-5.19,6.43Z"/><path class="bi" d="M342.12,128.92l9.08,5.35c1.42.84,3.21.68,4.47-.38l16.02-13.63c1.09-.93.96-2.66-.26-3.41l-8.89-5.47c-1.43-.88-3.25-.74-4.53.35l-16.19,13.76c-1.11.94-.96,2.69.29,3.43Z"/><path class="h" d="M353.16,136.1c-.9,0-1.81-.24-2.62-.71l-9.08-5.35c-.95-.56-1.57-1.55-1.67-2.64-.09-1.1.35-2.18,1.19-2.89l16.19-13.76c1.71-1.45,4.14-1.64,6.05-.46l8.89,5.47c.94.58,1.53,1.54,1.61,2.64.08,1.1-.35,2.14-1.19,2.86l-16.02,13.63c-.96.81-2.15,1.23-3.34,1.23ZM360.52,112.11c-.6,0-1.19.21-1.67.61l-16.19,13.75c-.29.25-.3.57-.28.69.01.13.07.44.4.63l9.08,5.35c.94.56,2.14.45,2.97-.26l16.02-13.63c.29-.24.29-.56.28-.68,0-.12-.07-.44-.39-.63l-8.89-5.47c-.42-.26-.88-.38-1.35-.38Z"/><path class="bi" d="M342.12,126.47l9.08,5.35c1.42.84,3.21.68,4.47-.38l16.02-13.63c1.09-.93.96-2.66-.26-3.41l-8.89-5.47c-1.43-.88-3.25-.74-4.53.35l-16.19,13.76c-1.11.94-.96,2.69.29,3.43Z"/><path class="h" d="M353.16,133.65c-.9,0-1.81-.24-2.62-.71l-9.08-5.35c-.95-.56-1.57-1.55-1.67-2.64-.09-1.1.35-2.18,1.19-2.89l16.19-13.76c1.71-1.45,4.14-1.64,6.05-.46l8.89,5.47c.94.58,1.53,1.54,1.61,2.64.08,1.1-.35,2.14-1.19,2.86l-16.02,13.63c-.96.81-2.15,1.23-3.34,1.23ZM360.52,109.65c-.59,0-1.19.21-1.66.61l-16.19,13.75c-.29.25-.3.57-.28.69.01.13.07.44.4.63l9.08,5.35c.94.56,2.14.45,2.97-.26l16.02-13.63c.29-.24.29-.56.28-.68,0-.12-.07-.44-.39-.63l-8.89-5.47c-.42-.26-.88-.38-1.35-.38Z"/><path class="bi" d="M451.33,226.83s4.21,12.36,6.64,17.85c2.43,5.5,15.22,6.01,11.89-11.25-1.26-6.54-2.78-11.55-4.18-15.23-1.92-5.06-7.17-8.01-12.49-7.02h0l-1.87,9.59v6.06Z"/><path class="h" d="M456.89,245.15c-2.42-5.48-6.5-17.44-6.68-17.95l-.06-6.43,2.04-10.6.78-.15c5.88-1.09,11.68,2.16,13.8,7.75,1.7,4.48,3.12,9.67,4.23,15.42,2.38,12.34-3.36,15.15-5.18,15.72-.73.23-1.48.34-2.22.34-2.85,0-5.59-1.59-6.71-4.11ZM454.18,212.22l-1.69,8.67v5.75c.53,1.55,4.32,12.55,6.54,17.58.91,2.06,3.75,3.22,6.09,2.49,3.6-1.13,4.94-6,3.58-13.04-1.08-5.63-2.47-10.68-4.12-15.04-1.49-3.94-5.25-6.45-9.34-6.45-.35,0-.71.02-1.07.06Z"/><path class="h" d="M465.42,218.2c-1.9-5.01-7.07-7.95-12.33-7.05-.09.02-.17.09-.19.19l-1.19,6.12c-.02.12.05.24.17.26,2.2.32,8.71,1.62,15.05,6.3.17.13.4-.04.34-.24-.62-2.12-1.25-3.97-1.86-5.57Z"/><path class="h" d="M466.24,224.96c-6.25-4.6-12.69-5.82-14.52-6.08l-.63-.15-.29-.4c-.22-.31-.31-.7-.24-1.09l1.19-6.11c.11-.57.57-1.02,1.14-1.12,5.81-.99,11.53,2.28,13.62,7.78h0c.66,1.75,1.3,3.65,1.89,5.66.17.57-.05,1.19-.54,1.54-.24.17-.52.25-.8.25s-.58-.09-.83-.27ZM464.33,218.61c-1.62-4.26-5.91-6.88-10.4-6.39l-.88,4.51c2.39.45,7.25,1.67,12.31,4.81-.33-1.01-.68-1.99-1.03-2.92h0Z"/><path class="bk" d="M458.97,216.81c-.63-1.26-1.53-2.34-2.66-3.19-3.29-2.5-10.9-8.49-16.19-14.29-6.36-6.97-12.01-18.29-25.27-20.32,0,0-.01-.02-.02-.03-1.86-2.47-2.46-12.92-2.46-12.92l-7.18-8.47-16,1.84s.05,14.24,4.39,24c4.34,9.76,12.13,12.69,12.13,12.69,0,0,35.1,13.71,42.2,24.83,7.09,11.12,7.03,17.46,13.84,15.25,5.45-1.77-.29-14.43-2.79-19.39Z"/><path class="h" d="M451.64,229.97c-1.18-2.3-2.65-5.16-4.71-8.39-6.81-10.67-41.29-24.24-41.62-24.37-.34-.13-8.3-3.22-12.79-13.31-4.39-9.87-4.49-23.88-4.49-24.47v-1.05s17.66-2.03,17.66-2.03l7.83,9.24.02.39c.21,3.67.93,9.89,2.01,11.94,10.51,1.82,16.28,9.17,21.37,15.67,1.39,1.78,2.71,3.46,4.06,4.93,5.27,5.78,12.96,11.82,16.03,14.15,1.27.96,2.27,2.18,2.99,3.6h0c2.55,5.06,6.54,14.19,4.7,18.61-.5,1.19-1.4,2.03-2.6,2.42-1.03.34-1.94.49-2.75.49-3.7,0-5.39-3.28-7.73-7.83ZM404.72,158.82l-14.32,1.65c.11,3.43.74,14.57,4.26,22.48,4.07,9.15,11.4,12.04,11.48,12.07,1.45.57,35.54,13.98,42.76,25.3,2.12,3.32,3.62,6.24,4.82,8.58,3.03,5.89,3.97,7.38,7.67,6.18.56-.18.93-.53,1.16-1.1,1.07-2.56-.67-8.78-4.63-16.65h0c-.55-1.11-1.33-2.04-2.32-2.79-3.12-2.37-10.95-8.51-16.34-14.43-1.4-1.54-2.75-3.25-4.17-5.07-4.91-6.26-10.48-13.37-20.41-14.89l-.49-.1-.29-.38c-1.87-2.47-2.53-11.01-2.67-13.17l-6.52-7.69Z"/><path class="bi" d="M362.47,248.99s-11.53,8.53-15.27,16.41c-3.74,7.88,4.14,9.32,12.79,3.14,8.65-6.18,12.93-3.82,16.67-9.4s-2.53-16.14-2.53-16.14l-11.66,6Z"/><path class="h" d="M346.57,272.38c-1.06-.89-2.54-3.05-.43-7.49,3.82-8.05,15.15-16.49,15.63-16.85l12.8-6.6.56.95c.27.46,6.6,11.27,2.5,17.39-2.22,3.31-4.73,4.15-7.64,5.11-2.42.81-5.44,1.81-9.33,4.59-3.72,2.66-7.44,4.07-10.34,4.07-1.51,0-2.8-.39-3.75-1.18ZM363.09,249.98c-.98.74-11.42,8.7-14.84,15.91-.61,1.29-1.46,3.62-.18,4.69,1.57,1.31,6.04.71,11.23-3,4.17-2.99,7.38-4.05,9.95-4.91,2.81-.93,4.66-1.55,6.43-4.2,2.46-3.66-.27-10.57-2.03-13.93l-10.56,5.43Z"/><path class="h" d="M370.35,263.3c-.09.07-.03.21.08.18,2.48-.85,4.41-1.69,6.21-4.38,3.56-5.31-1.94-15.12-2.49-16.06-.03-.05-.08-.06-.12-.03l-2.28,1.17s-.04.03-.05.06l-1.91,5.87s0,.05,0,.08l2.06,4.08s2.74,5.78-1.51,9.03Z"/><path class="h" d="M368.85,262.98l.78-.61h0c3.43-2.64,1.26-7.41,1.18-7.58l-2.05-4.07-.23-.51,2.07-6.36.2-.5,2.7-1.39,1.12-.48.56.97c.67,1.15,6.39,11.43,2.45,17.3-2.02,3.01-4.28,3.97-6.81,4.83l-1.05.28-.91-1.88ZM372.68,245.02l-1.64,5.03,1.87,3.71c.73,1.54,1.43,4.37.61,6.97.76-.55,1.46-1.27,2.15-2.29,2.67-3.99-.71-11.36-2.04-13.92l-.95.49Z"/><path class="bk" d="M360.58,180.88s1.48,14.58,2.9,30.18c1.01,11.15.72,22.39.39,29.93-.13,2.98-1.3,9.38-3.05,11.63-2.04,2.62-4.39,6.08-3.61,7.29,1.19,1.83,8.97-1.26,14.66-5.6,1.21-.92,2.18-2.18,2.86-3.64h0c.82-1.76,1.16-3.74,1-5.71-.48-5.72.42-20.72,4.01-33.64,4.76-17.13,4.24-30.18.38-36.31-3.86-6.14-19.54,5.88-19.54,5.88Z"/><path class="h" d="M357.89,261.54c-.94-.16-1.43-.64-1.67-1.01-.69-1.07-.8-2.93,3.67-8.65,1.48-1.89,2.67-7.85,2.8-10.95.51-11.59.38-21.33-.38-29.77-1.4-15.42-2.89-30.02-2.9-30.16l-.07-.65.52-.4c1.19-.91,11.77-8.85,17.91-7.76,1.46.26,2.58,1,3.33,2.19,4.39,6.98,4.3,20.9-.24,37.25-3.66,13.19-4.39,28.15-3.97,33.23.18,2.19-.2,4.37-1.1,6.3-.77,1.65-1.88,3.06-3.21,4.07-4.22,3.22-10.47,6.38-13.92,6.38-.27,0-.53-.02-.77-.06ZM361.81,181.41c.3,3.02,1.6,15.96,2.84,29.53.78,8.55.9,18.39.39,30.09-.13,2.89-1.26,9.68-3.3,12.3-3.13,4.01-3.48,5.53-3.51,5.91,1.3.42,7.43-1.67,12.93-5.87,1.03-.79,1.9-1.89,2.51-3.2.73-1.56,1.04-3.33.89-5.12-.5-6.04.43-21.04,4.05-34.05,4.31-15.49,4.5-29.04.52-35.38-.39-.63-.95-.98-1.76-1.13-.27-.05-.56-.07-.86-.07-4.29,0-11.53,4.66-14.7,7Z"/><path class="bi" d="M419.02,170.71h11.2s8.35-6.97,5.29-19.59c-3.07-12.62-21.31,8.52-21.31,8.52l4.83,11.07Z"/><path class="h" d="M412.82,159.44l.48-.56c1.28-1.48,12.69-14.41,19.34-12.8,2,.48,3.34,2.09,4,4.77,3.2,13.17-5.31,20.46-5.67,20.77l-.33.27h-12.39s-5.43-12.44-5.43-12.44ZM434.37,151.4c-.64-2.65-1.87-2.95-2.27-3.04-3.84-.92-11.96,6.35-16.53,11.5l4.23,9.68h9.98c1.43-1.36,7.16-7.62,4.6-18.14Z"/><path class="bi" d="M341.81,162.38l-3.44,14.91s52.23,28.26,93.23-18.44l-42.72-14.12-34.27,5.96-12.79,11.68Z"/><path class="h" d="M337.81,178.32l-.78-.42,3.72-16.13,13.31-12.16,34.61-6.02.29-.05,44.68,14.76-1.17,1.33c-18.75,21.35-39.95,27.19-57.53,27.19-21,0-36.84-8.33-37.13-8.49ZM388.78,145.94l-33.65,5.85-12.27,11.21-3.15,13.66c6.58,3.19,52.8,23.36,89.81-17.26l-40.75-13.46Z"/><path class="bk" d="M424.25,162.55s-9.06,5.71-25.33,0c-16.27-5.71,17.74-15.34,17.74-15.34l13.55,2.28v8.63s-5.97,4.43-5.97,4.43Z"/><path class="h" d="M398.54,163.65c-1.31-.46-5.28-1.85-5.19-4.85.18-5.96,19.19-11.65,23-12.72l.25-.07,14.79,2.48v10.21s-6.44,4.78-6.44,4.78l-.07.05c-.26.16-4.46,2.73-12.12,2.73-3.88,0-8.64-.66-14.22-2.62ZM429.05,157.53v-7.06s-12.32-2.07-12.32-2.07c-10.11,2.89-20.96,7.68-21.04,10.47-.02.8,1.33,1.76,3.62,2.57,15.01,5.27,23.7.47,24.29.13l5.45-4.05Z"/><path class="bk" d="M360.42,69.09s-3.57,13.78-3.92,22.41c0,.14-.14.24-.28.21-1.54-.34-9.51-1.85-18.21.84-6.85,2.12-18.55,1.56-18.55,1.56,0,0-4.02-3.75-5.86-4.07-1.71-.3-2.31,2.43-.14,5.01.17.21.02.51-.25.47l-7.73-1.21c-1.23-.19-2.44.45-2.97,1.58h0c-.49,1.05-.28,2.28.51,3.13,2.32,2.47,7.61,6.84,14.32,4.3l4.45-.61s19.25.95,36.17,1.38c2.06.05,4.1-.23,6.06-.85h0c1.15-.36,2.05-1.25,2.42-2.39,1.38-4.28,4.9-15.36,7.47-25.19,3.27-12.49-8.4-10.01-8.4-10.01l-5.09,3.44Z"/><path class="h" d="M357.93,105.26c-16.09-.4-34.5-1.29-36.09-1.37l-4.21.58c-7.44,2.74-13.29-2.33-15.46-4.64-1.13-1.21-1.42-2.94-.72-4.43.75-1.59,2.5-2.51,4.21-2.24l5.77.91c-.74-1.6-.66-3.08-.13-4.01.52-.91,1.44-1.34,2.5-1.16,1.86.32,4.98,3.02,6.14,4.07,2.13.07,11.87.28,17.73-1.53,7.68-2.37,14.83-1.57,17.72-1.08.57-8.64,3.76-21.01,3.9-21.56l.11-.43,5.46-3.69.41-.18c.23-.05,5.59-1.14,8.56,1.98,1.92,2.02,2.33,5.21,1.21,9.48-2.58,9.85-6.1,20.94-7.49,25.25-.48,1.5-1.67,2.68-3.18,3.15-1.92.6-3.91.91-5.93.91-.17,0-.34,0-.51,0ZM365.96,66.75l-4.52,3.05c-.6,2.38-3.47,14.17-3.77,21.73-.01.42-.21.8-.54,1.05-.33.25-.75.35-1.16.26-1.46-.32-9.18-1.79-17.61.82-6.97,2.15-18.47,1.64-18.95,1.62l-.43-.02-.32-.29c-1.81-1.69-4.34-3.61-5.3-3.79-.22.19-.34,1.54.99,3.12.4.48.46,1.13.16,1.67-.3.53-.88.82-1.48.72l-7.73-1.21c-.72-.11-1.43.27-1.73.92-.28.61-.17,1.33.31,1.83,2.32,2.47,7.09,6.27,13.05,4.01l4.81-.69h.11c.19.02,19.43.96,36.15,1.38,1.95.06,3.84-.22,5.68-.79.78-.24,1.4-.86,1.65-1.64,1.39-4.29,4.89-15.33,7.45-25.12.9-3.43.68-5.87-.64-7.27-1.15-1.21-2.99-1.48-4.4-1.48-.8,0-1.46.09-1.78.14Z"/><path class="bi" d="M367.17,27.71c-.56-.47-1.4-.05-1.35.67.2,3.17.05,9.28-3.75,11.97-5.24,3.71-11.51,13.42-5.75,26.02,5.75,12.6,12.06-10.63,12.06-10.63l7-21.14-8.2-6.89Z"/><path class="h" d="M355.25,66.85c-6.31-13.82,1.26-24,6.14-27.46,3.42-2.42,3.41-8.45,3.25-10.93-.05-.8.38-1.54,1.09-1.9.71-.36,1.57-.26,2.19.26l8.8,7.4-7.23,21.83c-.67,2.47-4.27,14.82-9.23,15.23-.09,0-.18.01-.27.01-1.81,0-3.41-1.49-4.75-4.43ZM367.02,29.12c.13,3.67-.36,9.41-4.28,12.19-4.33,3.07-11.04,12.15-5.37,24.57.92,2.01,1.9,3.11,2.7,3.06,2.44-.2,5.71-8.18,7.18-13.57l6.75-20.39-6.98-5.86Z"/><path class="h" d="M362.94,56.49s-8.24,8.53-2.45,17.74l4.2,1.02s2.62,32.3-6.25,43.99c-13.98,18.41-22.5,40.92-22.5,40.92,0,0,19.09,32.3,68.71,12.23,0,0,8.7-5.07,9.55-12.74.85-7.67,11.68-11.13,11.85-2.09l-1.79,4.99s9.04-.68,11.25-11.42c2.22-10.74-30.11-18.92-35-30.52-4.89-11.59,6.7-35.97,6.7-35.97l9.55-24.72-10.74-12.1-20.23-5.11-15.16,2.49-7.67,11.31Z"/><path class="h" d="M334.93,160.76l-.29-.48.2-.53c.08-.23,8.74-22.87,22.67-41.21,7.72-10.17,6.4-37.22,6.07-42.34l-3.83-.93-.25-.4c-5.89-9.36,1.65-18.14,2.52-19.09l7.91-11.66,15.9-2.61,20.82,5.26,11.45,12.91-9.84,25.47c-.11.24-11.31,24.03-6.68,35.01,2.1,4.98,10.03,9.51,17.7,13.89,9.64,5.5,18.74,10.7,17.37,17.32-2.37,11.47-12.21,12.35-12.31,12.35l-1.8.14,2.32-6.48c-.1-2.52-1.15-3.94-2.98-4.03-2.74-.12-6.1,2.6-6.53,6.43-.91,8.16-9.75,13.4-10.27,13.69-11.81,4.78-21.95,6.61-30.55,6.61-27.77,0-39.46-19.07-39.61-19.32ZM421.99,151.01c2.47.11,5.13,1.89,5.22,6.53v.21s-1.14,3.19-1.14,3.19c2.54-.85,6.88-3.26,8.28-10.05,1.02-4.95-7.75-9.97-16.24-14.81-8.01-4.57-16.29-9.3-18.69-15.01-5.04-11.94,6.24-35.92,6.69-36.85l9.29-24.05-10.03-11.3-19.65-4.97-14.43,2.37-7.39,10.9-.13.16c-.3.32-7.3,7.76-2.54,15.91l4.55,1.11.07.84c.11,1.34,2.56,32.89-6.48,44.79-12.51,16.48-20.72,36.52-22.13,40.07,2.59,3.82,22.1,29.43,66.81,11.35.08-.05,8.2-4.85,8.97-11.86.57-5.11,4.97-8.52,8.69-8.52.09,0,.18,0,.27,0Z"/><path class="bi" d="M364.31,73.76l1.79-.19c0-.06-.58-5.82.86-9.83l-1.7-.61c-1.59,4.41-.99,10.38-.96,10.63Z"/><path class="bi" d="M425.09,152.39l1.74-.48c-.07-.28-2-6.81-17.08-12.71-14.09-5.51-15.62-13.88-15.63-13.96l-1.78.28c.06.38,1.62,9.45,16.76,15.36,14.08,5.5,15.98,11.45,16,11.51Z"/><path class="bi" d="M399.22,171.86c1.05-1.13,1.6-3.59,1.47-6.58-.11-2.69-1.16-12.06-9.88-19.93-10.01-9.04-8.43-17.36-8.42-17.44l-1.76-.37c-.08.38-1.86,9.37,8.97,19.15,8.2,7.4,9.18,16.16,9.29,18.67.12,2.79-.41,4.66-.99,5.28l1.32,1.23Z"/><path class="bi" d="M432.74,153.72c.94-2.05,1-4.07.18-6-2.07-4.88-9.11-7.4-9.41-7.51l-.6,1.7c.06.02,6.59,2.37,8.35,6.51.62,1.46.57,2.95-.16,4.54l1.64.75Z"/><path class="bi" d="M382.27,104.99c.4,0,9.77-.05,17.13-4.74l-.97-1.52c-6.92,4.41-16.07,4.46-16.16,4.46v1.8Z"/><path class="bi" d="M364.63,175.09l.11-1.8c-11.69-.74-21.99-11.12-24.02-13.28l4.41-11.76-1.69-.63-4.79,12.78.35.41c.48.55,11.88,13.42,25.62,14.29Z"/><path class="h" d="M356.62,95.4l2.03-1.17c-1.31-2.26-2.6-3.91-2.65-3.98l-1.84,1.45s1.25,1.59,2.47,3.7Z"/><path class="h" d="M414.66,183.21l2.3-.42c-.02-.13-.57-3.09-1.41-4.91l-2.13.99c.72,1.55,1.23,4.32,1.23,4.34Z"/><path class="bi" d="M383.88,73.67c0,1.11-.9,2-2,2s-2-.9-2-2,.9-2,2-2,2,.9,2,2Z"/><circle class="bi" cx="387.76" cy="71.18" r="2"/><path class="bi" d="M362.72,123.33s2.41-11.45,2.61-12.39c.02-.1-.03-.19-.12-.24l-26.16-3.09s-.03-.02-.05-.03l.62-14.66c-.06-.05-.14-.07-.22-.05l-26.48,8.6c-.06.02-.12.01-.17-.01l-4.25-2.21c-.13-.07-.29,0-.32.15-.24,1.16-2.51,12.03-2.53,12.16v.04c-.08.77.16,1.59.82,2.18l20.92,18.81c1.78,1.6,4.28,2.13,6.56,1.39l27.07-8.79c.91-.3,1.49-1.02,1.69-1.83v-.04Z"/><path class="h" d="M326.6,133.48l-20.92-18.81c-.89-.8-1.33-1.96-1.2-3.22.01-.1.02-.15,1.94-9.38l.6-2.89c.09-.43.37-.78.76-.97.39-.19.85-.18,1.25.02l3.9,2.02,26.11-8.48c.47-.15.99-.04,1.35.28l.42.37-.6,14.16,25.12,2.96.39.12c.56.29.86.91.73,1.52-.02.12-2.59,12.35-2.61,12.42l-.02.05c-.32,1.26-1.24,2.25-2.47,2.65l-27.07,8.79c-.8.26-1.62.39-2.44.39-1.92,0-3.81-.7-5.27-2.02ZM363.96,111.74l-25.28-2.98-.87-.68.57-13.63-25.1,8.15-.64.14-3.58-1.86-.35,1.67c-.69,3.33-1.86,8.91-1.91,9.19-.03.27,0,.79.44,1.19l20.92,18.81c1.46,1.32,3.54,1.76,5.41,1.14l27.06-8.79c.64-.21.86-.75.94-1.04.13-.62,1.76-8.38,2.38-11.3Z"/><path class="h" d="M365.21,110.72l-26.16-3.09s-.03-.02-.05-.03l-4.84,8.12-3.87,18.42c1.19.29,2.45.26,3.65-.14l27.07-8.79c.91-.3,1.49-1.02,1.69-1.83v-.04s2.42-11.45,2.62-12.39c.02-.1-.03-.19-.12-.24Z"/><path class="h" d="M330.02,135.28l-1.11-.27,4.11-19.54,5.7-9.68.82.72,25.81,3.04.39.12c.56.29.86.91.73,1.52-.02.12-2.6,12.35-2.63,12.47-.32,1.26-1.24,2.25-2.46,2.66l-27.06,8.79c-.78.26-1.6.39-2.42.39-.62,0-1.25-.07-1.87-.22ZM339.6,108.88l-4.33,7.27-3.58,17.01c.64.02,1.28-.07,1.88-.27l27.06-8.79c.66-.22.87-.77.93-1.01.04-.19,1.75-8.33,2.39-11.34l-24.36-2.87Z"/><path class="h" d="M311.2,103.22s.55-.88,1.25-2.02l-3.93-2.04c-.13-.07-.29,0-.32.15-.24,1.16-2.51,12.03-2.53,12.16v.04c-.08.77.16,1.59.82,2.18l2.11,1.9,1.38-6.56,1.22-5.8Z"/><path class="h" d="M305.71,114.55c-.89-.8-1.33-1.96-1.2-3.22.01-.1.02-.15,1.94-9.38l.6-2.89c.09-.43.37-.78.76-.97.39-.19.86-.18,1.24.02l5.05,2.62-.66,1.07c-.52.84-.95,1.54-1.15,1.85l-2.98,14.15-3.62-3.26ZM309.09,100.77l-.35,1.67c-.69,3.33-1.86,8.91-1.91,9.19-.03.27,0,.78.44,1.19l.6.54,2.18-10.38.15-.38s.23-.37.59-.94l-1.7-.88Z"/><path class="bk" d="M330.08,120.33l-21.01-18.89c-1.48-1.33-.96-3.76.93-4.39l27.19-8.83c2.2-.72,4.62-.21,6.34,1.34l21.01,18.89c1.48,1.33.96,3.76-.93,4.39l-27.19,8.83c-2.2.72-4.62.21-6.34-1.34Z"/><path class="h" d="M329.3,121.2l-21.02-18.89c-1.01-.91-1.44-2.24-1.16-3.57.28-1.33,1.22-2.37,2.51-2.8l27.19-8.83c2.6-.85,5.46-.24,7.49,1.58l21.02,18.89c1.01.91,1.44,2.24,1.16,3.57-.28,1.33-1.22,2.37-2.51,2.8l-27.19,8.83c-.78.25-1.58.38-2.37.38-1.86,0-3.7-.68-5.12-1.96ZM337.55,89.33l-27.19,8.83c-.7.23-.9.81-.95,1.06-.05.24-.11.85.44,1.35l21.01,18.89h0c1.41,1.27,3.4,1.69,5.19,1.1l27.19-8.83c.7-.23.9-.81.94-1.05.05-.24.11-.85-.44-1.35l-21.02-18.89c-.98-.89-2.25-1.36-3.55-1.36-.55,0-1.11.09-1.65.26Z"/><polygon class="bk" points="307.8 88.83 321.88 101.41 339.69 95.76 325.79 83.09 307.8 88.83"/><path class="h" d="M305.49,88.33l20.59-6.57,15.9,14.5-20.39,6.46-16.1-14.39ZM325.5,84.41l-15.4,4.91,12.05,10.77,15.24-4.83-11.9-10.85Z"/><path class="bk" d="M386.57,46.1c-5.8,4.09-10.7,3.71-10.7,3.71-10.06-12.45-4.64-27.06-4.64-27.06,0,0,14.28-5.46,21.27,2.39l8,5.5s-7.96,15.3-1.14,20.59c6.82,5.29-19.09,18.24-21.31,18.24s-3.92-10.57.68-19.44l7.84-3.92Z"/><path class="h" d="M376.03,69.28c-1.81-2.99-2.2-11.12.96-18.32-.72.05-1.15.02-1.21.01l-.5-.04-.32-.39c-10.36-12.82-5.06-27.58-4.83-28.21l.18-.5.49-.19c.61-.23,14.99-5.6,22.46,2.59l8.74,6.01-.48.92c-2.09,4.02-6.42,15.28-1.46,19.12,1.46,1.13,1.94,2.72,1.34,4.47-2.3,6.73-21.27,15.87-23.37,15.87-.55,0-1.34-.24-2.02-1.35ZM391.83,26.1l-.21-.19c-5.66-6.34-16.92-3.09-19.46-2.25-.78,2.59-3.78,14.59,4.28,24.98,1.31-.04,5.13-.44,9.46-3.5l1.35,1.91c-2.84,2.01-5.49,3-7.53,3.48l.05.02c-4.21,8.11-2.7,16.57-1.61,17.7,2.66-.58,19.64-9.24,21.09-14.41.2-.72.03-1.22-.61-1.71-6.55-5.07-1.31-17.57.36-21.12l-7.17-4.93Z"/><path class="bk" d="M407.32,77.59s1.04,14.2,3.48,22.48c.04.14-.05.27-.19.29-1.56.17-9.6,1.3-16.98,6.64-5.81,4.2-21.77,8.69-21.77,8.69,0,0-5.01-2.26-6.86-1.97-1.72.27-1.41,3.04,1.47,4.79.23.14.18.48-.08.53l-7.71,1.33c-1.23.21-2.17,1.21-2.31,2.45h0c-.13,1.15.46,2.25,1.49,2.8,2.99,1.59,9.41,4.04,14.94-.52l4.01-2.01s23.24-6.53,39.41-11.56c1.96-.61,3.81-1.53,5.47-2.75h0c.97-.71,1.54-1.84,1.52-3.04-.06-4.5-.29-16.12-1-26.25-.91-12.88-11.17-6.79-11.17-6.79l-3.72,4.9Z"/><path class="h" d="M357.31,126.65c-1.46-.78-2.28-2.33-2.1-3.96.2-1.74,1.54-3.17,3.27-3.47l5.76-.99c-1.11-1.16-1.65-2.54-1.41-3.75.2-1.03.95-1.74,1.99-1.9,1.86-.29,5.7,1.27,7.13,1.88,2.5-.72,15.93-4.73,21-8.4,6.52-4.71,13.54-6.25,16.44-6.71-2.23-8.37-3.19-21.11-3.23-21.67l-.03-.44,3.99-5.25.33-.3c.2-.12,4.93-2.88,8.75-.88,2.47,1.29,3.88,4.18,4.19,8.59.71,10.12.94,21.78,1.01,26.32.02,1.58-.73,3.08-2.01,4-1.76,1.29-3.72,2.27-5.81,2.92-15.44,4.8-37.59,11.05-39.33,11.54l-3.8,1.9c-2.58,2.09-5.34,2.79-7.88,2.79-3.53,0-6.63-1.35-8.26-2.22ZM411.82,73.6l-3.3,4.34c.2,2.45,1.26,14.54,3.4,21.8.12.4.05.82-.18,1.17-.23.34-.6.57-1.01.61-1.49.17-9.28,1.25-16.42,6.42-5.91,4.28-21.48,8.68-22.14,8.87l-.41.12-.39-.18c-2.26-1.02-5.26-2.03-6.24-1.89-.15.25.17,1.57,1.94,2.64.53.32.8.92.69,1.53-.11.6-.57,1.05-1.18,1.16l-7.71,1.33c-.71.12-1.26.71-1.34,1.43-.08.67.27,1.31.87,1.64,2.98,1.59,8.73,3.66,13.65-.39l4.23-2.15.21-.08c.23-.07,23.41-6.59,39.38-11.55,1.84-.57,3.57-1.44,5.12-2.57.66-.48,1.05-1.26,1.04-2.08-.07-4.52-.29-16.12-1-26.19-.25-3.54-1.24-5.78-2.93-6.68-.64-.34-1.35-.47-2.05-.47-1.84,0-3.66.87-4.23,1.18Z"/><path class="h" d="M405.24,67.64s-1.01,3.44,1.15,14.49c.14.72.76,1.26,1.49,1.28,3.55.1,13.49.03,14.33-3.92,1.02-4.81-3.8-20.08-8.75-20.53-7.88-.72-8.23,8.68-8.23,8.68Z"/><path class="h" d="M407.85,84.58c-1.27-.04-2.36-.97-2.61-2.22-1.98-10.14-1.36-14.04-1.17-14.89.05-.84.47-5.28,3.41-7.86,1.61-1.42,3.66-2.02,6.09-1.8,1.48.13,2.94,1.17,4.34,3.07,3.43,4.65,6.33,14.7,5.44,18.87-.84,3.94-7.52,4.87-13.66,4.87-.62,0-1.24,0-1.85-.03ZM409.04,61.35c-2.43,2.13-2.63,6.29-2.63,6.34l-.04.27s-.87,3.5,1.17,13.95c.04.19.2.33.38.33,7.45.21,12.72-.99,13.15-2.99.69-3.26-1.79-12.6-5.04-16.99-.96-1.3-1.91-2.06-2.67-2.13-.26-.02-.5-.04-.74-.04-1.44,0-2.61.42-3.57,1.26Z"/><path class="bi" d="M405.16,80.4l1.75-.41c-.02-.11-2.49-10.85.74-17.38.03-.07,1.07-2.41,3.18-2.56l-.13-1.8c-3.22.23-4.63,3.47-4.69,3.6-3.49,7.07-.96,18.08-.85,18.54Z"/><path class="bi" d="M372.86,45.37s.59,5.85-2.99,8.75c-2.14,1.73-3.28,4.79-3.85,6.98-.21.82-1.35.9-1.68.12-1.71-4.09-3.06-10.23,1.16-16.48,5.18-7.67.96-14.83.96-14.83-4.94-15.26,8.87-18.41,8.87-18.41,0,0,9.38-9.38,20.46,1.19,11.08,10.57,18.41,15.34,26.77,12.28,8.35-3.07,18.04,3.74,15.34,12.45-1.98,6.41-9.16,4.08-9.54.58-.06-.56.49-.96,1.02-.78.8.28,2.07.3,3.4-1.34,2.22-2.73-6.09-6.33-9.16-.55-3.07,5.77,1.83,11.98,8.82,13,4.13.6,6.6-1.41,7.92-3.16.45-.6,1.4-.24,1.36.51-.21,3.48-1.68,9.01-8.77,9.47-10.4.68-15.86-9.06-15.86-9.06,0,0-2.81,4.88,1.28,9.82,4.7,5.68-1.45,14.07-7.59,8.78,0,0,6.11-2.96.17-8.7-4.94-4.77-7.33,2.22-7.33,2.22,0,0-6.94-1.02-6.88-9.72,0,0-6.14-2.84-4.18-8.99,1.77-5.58-2.76-5.86-2.76-5.86-.41,1.39-1.91,2.11-3.27,1.6-2.21-.82-5.21-2.68-6.43-6.87l-8.35-3.14c-.64-.24-1.37.07-1.6.71-.98,2.74-1.68,7.79-.36,11.72,1.53,4.57,3.07,7.7,3.07,7.7Z"/><path class="h" d="M410.02,65.58l-1.35-1.16,1.6-.78s1.82-.92,2.07-2.52c.25-1.54-1.06-3.17-2.21-4.28-1.09-1.05-2.04-1.49-2.85-1.29-1.34.32-2.3,2.31-2.56,3.05l-.32.92-.96-.14c-.08-.01-7.55-1.22-7.87-10.16-2.45-1.42-5.77-4.9-4.14-10.06.33-1.05.6-2.49-.01-3.39-.27-.39-.65-.63-1-.76-.34.51-.81.92-1.38,1.2-.91.45-1.98.51-2.94.15-2.41-.89-5.52-2.84-6.97-7.07l-7.9-2.93c-.84,2.33-1.62,7.18-.36,10.96,1.49,4.43,3,7.53,3.01,7.56l.11.4c.03.26.61,6.52-3.42,9.78-1.88,1.52-2.91,4.3-3.46,6.37-.23.87-.96,1.47-1.85,1.53-.87.05-1.69-.43-2.04-1.25-2.69-6.43-2.27-12.35,1.27-17.59,4.68-6.94,1.07-13.32.92-13.58l-.11-.23c-1.67-5.15-1.49-9.58.55-13.16,2.65-4.66,7.56-6.31,8.86-6.67,1.65-1.45,11.11-8.84,21.84,1.41,10.51,10.03,17.7,14.91,25.56,12.02,4.79-1.76,10.26-.65,13.92,2.82,3.13,2.97,4.2,7,2.95,11.07-1.21,3.91-4.17,5.07-6.55,4.83-2.75-.26-5.02-2.18-5.27-4.46-.07-.65.19-1.29.71-1.7.53-.42,1.23-.54,1.87-.31.25.09,1.03.36,2.11-.97.14-.17.12-.25.07-.36-.25-.54-1.46-1.32-3.09-1.37-1.06-.03-3.02.24-4.19,2.46-1.32,2.48-.76,4.65-.06,6.03,1.38,2.73,4.45,4.74,8.02,5.26,2.85.42,5.14-.5,6.82-2.71.52-.68,1.41-.94,2.2-.64.81.3,1.31,1.08,1.25,1.93-.39,6.33-3.98,10.19-9.86,10.57-8.04.54-13.27-4.66-15.58-7.64-.3,1.62-.2,4.04,1.83,6.5,3.06,3.7,2.15,8.22-.27,10.6-1.03,1.01-2.52,1.78-4.26,1.78-1.46,0-3.08-.55-4.73-1.97ZM418.11,45.51c.05.09,5.24,9.07,14.76,8.46,5.25-.34,7.04-3.8,7.54-7.09-2.11,2.14-4.95,3.06-8.14,2.59-4.31-.63-8.05-3.13-9.77-6.52-1.34-2.65-1.31-5.56.09-8.19,1.29-2.43,3.63-3.77,6.33-3.7,2.33.07,4.45,1.19,5.15,2.73.43.95.3,1.98-.38,2.81-1.45,1.78-2.92,2.02-3.97,1.88.47.89,1.67,1.64,2.96,1.76.92.09,3.12-.05,4.09-3.19.99-3.18.14-6.34-2.32-8.68-2.98-2.83-7.6-3.76-11.5-2.32-9.01,3.31-16.78-1.85-27.98-12.53-10.09-9.62-18.47-1.56-18.83-1.21l-.24.24-.33.07c-.05.01-5.15,1.22-7.65,5.62-1.68,2.96-1.81,6.72-.39,11.18.09.17.27.5.47.98.18-1.83.56-3.53,1.04-4.86.21-.6.65-1.07,1.23-1.34.59-.27,1.27-.3,1.88-.07l8.89,3.35.17.56c1.08,3.69,3.7,5.35,5.72,6.1.36.13.74.12,1.08-.05.32-.16.56-.44.66-.79l.27-.89.93.06c.09,0,2.26.16,3.49,1.94.93,1.35,1.04,3.18.32,5.44-1.61,5.08,3.35,7.48,3.56,7.58l.69.32v.75c-.05,5.84,3.38,7.74,5.02,8.32.59-1.2,1.81-3.08,3.8-3.56,1.62-.39,3.32.24,5.03,1.89,2.24,2.17,3.22,4.3,2.89,6.33-.23,1.43-1.06,2.49-1.84,3.19,1.64.85,3.27.66,4.54-.59,1.67-1.64,2.28-4.81.11-7.43-4.56-5.51-1.52-10.93-1.39-11.16l1.03-1.78,1.01,1.8ZM369.05,39.12c-.34,1.96-1.11,4.1-2.58,6.27-2.93,4.34-3.39,9.25-1.36,14.6.69-2.29,1.91-5.08,4.02-6.79,2.7-2.19,2.63-6.57,2.58-7.53-.34-.71-1.46-3.14-2.66-6.55Z"/><path class="h" d="M399.55,47.01c.3-.19,7.38-4.79,5.74-14.65-1.67-10-9.94-10.69-10.02-10.69l-.16,2.34.08-1.17-.09,1.17c.27.02,6.53.61,7.88,8.74,1.39,8.34-4.62,12.25-4.68,12.28l1.25,1.98Z"/><path class="h" d="M410.49,51.96l1.57-1.73c-4.85-4.4-1.56-13.33-1.53-13.42l-2.19-.83c-.16.43-3.87,10.53,2.15,15.98Z"/><path class="h" d="M377.03,20.1l2.34-.16s-.24-4.22,2.81-6.68c3.31-2.68,8-3.39,9.69-2.19l1.35-1.91c-2.75-1.95-8.6-.88-12.52,2.29-4.01,3.25-3.69,8.45-3.67,8.67Z"/><path class="h" d="M411.54,103.92l2.03-1.17c-1.31-2.26-2.6-3.91-2.65-3.98l-1.84,1.45s1.25,1.59,2.47,3.7Z"/><path class="h" d="M388.2,27.06c.02-.1.64-2.51,3.88-3.07l-.4-2.31c-4.83.84-5.72,4.71-5.76,4.87l2.29.5-1.14-.25,1.14.26Z"/><path class="h" d="M371.73,26.15l2.32-.29s-.39-3.3.87-6.24l-2.15-.92c-1.52,3.54-1.07,7.29-1.05,7.45Z"/><path class="h" d="M375.8,42.49c.54,0,1.32-.13,2.33-.64l-.81-1.61c-.55.28-.97.39-1.26.43l-.55-3.2-1.78.31.76,4.39.46.19c.09.04.38.14.85.14Z"/><path class="h" d="M376.83,45.84c2.05,0,3.25-1.47,3.31-1.54l-1.41-1.12.7.56-.7-.57s-.98,1.14-2.52.8l-.4,1.76c.36.08.7.12,1.02.12Z"/><path class="h" d="M376.9,35.65c.11,1.1.78,1.94,1.49,1.87.71-.07,1.19-1.03,1.08-2.13-.11-1.1-.78-1.94-1.49-1.87-.71.07-1.19,1.03-1.08,2.13Z"/><path class="h" d="M370.24,36.52c.11,1.1.78,1.94,1.49,1.87s1.19-1.03,1.08-2.13-.78-1.94-1.49-1.87c-.71.07-1.19,1.03-1.08,2.13Z"/><rect class="bi" x="347.61" y="125.65" width="7" height="1.8" transform="translate(-22.1 124.43) rotate(-19.49)"/></svg>