<?xml version="1.0" encoding="UTF-8" standalone="no"?>
<svg
   id="Layer_1"
   viewBox="0 0 1030 280"
   version="1.1"
   xmlns="http://www.w3.org/2000/svg"
   xmlns:svg="http://www.w3.org/2000/svg">
  <defs
     id="defs16">
    <style
       id="style1">&#10;      .cls-1 {&#10;        fill: url(#New_Gradient_Swatch_4);&#10;      }&#10;&#10;      .cls-1, .cls-2, .cls-3, .cls-4, .cls-5, .cls-6 {&#10;        stroke-width: 0px;&#10;      }&#10;&#10;      .cls-2 {&#10;        fill: url(#New_Gradient_Swatch_1);&#10;      }&#10;&#10;      .cls-7 {&#10;        letter-spacing: 0em;&#10;      }&#10;&#10;      .cls-8 {&#10;        letter-spacing: 0em;&#10;      }&#10;&#10;      .cls-9 {&#10;        letter-spacing: 0em;&#10;      }&#10;&#10;      .cls-10 {&#10;        letter-spacing: 0em;&#10;      }&#10;&#10;      .cls-11 {&#10;        letter-spacing: 0em;&#10;      }&#10;&#10;      .cls-12 {&#10;        letter-spacing: 0em;&#10;      }&#10;&#10;      .cls-13 {&#10;        letter-spacing: .02em;&#10;      }&#10;&#10;      .cls-14 {&#10;        letter-spacing: 0em;&#10;      }&#10;&#10;      .cls-15 {&#10;        letter-spacing: 0em;&#10;      }&#10;&#10;      .cls-16 {&#10;        letter-spacing: 0em;&#10;      }&#10;&#10;      .cls-17 {&#10;        letter-spacing: 0em;&#10;      }&#10;&#10;      .cls-18 {&#10;        font-family: AcuminConcept-Cond, 'Acumin Variable Concept';&#10;        font-size: 44px;&#10;        font-variation-settings: 'wght' 400, 'wdth' 67, 'slnt' 0;&#10;      }&#10;&#10;      .cls-18 {&#10;        fill: #fff;&#10;      }&#10;      .cls-5 {&#10;        fill: #004029;&#10;      }&#10;&#10;      .cls-19 {&#10;        letter-spacing: 0em;&#10;      }&#10;&#10;      .cls-3 {&#10;        fill: #4ab969;&#10;      }&#10;&#10;      .cls-4 {&#10;        fill: #ffcb05;&#10;      }&#10;&#10;      .cls-6 {&#10;        fill: #004029;&#10;      }&#10;&#10;      .cls-20 {&#10;        letter-spacing: 0em;&#10;      }&#10;&#10;      .cls-21 {&#10;        letter-spacing: 0em;&#10;      }&#10;&#10;      .cls-22 {&#10;        letter-spacing: 0em;&#10;      }&#10;    </style>
    <radialGradient
       id="New_Gradient_Swatch_1"
       data-name="New Gradient Swatch 1"
       cx="139.54"
       cy="140"
       fx="139.54"
       fy="140"
       r="110.98"
       gradientUnits="userSpaceOnUse">
      <stop
         offset="0"
         stop-color="#fff"
         id="stop1" />
      <stop
         offset=".3"
         stop-color="#fcfefe"
         id="stop2" />
      <stop
         offset=".49"
         stop-color="#f3fafb"
         id="stop3" />
      <stop
         offset=".65"
         stop-color="#e5f5f7"
         id="stop4" />
      <stop
         offset=".78"
         stop-color="#d0edf1"
         id="stop5" />
      <stop
         offset=".91"
         stop-color="#b6e3ea"
         id="stop6" />
      <stop
         offset=".99"
         stop-color="#a1dbe4"
         id="stop7" />
    </radialGradient>
    <radialGradient
       id="New_Gradient_Swatch_4"
       data-name="New Gradient Swatch 4"
       cx="259.49"
       cy="160.34"
       fx="259.49"
       fy="160.34"
       r="122.83"
       gradientUnits="userSpaceOnUse">
      <stop
         offset="0"
         stop-color="#fff"
         id="stop8" />
      <stop
         offset="0"
         stop-color="#fcfefe"
         id="stop9" />
      <stop
         offset="0"
         stop-color="#f3fafc"
         id="stop10" />
      <stop
         offset="0"
         stop-color="#e5f5f8"
         id="stop11" />
      <stop
         offset="0"
         stop-color="#d0eef4"
         id="stop12" />
      <stop
         offset="0"
         stop-color="#b6e4ed"
         id="stop13" />
      <stop
         offset="0"
         stop-color="#96d8e6"
         id="stop14" />
      <stop
         offset="0"
         stop-color="#84d2e2"
         id="stop15" />
      <stop
         offset=".99"
         stop-color="#009ec9"
         id="stop16" />
    </radialGradient>
  </defs>
  <rect
     class="cls-4"
     x="529.36"
     y="80.57"
     width="8.1"
     height="131.86"
     id="rect16" />
  <g
     id="g42">
    <path
       class="cls-5"
       d="m298.68,110.73l-4.88-29.47h7.13c.63,5.48,1.58,14.98,1.91,20.25h.17c.82-5.76,2.15-14.04,3.08-20.25h5.72c.83,5.39,2.17,14.15,2.91,20.03h.21c.47-5.79,1.6-15.52,2.07-20.03h6.59l-5.26,29.47h-6.81c-.86-5.18-2.1-11.71-2.83-17.61h-.18c-.73,5.81-2.11,12.55-2.97,17.61h-6.87Z"
       id="path16" />
    <path
       class="cls-5"
       d="m342.12,99.01c0,9.1-3.57,12.14-9.17,12.14s-8.96-2.97-8.96-12.03,3.94-11.73,9.19-11.73,8.94,3.33,8.94,11.61Zm-11.38.07c0,4.94.47,6.91,2.38,6.91,1.81,0,2.24-2.01,2.24-6.9s-.51-6.51-2.28-6.51-2.34,1.59-2.34,6.5Z"
       id="path17" />
    <path
       class="cls-5"
       d="m345.3,94.88c0-4.5-.02-6.12-.06-7.1h6.33c.09.38.19,1.5.19,2.11,1.12-1.59,2.7-2.48,4.93-2.48,2.64,0,3.95,1.21,4.6,2.8.98-1.4,2.61-2.8,5.57-2.8,3.59,0,5.79,2.19,5.79,6.91v16.42h-6.54v-15.63c0-1.4-.43-2.41-1.77-2.41-1.53,0-2.05,1.11-2.05,3.35v14.69h-6.58v-15.59c0-1.66-.59-2.42-1.78-2.42-1.5,0-2.05.99-2.05,3.39v14.62h-6.58v-15.85Z"
       id="path18" />
    <path
       class="cls-5"
       d="m382.43,100.85c0,2.99.29,5.28,2.37,5.28,1.86,0,2.14-1.54,2.21-2.58h6.38c-.16,1.54-.84,7.6-8.72,7.6s-8.88-5.83-8.88-12.06c0-7.74,3.1-11.69,9.01-11.69,6.78,0,8.73,4.59,8.73,10.94,0,.78-.03,2.04-.06,2.51h-11.04Zm4.53-4.23c0-2.23-.1-4.31-2.18-4.31s-2.3,2.19-2.3,4.31h4.48Z"
       id="path19" />
    <path
       class="cls-5"
       d="m396.64,94.99c0-4.73,0-6.02-.04-7.21h6.41c.09.49.17,1.45.19,2.1.72-1.13,2.21-2.51,4.99-2.51,3.89,0,5.79,2.47,5.79,6.85v16.51h-6.67v-15.26c0-1.77-.32-2.78-1.9-2.78-1.42,0-2.1.78-2.1,3.32v14.72h-6.67v-15.75Z"
       id="path20" />
    <path
       class="cls-5"
       d="m425.32,87.78h6.67v22.95h-6.67v-22.95Zm.03-7.91h6.67v5.4h-6.67v-5.4Z"
       id="path21" />
    <path
       class="cls-5"
       d="m435.97,94.99c0-4.73,0-6.02-.04-7.21h6.41c.09.49.17,1.45.19,2.1.72-1.13,2.21-2.51,4.99-2.51,3.89,0,5.79,2.47,5.79,6.85v16.51h-6.67v-15.26c0-1.77-.32-2.78-1.9-2.78-1.42,0-2.1.78-2.1,3.32v14.72h-6.67v-15.75Z"
       id="path22" />
    <path
       class="cls-5"
       d="m295.61,130.64h8.42c7.69,0,10.83,4.37,10.83,14.17,0,10.44-3.1,15.3-11.07,15.3h-8.18v-29.47Zm6.8,24.33h1.26c3.15,0,4.07-2.22,4.07-10.26,0-6.73-.83-8.86-4.03-8.86h-1.3v19.12Z"
       id="path23" />
    <path
       class="cls-5"
       d="m334.29,154.46c0,1.57.1,4.5.17,5.66h-6.02c-.13-.5-.25-1.41-.26-1.99-1.12,1.54-2.71,2.38-5.12,2.38-4.07,0-6.1-3.14-6.1-7.07,0-5.02,3.38-7.54,8.96-7.54.67,0,1.36,0,1.82.03v-2.23c0-1.24-.18-2.28-1.81-2.28-1.52,0-1.78.96-1.87,2.6h-6.26c.09-4.05,2.06-7.23,8.39-7.23,5.34,0,8.1,2.15,8.1,6.88v10.79Zm-6.47-4.32c-.4-.06-.79-.06-1.26-.06-2.31,0-3.04,1.22-3.04,2.78,0,1.33.55,2.46,1.99,2.46,1.96,0,2.31-1.52,2.31-4.1v-1.09Z"
       id="path24" />
    <path
       class="cls-5"
       d="m336.23,137.16h2.74v-5.42h6.59v5.42h3.16v5.27h-3.16v10.98c0,1.22.28,1.83,1.74,1.83.42,0,.68,0,1.07-.07v4.77c-1.16.44-2.81.48-3.71.48-4.32,0-5.75-1.64-5.75-5.86v-12.13h-2.68v-5.27Z"
       id="path25" />
    <path
       class="cls-5"
       d="m367.8,154.46c0,1.57.1,4.5.17,5.66h-6.02c-.13-.5-.25-1.41-.26-1.99-1.12,1.54-2.71,2.38-5.12,2.38-4.07,0-6.1-3.14-6.1-7.07,0-5.02,3.38-7.54,8.96-7.54.67,0,1.36,0,1.82.03v-2.23c0-1.24-.18-2.28-1.81-2.28-1.52,0-1.78.96-1.87,2.6h-6.26c.09-4.05,2.06-7.23,8.39-7.23,5.34,0,8.1,2.15,8.1,6.88v10.79Zm-6.47-4.32c-.4-.06-.79-.06-1.26-.06-2.31,0-3.04,1.22-3.04,2.78,0,1.33.55,2.46,1.99,2.46,1.96,0,2.31-1.52,2.31-4.1v-1.09Z"
       id="path26" />
    <path
       class="cls-5"
       d="m384.8,151.58c.17,2.42.86,4.09,2.88,4.09s2.6-1.32,2.6-3c0-2.04-1.03-3.24-4.49-5.01-5.12-2.64-7.05-4.87-7.05-9.2,0-5.04,3.08-8.35,8.92-8.35,6.87,0,8.83,4.29,8.89,8.82h-6.52c-.11-2.05-.49-3.82-2.41-3.82-1.51,0-2.18.98-2.18,2.62s.66,2.56,3.86,4.16c5.46,2.75,7.78,5.08,7.78,10.03s-2.85,8.75-9.46,8.75c-7.17,0-9.35-4.08-9.5-9.09h6.68Z"
       id="path27" />
    <path
       class="cls-5"
       d="m416.77,151.95c-.09,3.25-1.23,8.55-8.61,8.55s-8.63-5.15-8.63-12.03,2.53-11.72,9-11.72c7.55,0,8.22,5.91,8.25,8.34h-6.53c-.03-1.72-.13-3.36-1.8-3.36s-2.17,1.68-2.17,6.72.46,7.03,2.12,7.03,1.92-1.67,2.03-3.53h6.33Z"
       id="path28" />
    <path
       class="cls-5"
       d="m419.64,137.16h6.67v22.95h-6.67v-22.95Zm.03-7.91h6.67v5.4h-6.67v-5.4Z"
       id="path29" />
    <path
       class="cls-5"
       d="m436.16,150.23c0,2.99.29,5.28,2.37,5.28,1.86,0,2.14-1.54,2.21-2.58h6.38c-.16,1.54-.84,7.6-8.72,7.6s-8.88-5.83-8.88-12.06c0-7.74,3.1-11.69,9.01-11.69,6.78,0,8.73,4.59,8.73,10.94,0,.78-.03,2.04-.06,2.51h-11.04Zm4.53-4.23c0-2.23-.1-4.31-2.18-4.31s-2.3,2.19-2.3,4.31h4.48Z"
       id="path30" />
    <path
       class="cls-5"
       d="m450.37,144.37c0-4.73,0-6.02-.04-7.21h6.41c.09.49.17,1.45.19,2.1.72-1.13,2.21-2.51,4.99-2.51,3.89,0,5.79,2.47,5.79,6.85v16.51h-6.67v-15.26c0-1.77-.32-2.78-1.9-2.78-1.42,0-2.1.78-2.1,3.32v14.72h-6.67v-15.75Z"
       id="path31" />
    <path
       class="cls-5"
       d="m488.08,151.95c-.09,3.25-1.23,8.55-8.61,8.55s-8.63-5.15-8.63-12.03,2.53-11.72,9-11.72c7.55,0,8.22,5.91,8.25,8.34h-6.53c-.03-1.72-.13-3.36-1.8-3.36s-2.17,1.68-2.17,6.72.46,7.03,2.12,7.03,1.92-1.67,2.03-3.53h6.33Z"
       id="path32" />
    <path
       class="cls-5"
       d="m497.08,150.23c0,2.99.29,5.28,2.37,5.28,1.86,0,2.14-1.54,2.21-2.58h6.38c-.16,1.54-.84,7.6-8.72,7.6s-8.88-5.83-8.88-12.06c0-7.74,3.1-11.69,9.01-11.69,6.78,0,8.73,4.59,8.73,10.94,0,.78-.03,2.04-.06,2.51h-11.04Zm4.53-4.23c0-2.23-.1-4.31-2.18-4.31s-2.3,2.19-2.3,4.31h4.48Z"
       id="path33" />
    <path
       class="cls-5"
       d="m298.68,209.49l-4.88-29.47h7.13c.63,5.48,1.58,14.98,1.91,20.24h.17c.82-5.76,2.15-14.04,3.08-20.24h5.72c.83,5.39,2.17,14.15,2.91,20.03h.21c.47-5.79,1.6-15.52,2.07-20.03h6.59l-5.26,29.47h-6.81c-.86-5.18-2.1-11.71-2.83-17.61h-.18c-.73,5.81-2.11,12.55-2.97,17.61h-6.87Z"
       id="path34" />
    <path
       class="cls-5"
       d="m342.12,197.77c0,9.1-3.57,12.14-9.17,12.14s-8.96-2.97-8.96-12.03,3.94-11.73,9.19-11.73,8.94,3.33,8.94,11.61Zm-11.38.07c0,4.93.47,6.91,2.38,6.91,1.81,0,2.24-2.01,2.24-6.9s-.51-6.51-2.28-6.51-2.34,1.59-2.34,6.5Z"
       id="path35" />
    <path
       class="cls-5"
       d="m345.27,194.34c0-3.89-.02-6.25-.06-7.8h6.38c.06.52.15,1.68.15,3.73.78-2.5,2.78-4.12,5.83-4.1v7.21c-3.91-.08-5.62.92-5.62,4.99v11.13h-6.67v-15.15Z"
       id="path36" />
    <path
       class="cls-5"
       d="m360.2,209.49v-30.86h6.67v30.86h-6.67Z"
       id="path37" />
    <path
       class="cls-5"
       d="m388.02,178.63v24.03c0,3.13.03,5.63.07,6.83h-6.41c-.1-.6-.17-1.64-.19-2.25-.84,1.7-2.31,2.65-4.96,2.65-4.4,0-6.54-3.63-6.54-12.1,0-7.65,2.5-11.63,7.39-11.63,2.26,0,3.49.81,3.96,1.64v-9.17h6.67Zm-11.23,19.26c0,5.13.61,6.75,2.3,6.75,1.98,0,2.38-1.52,2.38-6.91,0-4.93-.26-6.28-2.21-6.28-1.56,0-2.47,1.1-2.47,6.44Z"
       id="path38" />
    <path
       class="cls-5"
       d="m397.3,186.54c1.11,8.1,1.65,13.49,1.88,15.97h.16c.33-3.15,1.14-7.77,2.47-15.97h6.1c1.08,6.62,2.09,12.68,2.37,15.99h.14c.27-2.36.69-7.33,1.99-15.99h6.64l-5.25,22.95h-6.95c-.97-5.72-1.76-10.5-2.18-13.68h-.14c-.35,3.02-1.43,8.19-2.52,13.68h-6.97l-4.88-22.95h7.13Z"
       id="path39" />
    <path
       class="cls-5"
       d="m421.3,186.54h6.67v22.95h-6.67v-22.95Zm.03-7.91h6.67v5.4h-6.67v-5.4Z"
       id="path40" />
    <path
       class="cls-5"
       d="m449.17,178.63v24.03c0,3.13.03,5.63.07,6.83h-6.41c-.1-.6-.17-1.64-.19-2.25-.84,1.7-2.31,2.65-4.96,2.65-4.4,0-6.54-3.63-6.54-12.1,0-7.65,2.5-11.63,7.39-11.63,2.26,0,3.49.81,3.96,1.64v-9.17h6.67Zm-11.23,19.26c0,5.13.62,6.75,2.3,6.75,1.98,0,2.38-1.52,2.38-6.91,0-4.93-.26-6.28-2.21-6.28-1.56,0-2.47,1.1-2.47,6.44Z"
       id="path41" />
    <path
       class="cls-5"
       d="m458.89,199.61c0,2.99.29,5.28,2.37,5.28,1.86,0,2.14-1.54,2.21-2.58h6.38c-.16,1.54-.84,7.6-8.72,7.6s-8.88-5.83-8.88-12.06c0-7.74,3.1-11.69,9.01-11.69,6.78,0,8.73,4.59,8.73,10.94,0,.78-.03,2.04-.06,2.51h-11.04Zm4.53-4.23c0-2.23-.1-4.31-2.18-4.31s-2.3,2.19-2.3,4.31h4.48Z"
       id="path42" />
  </g>
  <g
     id="g48">
    <path
       class="cls-2"
       d="m250.61,140.19c0,61.34-53.21,110.69-111.07,110.69-61.34,0-111.07-49.35-111.07-110.69S78.2,29.12,139.54,29.12s111.07,49.73,111.07,111.07Z"
       id="path43" />
    <path
       class="cls-3"
       d="m189.74,200.17l-19.1,6.56c-5,1.66-11.24,2.69-16.51,1.04-1.15-.36-1.94-.66-2.97-1.29-1.34,4.04-4.41,9.71-6.22,15.35-2.06,6.44-4.01,18.06.13,24.93,1.11,2.01,2.73,3.79,2.73,3.79,0,.01,8.41-12.05,18.98-19.86,10.3-7.61,26.91-15.65,22.95-30.52Z"
       id="path44" />
    <path
       class="cls-4"
       d="m151.16,206.48c-.42-.26-.8-.44-1.21-.74-2.95-2.18-3.98-6.04-4.07-9.23-.04-1.38.45-2.65.67-4-2.47,1-4.64,2.09-7.39,3.2-4.63,1.87-8.93,4.31-13.61,3.12,1.1,13.3,8.58,36.7,22.26,51.72-10.46-11.31-2.06-30.98-1.05-33.64,1.07-2.82,3.06-6.39,4.4-10.44Z"
       id="path45" />
    <path
       class="cls-4"
       d="m175.69,34.96c-11.89-4.37-24.19-5.75-36.15-5.84-14.45,3.6-26.62,10.97-38.18,21.78-4.91,3.94-8.57,9.11-9.6,15.89-.23,1.55-.36,3.11-.33,4.67.02,1.14.88,3.94.46,4.9l-.25.56c-1.13,2.61-5.95,13.98-7.46,22.2-.34,1.86-.51,3.56-.43,4.95.47,8.43,3.56,12.36,1.3,15.65-2.87,4.19-4.96,8.85-7.82,13.03-1.27,1.87-2.96,3.33-4.3,5.14-.56.75-1.42,1.79-1.45,2.77-.05,1.37,1.53,4.34,3.34,5.32,1.53.83,3.18,1.62,4.47,2.82,1.08,1.01,1.04,2.47.76,3.81-.25,1.21-.53,2.82-1.75,3.43-1.15.58-.5,3.17,1.12,5.16.7.86,1.68,1.47,2.75,1.76.38.1,5.1.64,4.88,1.18-.07.18-5.8-.2-5.6,2.86.2,3.07,1.98,4.66,5.02,5.22.76.14-.32,3.29-.44,3.64-.64,1.82-1.06,3.72-1.12,5.64-.1,3.13.69,6.85,3.12,9.02,5.42,4.83,14,4.2,20.51,2.48l11.42-3.15c-.04-.34-.09-.69-.13-1.02-.13-1.02-.25-2-.43-2.84-.35-1.64-.94-3.3-1.71-4.81-.99-1.94-1.93-1.27-3.41-1.23-1.63.04-2.59-1-3.14-2.32-1.12-2.7.02-4.6,1.78-6.12-.77-.18-1.52-.48-2.2-1.21-1.06-1.15-2.12-2.67-1.84-4.32.25-1.45,1.76-2.04,2.75-3.19,1.47-1.7,1.02-2.3-1.18-2.77-.94-.2-2.83-.89-4-1.33-3.44-1.31-7.15-3.57-5.09-7.86,1.28-2.67,2.9-5.31,4.53-7.8,1.16-1.76,2.03-3.34,3.42-5.38,2.1-3.09,4.56-7.2,3.35-10.91-.85-2.6-1.75-5.17-2.45-7.83-1.38-5.26-.15-12.56,1.67-17.7.76-2.14,2.28-5.6,4.17-9.34-.81-2.1-1.43-4.03-1.9-5.8-4.14-15.62,4.03-19.02,8.4-21.49,3.45-1.94,6.66-5.76,10.64-8.65,2.93-2.13,7.9-2.66,11.85-5.07,2.88-1.76,6.36-7.54,12.43-9.46,3.6-1.14,11.85-.25,20.61-1.34,1.8-.22,4.38-1.01,6.1-1.64-2.37-1.21-5.74-2.48-8.48-3.49Z"
       id="path46" />
    <path
       class="cls-3"
       d="m114.14,86.09c.47,1.77,1.09,3.69,1.9,5.8-1.89,3.74-3.41,7.2-4.17,9.34-1.81,5.13-3.04,12.44-1.67,17.7.69,2.65,1.6,5.22,2.45,7.83,1.21,3.71-1.24,7.82-3.35,10.91-1.38,2.04-2.26,3.62-3.42,5.38-1.63,2.49-3.25,5.13-4.53,7.8-2.06,4.28,1.66,6.55,5.09,7.86,1.17.44,3.06,1.13,4,1.33,2.2.47,2.64,1.07,1.18,2.77-.98,1.14-2.5,1.73-2.75,3.19-.28,1.65.77,3.17,1.84,4.32.68.73,1.43,1.03,2.2,1.21-1.76,1.52-2.91,3.42-1.78,6.12.55,1.32,1.51,2.36,3.14,2.32,1.48-.04,2.43-.71,3.41,1.23.77,1.51,1.35,3.17,1.71,4.81.18.84.3,1.82.43,2.84.04.33.08.68.13,1.02.44,3.41,1.15,7.11,4.33,8.54.31.14.61.2.92.3,4.89,1.62,9.44-1.29,13.96-2.99,2.57-.97,4.98-2.21,7.39-3.2,0-.03.01-.05.02-.08.07-.4.11-.81.1-1.21,0-.18.03-.35,0-.53-.37-2.54-4.48-4.38-4.88-7.48-.4-3.11,5.12-4.33,5.18-4.52.18-.57-4.66-.82-5.05-.9-1.11-.23-2.14-.79-2.91-1.62-1.77-1.93-.07-7.54.11-8.79.2-1.38.14-2.87-1.01-3.83-1.39-1.14-6.26-2.51-5.97-6.49.17-2.32,2.94-9.07,4.12-11.06,2.65-4.44,4.04-6.87,5.89-12.44,1.28-3.86-1.3-7.3-2.31-15.85-.68-5.74,3.32-23.21,5.08-32.55.6-3.18.94-5.42.74-5.93-4.08-10.53,9.25-18.69,18.77-23.47,10.81-5.43,12.91-7.48,24.93-8.73.13-.01,3.65-.51,5.17-.79,1.37-.25,1.98-.36,3.32-.56-4.43-2.78-8.87-5.09-13.69-7.23-.47.18-4.3,1.42-6.1,1.64-8.77,1.09-17.01.2-20.61,1.34-6.06,1.92-9.55,7.71-12.43,9.46-3.95,2.41-8.91,2.94-11.85,5.07-3.98,2.88-7.19,6.7-10.64,8.65-4.37,2.46-12.53,5.87-8.4,21.49"
       id="path47" />
    <path
       class="cls-1"
       d="m197.86,45.68c-1.34.2-8.36,1.33-8.49,1.35-12.02,1.25-14.12,3.3-24.93,8.73-9.52,4.78-22.85,12.94-18.77,23.47.2.51-.14,2.75-.74,5.93-1.76,9.34-5.76,26.8-5.08,32.55,1.01,8.56,3.59,11.99,2.31,15.85-1.85,5.57-3.25,8-5.89,12.44-1.18,1.98-3.95,8.74-4.12,11.06-.29,3.98,4.58,5.35,5.97,6.49,1.16.96,1.22,2.45,1.01,3.83-.18,1.25-1.88,6.86-.11,8.79.77.83,1.8,1.39,2.91,1.62.39.08,5.23.33,5.05.9-.06.19-5.58,1.41-5.18,4.52.39,3.11,4.51,4.94,4.88,7.48.03.18,0,.35,0,.53,0,.41-.03.81-.1,1.21,0,.03-.01.05-.02.08-.22,1.33-.71,2.65-.67,4,.09,3.19,1.13,6.93,3.74,8.99.4.31.84.53,1.26.79.99.61,2.05,1.08,3.16,1.43,5.29,1.71,11.6.68,16.64-.99l18.74-6.44c3.95,14.87-12.56,22.44-22.6,30.39-8.99,6.74-15.34,14.3-19,19.86,6.65-.48,14.54-2.03,21.37-4.06,32.78-9.78,59.82-33.52,73.13-64.67,5.37-13.02,8.35-27.29,8.35-42.26,0-39.63-21.53-74.28-52.8-93.88Z"
       id="path48" />
  </g>
  <g
     id="g49"
     font-variation-settings="'wght' 400, 'wdth' 67, 'slnt' 0"
     transform="translate(557 150)"
     fill="#004029"
     fill-rule="nonzero"
     font-family="Acumin Variable Concept"
     font-stretch="condensed"
     line-height="49"
     letter-spacing="-1.0"
     font-size="44"
     font-weight="400">
    <g
       id="Group">
      <path
         d="m 6.512,10 h 3.256 v -26.928 h 6.644 v -2.904 h -16.5 v 2.904 h 6.6 z m 7.494587,-22.308 5.104,22.308 h 3.476 c 1.936,-8.14 3.52,-14.652 3.96,-17.996 h 0.044 c 0.484,3.476 2.156,10.736 3.74,17.996 h 3.388 l 5.456,-22.308 h -3.3 c -2.552,12.232 -3.344,16.192 -3.696,18.656 h -0.044 c -0.308,-2.464 -1.276,-6.908 -3.916,-18.656 h -3.08 c -2.728,12.32 -3.652,15.84 -4.092,18.744 h -0.044 c -0.396,-3.08 -1.408,-8.096 -3.564,-18.744 z m 40.896338,11.792 c 0.044,-0.572 0.044,-1.408 0.044,-1.848 0,-5.5 -1.364,-10.296 -7.216,-10.296 -5.192,0 -7.568,4.444 -7.568,11.396 v 0.22 c 0,5.544 0.88,11.484 7.392,11.484 6.512,0 7.172,-6.116 7.216,-6.776 v 0 h -3.124 v 0 c -0.132,0.748 -0.572,4.004 -4.048,4.004 -3.52,0 -4.224,-3.784 -4.224,-8.096 0,0 0,-0.088 0,-0.088 z m -11.484,-2.552 v -0.088 c 0.044,-1.54 0.264,-6.732 4.312,-6.732 3.212,0 4.004,2.948 4.004,6.732 0,0 0,0.088 0,0.088 z M 57.990531,10 h 3.256 V -3.288 c 0,-4.576 1.276,-6.512 4.224,-6.512 2.552,0 3.432,1.804 3.432,4.532 V 10 h 3.212 V -5.928 c 0,-4.928 -2.464,-6.732 -5.676,-6.732 -2.992,0 -4.532,1.54 -5.28,3.256 0,-1.452 -0.044,-2.332 -0.088,-2.904 h -3.124 c 0.044,1.056 0.044,2.332 0.044,6.908 z M 73.641354,-9.536 h 3.124 V 5.776 c 0,3.476 1.54,4.532 4.136,4.532 0.748,0 1.848,-0.044 2.596,-0.352 V 7.492 c -0.396,0.088 -1.012,0.132 -1.54,0.132 -1.672,0 -2.024,-0.968 -2.024,-2.508 V -9.536 h 3.872 v -2.772 h -3.872 v -5.896 h -3.168 v 5.896 h -3.124 z m 25.689,9.02 c 0.044,-0.572 0.044,-1.408 0.044,-1.848 0,-5.5 -1.364,-10.296 -7.216,-10.296 -5.192,0 -7.568,4.444 -7.568,11.396 v 0.22 c 0,5.544 0.88,11.484 7.392,11.484 6.512,0 7.172,-6.116 7.216,-6.776 v 0 h -3.124 v 0 c -0.132,0.748 -0.572,4.004 -4.048,4.004 -3.52,0 -4.224,-3.784 -4.224,-8.096 0,0 0,-0.088 0,-0.088 z m -11.484,-2.552 v -0.088 c 0.044,-1.54 0.264,-6.732 4.312,-6.732 3.212,0 4.004,2.948 4.004,6.732 0,0 0,0.088 0,0.088 z"
         id="Twente"
         aria-label="Twente" />
    </g>
  </g>
</svg>
