<?xml version="1.0" encoding="UTF-8"?><svg id="a" xmlns="http://www.w3.org/2000/svg" viewBox="0 0 200 400"><defs><style>.b{fill:#fff;stroke-width:0px;}</style></defs><path class="b" d="m33.47,109.01c0,2.94-.06,5.45-.19,7.52-.13,2.07-.3,3.77-.51,5.09-.64,3.67-1.96,6.38-3.97,8.13-2.6,2.26-6.44,3.39-11.52,3.39H4.86v-46.27h12.29c4.61,0,8.19.84,10.75,2.53,2.56,1.69,4.22,4.64,4.99,8.86.38,2.13.58,5.72.58,10.75Zm-7.36,1.22c0-2.09-.03-3.88-.1-5.38-.06-1.49-.14-2.73-.22-3.71-.3-2.65-.96-4.67-1.98-6.08-1.41-1.88-3.8-2.82-7.17-2.82h-4.61v35.52h4.99c2.05,0,3.8-.49,5.25-1.47,1.54-1.07,2.6-3.05,3.2-5.95.43-2.01.64-5.38.64-10.11Z"/><path class="b" d="m42.5,133.14v-46.27h7.17v46.27h-7.17Z"/><path class="b" d="m80.45,99.98v-.77c0-5.25-2.18-7.87-6.53-7.87-3.5,0-5.78,1.73-6.85,5.18-.73,2.39-1.09,6.57-1.09,12.54,0,7.38.4,12.27,1.22,14.66,1.07,3.24,3.37,4.86,6.91,4.86,2.3,0,4.39-.38,6.27-1.15v-13.25h-6.91v-5.44h13.89v23.17c-4.47,1.36-8.85,2.05-13.15,2.05-6.81,0-11.28-2.22-13.41-6.66-1.41-2.99-2.11-8.79-2.11-17.41s.7-13.89,2.11-16.96c2.09-4.65,6.44-6.98,13.06-6.98,9.22,0,13.82,4.44,13.82,13.31v.7h-7.23Z"/><path class="b" d="m96.51,133.14v-46.27h7.17v46.27h-7.17Z"/><path class="b" d="m127.68,92.37v40.77h-7.17v-40.77h-10.69v-5.5h28.54v5.5h-10.69Z"/><path class="b" d="m164.54,133.14l-2.94-11.07h-14.91l-3.01,11.07h-7.1l13.25-46.27h9.09l12.99,46.27h-7.36Zm-10.43-40.19l-5.89,23.68h11.84l-5.95-23.68Z"/><path class="b" d="m177.15,133.14v-46.27h7.17v40.77h14.46v5.5h-21.63Z"/><path class="b" d="m31.62,183.76c0,9.47-4.61,14.21-13.82,14.21-6.23,0-10.35-2.15-12.35-6.46-1.41-3.07-2.11-8.9-2.11-17.47s.68-13.91,2.05-17.02c2.05-4.69,6.31-7.04,12.8-7.04,4.61,0,7.94,1.1,9.98,3.3,2.05,2.2,3.07,5.56,3.07,10.08v1.02h-7.1v-.83c0-5.42-2.05-8.13-6.14-8.13-3.2,0-5.29,1.64-6.27,4.93-.73,2.43-1.09,6.85-1.09,13.25,0,7.25.36,12.1,1.09,14.53.98,3.03,2.99,4.54,6.02,4.54,2.6,0,4.46-.94,5.57-2.82.77-1.32,1.15-3.41,1.15-6.27v-1.02h7.17v1.22Z"/><path class="b" d="m73.58,174.42c0,8.36-.73,14.02-2.18,16.96-2.09,4.39-6.38,6.59-12.86,6.59s-10.33-2.11-12.42-6.34c-.85-1.79-1.45-4.12-1.79-6.98-.26-2.18-.38-5.57-.38-10.18,0-5.59.19-9.64.58-12.16.51-3.46,1.6-6.19,3.26-8.19,2.39-2.77,6.04-4.16,10.94-4.16s8.64,1.26,10.94,3.78c1.71,1.83,2.82,4.57,3.33,8.19.38,2.52.58,6.68.58,12.48Zm-7.42-.83c0-5.59-.19-9.45-.58-11.58-.85-4.44-3.14-6.66-6.85-6.66s-5.99,2.35-6.98,7.04c-.17.85-.3,2.22-.38,4.1-.09,1.88-.13,4.31-.13,7.3,0,2.77.03,5.1.1,6.98.06,1.88.18,3.33.35,4.35.38,2.52,1.07,4.37,2.05,5.57,1.07,1.32,2.73,1.98,4.99,1.98,3.8,0,6.1-2.39,6.91-7.17.17-.98.3-2.45.38-4.42.08-1.96.13-4.46.13-7.49Z"/><path class="b" d="m124.19,197.14v-41.34l-10.62,41.34h-7.74l-10.62-41.34v41.34h-6.4v-46.27h11.65l9.66,38.59,9.22-38.59h11.65v46.27h-6.78Z"/><path class="b" d="m173.9,163.66c0,5.5-1.39,9.26-4.16,11.26-2.09,1.45-5.74,2.18-10.94,2.18h-3.9v20.03h-7.17v-46.27h12.35c4.82,0,8.3.9,10.43,2.69,2.26,2.01,3.39,5.38,3.39,10.11Zm-7.23.06c0-2.86-.63-4.82-1.89-5.89-1.26-1.07-3.34-1.6-6.24-1.6h-3.65v15.42h3.33c1.54,0,2.84-.13,3.9-.38s1.94-.69,2.62-1.31c.68-.62,1.17-1.43,1.47-2.43.3-1,.45-2.27.45-3.81Z"/><path class="b" d="m183.17,182.54v-5.25h14.21v5.25h-14.21Z"/><path class="b" d="m4.86,249.14v-46.27h22.91v5.5h-15.81v14.08h14.78v5.38h-14.78v15.81h16.26v5.5H4.86Z"/><path class="b" d="m49.81,208.37v40.77h-7.17v-40.77h-10.69v-5.5h28.54v5.5h-10.69Z"/><path class="b" d="m66.97,249.14v-46.27h22.91v5.5h-15.81v14.08h14.78v5.38h-14.78v15.81h16.26v5.5h-23.36Z"/><path class="b" d="m117.93,249.14l-13.06-40v40h-6.4v-46.27h10.88l13.05,40v-40h6.4v46.27h-10.88Z"/><path class="b" d="m166.45,235.76c0,9.47-4.61,14.21-13.82,14.21-6.23,0-10.35-2.15-12.35-6.46-1.41-3.07-2.11-8.9-2.11-17.47s.68-13.91,2.05-17.02c2.05-4.69,6.31-7.04,12.8-7.04,4.61,0,7.94,1.1,9.98,3.3,2.05,2.2,3.07,5.56,3.07,10.08v1.02h-7.1v-.83c0-5.42-2.05-8.13-6.14-8.13-3.2,0-5.29,1.64-6.27,4.93-.73,2.43-1.09,6.85-1.09,13.25,0,7.25.36,12.1,1.09,14.53.98,3.03,2.99,4.54,6.02,4.54,2.6,0,4.46-.94,5.57-2.82.77-1.32,1.15-3.41,1.15-6.27v-1.02h7.17v1.22Z"/><path class="b" d="m174.53,249.14v-46.27h22.91v5.5h-15.81v14.08h14.78v5.38h-14.78v15.81h16.26v5.5h-23.36Z"/><path class="b" d="m31.62,299.76c0,9.47-4.61,14.21-13.82,14.21-6.23,0-10.35-2.15-12.35-6.46-1.41-3.07-2.11-8.9-2.11-17.47s.68-13.91,2.05-17.02c2.05-4.69,6.31-7.04,12.8-7.04,4.61,0,7.94,1.1,9.98,3.3,2.05,2.2,3.07,5.56,3.07,10.08v1.02h-7.1v-.83c0-5.42-2.05-8.13-6.14-8.13-3.2,0-5.29,1.64-6.27,4.93-.73,2.43-1.09,6.85-1.09,13.25,0,7.25.36,12.1,1.09,14.53.98,3.03,2.99,4.54,6.02,4.54,2.6,0,4.46-.94,5.57-2.82.77-1.32,1.15-3.41,1.15-6.27v-1.02h7.17v1.22Z"/><path class="b" d="m38.78,313.14v-46.27h22.91v5.5h-15.81v14.08h14.78v5.38h-14.78v15.81h16.26v5.5h-23.36Z"/><path class="b" d="m88.83,313.14l-13.06-40v40h-6.4v-46.27h10.88l13.06,40v-40h6.4v46.27h-10.88Z"/><path class="b" d="m123.14,272.37v40.77h-7.17v-40.77h-10.69v-5.5h28.54v5.5h-10.69Z"/><path class="b" d="m158.78,313.14c-.17-.94-.29-1.92-.35-2.94-.06-1.02-.12-2.11-.16-3.26-.04-1.19-.08-2.27-.1-3.23-.02-.96-.05-1.84-.1-2.66-.17-3.46-.62-5.67-1.34-6.66-.85-1.24-2.82-1.86-5.89-1.86h-4.29v20.61h-7.17v-46.27h13.5c4.39,0,7.59.75,9.6,2.24,2.39,1.79,3.58,4.95,3.58,9.47,0,6.23-2.54,9.96-7.62,11.2,2.6.21,4.39,1.11,5.38,2.69.77,1.2,1.26,3.52,1.47,6.98.04,1.32.11,3.46.19,6.4.13,2.52.38,4.95.77,7.3h-7.49Zm-.06-33.98c0-2.47-.58-4.23-1.73-5.28-1.15-1.04-2.97-1.57-5.44-1.57h-4.99v14.78h3.84c3.11,0,5.27-.53,6.46-1.6,1.24-1.11,1.86-3.22,1.86-6.34Z"/><path class="b" d="m174.53,313.14v-46.27h22.91v5.5h-15.81v14.08h14.78v5.38h-14.78v15.81h16.26v5.5h-23.36Z"/></svg>