<?xml version="1.0" encoding="UTF-8"?><svg id="a" xmlns="http://www.w3.org/2000/svg" viewBox="0 0 200 400"><defs><style>.b{stroke-width:0px;}</style></defs><path class="b" d="m33.47,151.01c0,2.94-.06,5.45-.19,7.52-.13,2.07-.3,3.77-.51,5.09-.64,3.67-1.96,6.38-3.97,8.13-2.6,2.26-6.44,3.39-11.52,3.39H4.86v-46.27h12.29c4.61,0,8.19.84,10.75,2.53,2.56,1.69,4.22,4.64,4.99,8.86.38,2.13.58,5.72.58,10.75Zm-7.36,1.22c0-2.09-.03-3.88-.1-5.38-.06-1.49-.14-2.73-.22-3.71-.3-2.65-.96-4.67-1.98-6.08-1.41-1.88-3.8-2.82-7.17-2.82h-4.61v35.52h4.99c2.05,0,3.8-.49,5.25-1.47,1.54-1.07,2.6-3.05,3.2-5.95.43-2.01.64-5.38.64-10.11Z"/><path class="b" d="m42.5,175.14v-46.27h7.17v46.27h-7.17Z"/><path class="b" d="m80.45,141.98v-.77c0-5.25-2.18-7.87-6.53-7.87-3.5,0-5.78,1.73-6.85,5.18-.73,2.39-1.09,6.57-1.09,12.54,0,7.38.4,12.27,1.22,14.66,1.07,3.24,3.37,4.86,6.91,4.86,2.3,0,4.39-.38,6.27-1.15v-13.25h-6.91v-5.44h13.89v23.17c-4.47,1.36-8.85,2.05-13.15,2.05-6.81,0-11.28-2.22-13.41-6.66-1.41-2.99-2.11-8.79-2.11-17.41s.7-13.89,2.11-16.96c2.09-4.65,6.44-6.98,13.06-6.98,9.22,0,13.82,4.44,13.82,13.31v.7h-7.23Z"/><path class="b" d="m96.51,175.14v-46.27h7.17v46.27h-7.17Z"/><path class="b" d="m127.68,134.37v40.77h-7.17v-40.77h-10.69v-5.5h28.54v5.5h-10.69Z"/><path class="b" d="m164.54,175.14l-2.94-11.07h-14.91l-3.01,11.07h-7.1l13.25-46.27h9.09l12.99,46.27h-7.36Zm-10.43-40.19l-5.89,23.68h11.84l-5.95-23.68Z"/><path class="b" d="m177.15,175.14v-46.27h7.17v40.77h14.46v5.5h-21.63Z"/><path class="b" d="m17.78,203.61c0,5.33-2.59,7.99-7.78,7.99-3.5,0-5.82-1.21-6.95-3.64-.79-1.73-1.19-5-1.19-9.83s.38-7.82,1.15-9.58c1.15-2.64,3.55-3.96,7.2-3.96,2.59,0,4.46.62,5.62,1.85,1.15,1.24,1.73,3.13,1.73,5.67v.58h-4v-.47c0-3.05-1.15-4.57-3.46-4.57-1.8,0-2.98.92-3.53,2.77-.41,1.37-.61,3.85-.61,7.45,0,4.08.2,6.8.61,8.17.55,1.7,1.68,2.56,3.38,2.56,1.46,0,2.51-.53,3.13-1.58.43-.74.65-1.92.65-3.53v-.58h4.03v.68Z"/><path class="b" d="m37.89,198.36c0,4.7-.41,7.88-1.22,9.54-1.18,2.47-3.59,3.71-7.24,3.71s-5.81-1.19-6.98-3.56c-.48-1.01-.82-2.32-1.01-3.92-.14-1.22-.22-3.13-.22-5.72,0-3.14.11-5.42.32-6.84.29-1.94.9-3.48,1.84-4.61,1.34-1.56,3.4-2.34,6.16-2.34s4.86.71,6.16,2.12c.96,1.03,1.58,2.57,1.87,4.61.22,1.42.32,3.76.32,7.02Zm-4.18-.47c0-3.14-.11-5.32-.32-6.52-.48-2.5-1.76-3.74-3.85-3.74s-3.37,1.32-3.92,3.96c-.1.48-.17,1.25-.22,2.3-.05,1.06-.07,2.42-.07,4.1,0,1.56.02,2.87.05,3.92.04,1.06.1,1.87.2,2.45.22,1.42.6,2.46,1.15,3.13.6.74,1.54,1.12,2.81,1.12,2.14,0,3.43-1.34,3.89-4.03.1-.55.17-1.38.22-2.48.05-1.1.07-2.51.07-4.21Z"/><path class="b" d="m62.85,211.14v-23.26l-5.98,23.26h-4.36l-5.98-23.26v23.26h-3.6v-26.03h6.55l5.44,21.71,5.18-21.71h6.55v26.03h-3.82Z"/><path class="b" d="m87.31,192.31c0,3.1-.78,5.21-2.34,6.34-1.18.82-3.23,1.22-6.16,1.22h-2.2v11.27h-4.03v-26.03h6.95c2.71,0,4.67.5,5.87,1.51,1.27,1.13,1.91,3.02,1.91,5.69Zm-4.07.04c0-1.61-.35-2.71-1.06-3.31-.71-.6-1.88-.9-3.51-.9h-2.05v8.68h1.87c.86,0,1.6-.07,2.2-.22.6-.14,1.09-.39,1.48-.74.38-.35.66-.8.83-1.37.17-.56.25-1.28.25-2.14Z"/><path class="b" d="m91.46,211.14v-26.03h12.89v3.1h-8.89v7.92h8.32v3.02h-8.32v8.89h9.14v3.1h-13.14Z"/><path class="b" d="m116.5,188.2v22.93h-4.03v-22.93h-6.01v-3.1h16.06v3.1h-6.01Z"/><path class="b" d="m125.91,211.14v-26.03h12.89v3.1h-8.89v7.92h8.32v3.02h-8.32v8.89h9.14v3.1h-13.14Z"/><path class="b" d="m154.32,211.14l-7.34-22.5v22.5h-3.6v-26.03h6.12l7.34,22.5v-22.5h3.6v26.03h-6.12Z"/><path class="b" d="m181.37,203.61c0,5.33-2.59,7.99-7.78,7.99-3.5,0-5.82-1.21-6.95-3.64-.79-1.73-1.19-5-1.19-9.83s.38-7.82,1.15-9.58c1.15-2.64,3.55-3.96,7.2-3.96,2.59,0,4.46.62,5.62,1.85,1.15,1.24,1.73,3.13,1.73,5.67v.58h-4v-.47c0-3.05-1.15-4.57-3.46-4.57-1.8,0-2.98.92-3.53,2.77-.41,1.37-.61,3.85-.61,7.45,0,4.08.2,6.8.61,8.17.55,1.7,1.68,2.56,3.38,2.56,1.46,0,2.51-.53,3.13-1.58.43-.74.65-1.92.65-3.53v-.58h4.03v.68Z"/><path class="b" d="m185.67,211.14v-26.03h12.89v3.1h-8.89v7.92h8.32v3.02h-8.32v8.89h9.14v3.1h-13.14Z"/><path class="b" d="m31.62,257.76c0,9.47-4.61,14.21-13.82,14.21-6.23,0-10.35-2.15-12.35-6.46-1.41-3.07-2.11-8.9-2.11-17.47s.68-13.91,2.05-17.02c2.05-4.69,6.31-7.04,12.8-7.04,4.61,0,7.94,1.1,9.98,3.3,2.05,2.2,3.07,5.56,3.07,10.08v1.02h-7.1v-.83c0-5.42-2.05-8.13-6.14-8.13-3.2,0-5.29,1.64-6.27,4.93-.73,2.43-1.09,6.85-1.09,13.25,0,7.25.36,12.1,1.09,14.53.98,3.03,2.99,4.54,6.02,4.54,2.6,0,4.46-.94,5.57-2.82.77-1.32,1.15-3.41,1.15-6.27v-1.02h7.17v1.22Z"/><path class="b" d="m38.78,271.14v-46.27h22.91v5.5h-15.81v14.08h14.78v5.38h-14.78v15.81h16.26v5.5h-23.36Z"/><path class="b" d="m88.83,271.14l-13.06-40v40h-6.4v-46.27h10.88l13.06,40v-40h6.4v46.27h-10.88Z"/><path class="b" d="m123.14,230.37v40.77h-7.17v-40.77h-10.69v-5.5h28.54v5.5h-10.69Z"/><path class="b" d="m158.78,271.14c-.17-.94-.29-1.92-.35-2.94-.06-1.02-.12-2.11-.16-3.26-.04-1.19-.08-2.27-.1-3.23-.02-.96-.05-1.84-.1-2.66-.17-3.46-.62-5.67-1.34-6.66-.85-1.24-2.82-1.86-5.89-1.86h-4.29v20.61h-7.17v-46.27h13.5c4.39,0,7.59.75,9.6,2.24,2.39,1.79,3.58,4.95,3.58,9.47,0,6.23-2.54,9.96-7.62,11.2,2.6.21,4.39,1.11,5.38,2.69.77,1.2,1.26,3.52,1.47,6.98.04,1.32.11,3.46.19,6.4.13,2.52.38,4.95.77,7.3h-7.49Zm-.06-33.98c0-2.47-.58-4.23-1.73-5.28-1.15-1.04-2.97-1.57-5.44-1.57h-4.99v14.78h3.84c3.11,0,5.27-.53,6.46-1.6,1.24-1.11,1.86-3.22,1.86-6.34Z"/><path class="b" d="m174.53,271.14v-46.27h22.91v5.5h-15.81v14.08h14.78v5.38h-14.78v15.81h16.26v5.5h-23.36Z"/></svg>