<?xml version="1.0" encoding="UTF-8"?><svg id="b" xmlns="http://www.w3.org/2000/svg" viewBox="0 0 191.09 179.96"><defs><style>.d{fill:#fff;stroke-width:0px;}</style></defs><g id="c"><path class="d" d="m30.06,29.31c0,4.56-.16,7.94-.48,10.14-.6,4.16-1.84,7.14-3.72,8.94-2.28,2.2-5.76,3.3-10.44,3.3H4.8V8.31h10.62c4.28,0,7.54.84,9.78,2.52,2,1.48,3.34,3.66,4.02,6.54.56,2.4.84,6.38.84,11.94Zm-5.34.48c0-4-.1-6.82-.3-8.46-.48-3.76-1.56-6.24-3.24-7.44-1.36-1.04-3.36-1.56-6-1.56h-5.28v35.28h5.94c2.16,0,3.9-.5,5.22-1.5,1.68-1.24,2.78-3.76,3.3-7.56.24-1.8.36-4.72.36-8.76Z"/><path class="d" d="m46.05,51.69h-5.1V8.31h5.1v43.38Z"/><path class="d" d="m82.68,19.95h-5.22v-.78c0-5.08-2.28-7.62-6.84-7.62-3.72,0-6.16,1.9-7.32,5.7-.68,2.28-1.02,6.52-1.02,12.72,0,6.52.34,10.86,1.02,13.02,1.12,3.64,3.64,5.46,7.56,5.46,2.44,0,4.6-.42,6.48-1.26v-14.22h-7.5v-4.02h12.48v21.6c-3.8,1.28-7.58,1.92-11.34,1.92-6.08,0-10.08-2.08-12-6.24-1.32-2.88-1.98-8.2-1.98-15.96s.68-13.16,2.04-16.2c1.92-4.4,5.76-6.6,11.52-6.6,8.08,0,12.12,3.96,12.12,11.88v.6Z"/><path class="d" d="m98.49,51.69h-5.1V8.31h5.1v43.38Z"/><path class="d" d="m131.45,12.45h-10.02v39.24h-5.1V12.45h-10.02v-4.14h25.14v4.14Z"/><path class="d" d="m163.1,51.69h-5.28l-3.06-10.98h-15.06l-3.06,10.98h-5.1l12.72-43.38h6.3l12.54,43.38Zm-9.54-15l-6.3-23.58-6.3,23.58h12.6Z"/><path class="d" d="m189.89,51.69h-18.72V8.31h5.1v39.24h13.62v4.14Z"/><path class="d" d="m26.58,104.07c0,3.76-1.06,6.6-3.18,8.52-2.12,1.92-5.02,2.88-8.7,2.88-4.28,0-7.38-1.02-9.3-3.06-1.88-1.96-2.82-5.1-2.82-9.42v-.48h5.28v.48c0,2.72.44,4.72,1.32,6,1.08,1.64,2.92,2.46,5.52,2.46,4.4,0,6.6-2.34,6.6-7.02,0-2.36-.76-4.3-2.28-5.82-.68-.68-2.42-1.88-5.22-3.6-3.88-2.4-6.4-4.2-7.56-5.4-2.04-2.16-3.06-4.92-3.06-8.28s1.12-6.24,3.35-8.16c2.07-1.8,4.89-2.7,8.44-2.7,7.46,0,11.19,3.5,11.19,10.5v1.44h-5.1v-1.02c0-2.24-.4-3.88-1.2-4.92-1-1.28-2.68-1.92-5.04-1.92-2,0-3.56.58-4.68,1.74-1.12,1.16-1.68,2.74-1.68,4.74,0,2.48.94,4.54,2.82,6.18.16.12,2.2,1.44,6.12,3.96,3.48,2.2,5.64,3.8,6.48,4.8,1.8,2,2.7,4.7,2.7,8.1Z"/><path class="d" d="m59.09,93.15c0,7.56-.62,12.78-1.86,15.66-1.92,4.44-5.72,6.66-11.4,6.66s-9.3-2.1-11.22-6.3c-.88-1.96-1.44-4.56-1.68-7.8-.08-1.28-.12-4-.12-8.16,0-5.4.16-9.22.48-11.46.44-2.96,1.38-5.36,2.82-7.2,2.08-2.72,5.36-4.08,9.84-4.08s7.64,1.26,9.72,3.78c1.44,1.76,2.4,4.2,2.88,7.32.36,2.36.54,6.22.54,11.58Zm-5.34-.3c0-5.64-.22-9.56-.66-11.76-.88-4.36-3.26-6.54-7.14-6.54-4.12,0-6.58,2.5-7.38,7.5-.32,2.04-.48,5.66-.48,10.86,0,5.64.16,9.4.48,11.28.4,2.44,1.12,4.22,2.16,5.34,1.16,1.28,2.9,1.92,5.22,1.92,3.76,0,6.14-2.28,7.14-6.84.44-2.04.66-5.96.66-11.76Z"/><path class="d" d="m91.24,102.69c0,8.52-4.12,12.78-12.36,12.78-5.56,0-9.2-2.02-10.92-6.06-1.16-2.8-1.74-8.2-1.74-16.2s.56-13,1.68-15.84c1.83-4.6,5.65-6.9,11.43-6.9,7.66,0,11.49,4.02,11.49,12.06v.96h-5.1v-.78c0-5.4-2.16-8.1-6.48-8.1-3.4,0-5.62,1.7-6.66,5.1-.72,2.32-1.08,6.76-1.08,13.32,0,7.04.36,11.66,1.08,13.86.96,3.04,3.06,4.56,6.3,4.56,4.76,0,7.14-2.96,7.14-8.88v-.84h5.22v.96Z"/><path class="d" d="m103.46,114.69h-5.1v-43.38h5.1v43.38Z"/><path class="d" d="m133.63,114.69h-20.4v-43.38h19.98v4.14h-14.88v14.88h14.1v4.02h-14.1v16.2h15.3v4.14Z"/><path class="d" d="m161.52,75.45h-10.02v39.24h-5.1v-39.24h-10.02v-4.14h25.14v4.14Z"/><path class="d" d="m190.85,71.31l-11.88,26.34v17.04h-5.1v-17.04l-11.52-26.34h5.64l8.76,21.48,8.76-21.48h5.34Z"/><path class="d" d="m7.92,169.69H3.84v-34.7h4.08v34.7Z"/><path class="d" d="m37.72,169.69h-6.34l-11.66-31.2v31.2h-3.74v-34.7h6.34l11.66,31.2v-31.2h3.74v34.7Z"/><path class="d" d="m63.2,161.19c0,3.01-.85,5.28-2.54,6.82-1.7,1.54-4.02,2.3-6.96,2.3-3.42,0-5.9-.82-7.44-2.45-1.5-1.57-2.26-4.08-2.26-7.54v-.38h4.22v.38c0,2.18.35,3.78,1.06,4.8.86,1.31,2.34,1.97,4.42,1.97,3.52,0,5.28-1.87,5.28-5.62,0-1.89-.61-3.44-1.82-4.66-.54-.54-1.94-1.5-4.18-2.88-3.1-1.92-5.12-3.36-6.05-4.32-1.63-1.73-2.45-3.94-2.45-6.62s.89-4.99,2.68-6.53c1.66-1.44,3.91-2.16,6.75-2.16,5.97,0,8.95,2.8,8.95,8.4v1.15h-4.08v-.82c0-1.79-.32-3.1-.96-3.94-.8-1.02-2.14-1.54-4.03-1.54-1.6,0-2.85.46-3.74,1.39-.9.93-1.34,2.19-1.34,3.79,0,1.98.75,3.63,2.26,4.94.13.1,1.76,1.15,4.9,3.17,2.78,1.76,4.51,3.04,5.18,3.84,1.44,1.6,2.16,3.76,2.16,6.48Z"/><path class="d" d="m86.09,138.3h-8.02v31.39h-4.08v-31.39h-8.02v-3.31h20.11v3.31Z"/><path class="d" d="m94.73,169.69h-4.08v-34.7h4.08v34.7Z"/><path class="d" d="m119.39,138.3h-8.02v31.39h-4.08v-31.39h-8.02v-3.31h20.11v3.31Z"/><path class="d" d="m144.11,158.22c0,4.06-.72,7.06-2.17,8.98-1.6,2.08-4.28,3.12-8.04,3.12s-6.66-1.14-8.23-3.41c-1.32-1.89-1.97-4.88-1.97-8.98v-22.94h4.08v22.75c0,2.94.32,5.09.96,6.43.9,1.95,2.62,2.93,5.18,2.93s4.24-.96,5.14-2.88c.64-1.31.96-3.41.96-6.29v-22.94h4.08v23.23Z"/><path class="d" d="m168.49,138.3h-8.02v31.39h-4.08v-31.39h-8.02v-3.31h20.11v3.31Z"/><path class="d" d="m189.36,169.69h-16.32v-34.7h15.98v3.31h-11.9v11.9h11.28v3.22h-11.28v12.96h12.24v3.31Z"/></g></svg>