<svg xmlns="http://www.w3.org/2000/svg" xmlns:xlink="http://www.w3.org/1999/xlink" aria-hidden="true" role="img" class="iconify iconify--ph iconify-inline" width="1em" height="1em" preserveAspectRatio="xMidYMid meet" viewBox="0 0 256 256" data-icon="ph:rainbow-cloud" id="team-icon" style="vertical-align: -0.125em;">
    <defs>
    <radialGradient id="rainbow" gradientTransform="translate(-0.28 -0.37) scale(1.44, 2)">
      <stop offset="28%" stop-color="#4299e1"/>
      <stop offset="29%" stop-color="#ecc94b"/>
      <stop offset="51%" stop-color="#ecc94b"/>
      <stop offset="52%" stop-color="#f56565"/>
    </radialGradient>
    <linearGradient id="cloud" x1="0.1" y1="0.2" x2="0.9" y2="0.8">
      <stop offset="55%" stop-color="rgba(255, 0, 0, 0)"></stop>
      <stop offset="55%" stop-color="#ffffff"></stop>
    </linearGradient>
  </defs>
  <path id="rainbow-layer" fill="url(#rainbow)" d="M200 112a48.18 48.18 0 0 0-44.66 30.4a31 31 0 0 0-3.34-.18c-17.65 0-32 14.76-32 32.89S134.35 208 152 208h48a48 48 0 0 0 0-96Zm0 80h-48c-8.82 0-16-7.58-16-16.89s7.18-16.89 16-16.89a15 15 0 0 1 5.78 1.14a8 8 0 0 0 10.87-5.81A32 32 0 1 1 200 192ZM24 160v16a8 8 0 0 1-16 0v-16a104 104 0 0 1 176.5-74.56a8 8 0 0 1-11.15 11.47A88 88 0 0 0 24 160Zm32 0v16a8 8 0 0 1-16 0v-16a72 72 0 0 1 114.6-58a8 8 0 1 1-9.47 12.89A56 56 0 0 0 56 160Zm61.57-23.35A24 24 0 0 0 88 160v16a8 8 0 0 1-16 0v-16a40 40 0 0 1 49.27-38.92a8 8 0 1 1-3.7 15.57Z"></path>
  <path id="cloud-layer" fill="url(#cloud)" d="M200 112a48.18 48.18 0 0 0-44.66 30.4a31 31 0 0 0-3.34-.18c-17.65 0-32 14.76-32 32.89S134.35 208 152 208h48a48 48 0 0 0 0-96Zm0 80h-48c-8.82 0-16-7.58-16-16.89s7.18-16.89 16-16.89a15 15 0 0 1 5.78 1.14a8 8 0 0 0 10.87-5.81A32 32 0 1 1 200 192ZM24 160v16a8 8 0 0 1-16 0v-16a104 104 0 0 1 176.5-74.56a8 8 0 0 1-11.15 11.47A88 88 0 0 0 24 160Zm32 0v16a8 8 0 0 1-16 0v-16a72 72 0 0 1 114.6-58a8 8 0 1 1-9.47 12.89A56 56 0 0 0 56 160Zm61.57-23.35A24 24 0 0 0 88 160v16a8 8 0 0 1-16 0v-16a40 40 0 0 1 49.27-38.92a8 8 0 1 1-3.7 15.57Z"></path>
</svg>