<?xml version="1.0" encoding="UTF-8"?><svg id="b" xmlns="http://www.w3.org/2000/svg" viewBox="0 0 365.08 323.07"><defs><style>.d{fill:#fefdfb;}.d,.e,.f,.g,.h,.i,.j,.k,.l,.m,.n,.o,.p,.q,.r,.s,.t,.u,.v,.w,.x,.y,.z,.aa,.ab,.ac,.ad,.ae,.af,.ag,.ah,.ai,.aj,.ak,.al,.am,.an,.ao,.ap,.aq,.ar,.as,.at,.au,.av,.aw,.ax,.ay,.az,.ba,.bb,.bc,.bd,.be,.bf,.bg,.bh,.bi,.bj,.bk,.bl,.bm,.bn,.bo,.bp,.bq,.br,.bs,.bt,.bu{stroke-width:0px;}.e{fill:#0c6aa9;}.f{fill:#efb2b5;}.g{fill:#19709f;}.h{fill:#409f82;}.i{fill:#fefefe;}.j{fill:#98969f;}.k{fill:#f1ac20;}.l{fill:#d4d2d4;}.m{fill:#633c3e;}.n{fill:#0c68a6;}.o{fill:#4e4442;}.p{fill:#075c94;}.q{fill:#394851;}.r{fill:#4c453e;}.s{fill:#f37a3e;}.t{fill:#22213b;}.u{fill:#156a97;}.v{fill:#e7aea5;}.w{fill:#594d3b;}.x{fill:#0d6ba9;}.y{fill:#ececec;}.z{fill:#fcfbfb;}.aa{fill:#eaaca2;}.ab{fill:#efafb1;}.ac{fill:#0b6aa9;}.ad{fill:#4b4d5c;}.ae{fill:#f2ab1c;}.af{fill:#1f73ab;}.ag{fill:#563d42;}.ah{fill:#f9b235;}.ai{fill:#f5b0b3;}.aj{fill:#d9dae0;}.ak{fill:#22203a;}.al{fill:#4189b4;}.am{fill:#6f3724;}.an{fill:#409f81;}.ao{fill:#8f8d97;}.ap{fill:#126da9;}.aq{fill:#216d9c;}.ar{fill:#fbfaf5;}.as{fill:#5f3641;}.at{fill:#ce9e9c;}.au{fill:#40404b;}.av{fill:#e65025;}.aw{fill:#ecb2a8;}.ax{fill:#3c3b4b;}.ay{fill:#83818c;}.az{fill:#443945;}.ba{fill:#fefefd;}.bb{fill:#4a3846;}.bc{fill:#fbfbfb;}.bd{fill:#efa122;}.be{fill:#3f3f4e;}.bf{fill:#1e203b;}.bg{fill:#f1ac22;}.bh{fill:#b6cfdf;}.bi{fill:#355254;}.bj{fill:#126a9b;}.bk{fill:#5b3b44;}.bl{fill:#0e5789;}.bm{fill:#20213b;}.bn{fill:#cd2a31;}.bo{fill:#878592;}.bp{fill:#1f213b;}.bq{fill:#fbf9fa;}.br{fill:#f0a127;}.bs{fill:#c52127;}.bt{fill:#edaba4;}.bu{fill:#d15166;}</style></defs><g id="c"><path class="y" d="m160.9,170.72c-.5,3.13-2.32,3.84-5.4,3.76-15.77-.41-31.55-.6-47.32-.76-2.34-.02-3.54-.65-3.28-3.17.1-.98-.07-1.98-.12-2.97.17-1.73.24-3.47.53-5.18,2.69-15.88,8.73-30.27,19.08-42.73,6.13-6.08,12.73-11.43,20.73-14.99,9.88-4.4,20.27-5.82,30.93-6.03,8.95.12,17.61,1.88,26.04,4.82-9.56,18.7-19.1,37.4-28.73,56.06-.53,1.02-1.78,2.1-2.87,2.34-5.02,1.09-8.12,4.06-9.6,8.88Zm-19.25-20.65c-1.32-1.83-2.65-3.65-3.98-5.49-4.88,2.06-5.33,3.27-2.86,7.94,2.27,4.28,3.27,4.62,6.7,2.42v-3.4c1.76,1.65,3.21,3.93,6.16,3.25,2.65-.61,5.34-1.16,7.9-2.04,2.62-.9,4.07-2.9,3.63-5.79-.62-4.05-1.07-8.27-5.05-10.68-.67-.41-2.06-.18-2.84.25-2.71,1.49-3.84.51-4.26-2.24-.17-1.08-.4-2.42-1.11-3.09-.85-.79-2.54-1.63-3.35-1.27-1.03.45-1.8,2.01-2.17,3.24-.24.81.38,1.91.68,2.85.88,2.76,1.19,5.38-1.49,6.86.74,2.61,1.39,4.9,2.04,7.19Z"/><path class="bs" d="m124.4,119.65c-10.35,12.46-16.4,26.85-19.08,42.73-.29,1.71-.36,3.45-.53,5.18q-1.52,6.32-8.38,6.26c-5.07-.05-10.14-.02-15.2-.22-1.1-.04-2.17-.91-3.26-1.4.47-1.04.94-2.08,1.41-3.12.88-2.77,1.77-5.55,2.69-8.44-4.39-.34-5.4.75-6.4,6.13-1.47,2.12-2.94,4.24-4.41,6.37-7.76,1.44-8.38,1.01-8.05-6.44,1.3-29.66,12.78-54.78,33.97-75.5.8-.78,1.71-1.44,2.57-2.15.64.58,1.38,1.08,1.91,1.75,7.6,9.6,15.18,19.23,22.76,28.85Z"/><path class="s" d="m124.4,119.65c-7.58-9.62-15.16-19.25-22.76-28.85-.53-.67-1.27-1.17-1.91-1.75,14-13.01,30.39-21.58,48.91-26.15,9.25-2.28,18.6-3.56,28.15-2.96-.02,11.32-.01,22.64-.08,33.96-.01,1.58-.42,3.16-.64,4.74-10.66.21-21.04,1.63-30.93,6.03-8.01,3.56-14.6,8.92-20.73,14.99Z"/><path class="ah" d="m176.06,98.63c.22-1.58.63-3.16.64-4.74.07-11.32.07-22.64.08-33.96,25.04.33,47.01,8.9,66.25,24.73,2.09,1.72,3.92,3.77,5.87,5.67-7.89,10.06-15.78,20.11-23.66,30.16-5.91-6.02-12.03-11.76-19.89-15.23.23-1.68.46-3.35.7-5.03-.26-.08-.52-.15-.78-.23-1.06,1.14-2.11,2.29-3.17,3.43-8.43-2.94-17.08-4.7-26.04-4.82Z"/><path class="ad" d="m268.01,317.31c-2.9-5.07-.65-10.17.08-15.18,3.64-24.88,7.87-49.65,15.13-73.79.68-2.26,1.54-4.46,2.31-6.69,9.69,6.1,19.85,5.82,30.27,2.28-2.27,15.5-4.95,30.95-6.6,46.51-.61,5.73.81,11.81,2.06,17.57,1.66,7.64,4.06,15.12,6.13,22.66-2.77.5-5.53,1-8.3,1.51-2.13.26-2.98-.79-3.53-2.8-2.19-8.02-3.89-16.27-7.05-23.9-4.95-11.95-1.98-23.64-.5-35.48,1.34-4.4,2.68-8.81,4.03-13.21-.37-.12-.74-.23-1.1-.35-.99,2.84-1.98,5.67-2.97,8.51-1.9,4.14-3.92,8.23-5.67,12.43-4.33,10.4-9.68,20.45-11.11,31.88-.8,6.41-1.7,12.8-2.74,19.17-.41,2.51-1.3,4.93-1.98,7.4-2.82.5-5.65.99-8.47,1.49Z"/><path class="y" d="m205.35,105.27c7.86,3.47,13.98,9.21,19.89,15.23.4.63.75,1.29,1.2,1.89,11.73,15.63,17.02,33.33,17.07,52.73-10.23.01-20.47.12-30.7,0-7.94-.09-15.87-.67-23.81-.59-3.13.03-4.83-.8-5.44-3.81-.6-2.26-2.3-4.95-1.62-6.72,7.59-19.66,15.55-39.18,23.41-58.74Zm5.53,68.3c1.25-5.99,5.18-4.55,8.52-4.52,4.48.03,6.16-1.39,6.45-5.82.25-3.84.3-7.7.35-11.55.04-3.11-1.55-4.95-4.69-5.11-6.21-.31-12.42-.55-18.63-.73-3.17-.09-4.87,1.69-5.1,4.74-.3,3.96-.5,7.94-.58,11.91-.08,3.82,1.78,5.73,5.6,5.91,3.39.16,7.34-.85,8.09,5.18Z"/><path class="an" d="m243.51,175.12c-.05-19.4-5.34-37.1-17.07-52.73-.45-.59-.8-1.26-1.2-1.89,7.89-10.05,15.77-20.11,23.66-30.16,3.71,3.99,7.73,7.73,11.05,12.02,6.73,8.69,12.25,18.14,15.67,28.68-.91.34-1.83.64-2.72,1.02-7.18,3.04-12.18,8.04-9.25,15.38-1.25,1.21-2.49,2.42-3.74,3.63-3.83-.63-5.25.62-5.27,4.66-3.61,1.83-6.79,4.17-9.51,7.04.3.4.6.81.89,1.21,3.13-2.01,6.26-4.02,9.39-6.03.26.97.51,1.94.77,2.91-.27,4.8-.55,9.6-.82,14.4-3.95-.04-7.91-.08-11.86-.12Z"/><path class="ac" d="m255.38,175.24c.27-4.8.55-9.6.82-14.4,1.91-.25,3.82-.5,5.73-.75.58,1.36,1.47,2.67,1.67,4.08.6,4.1.92,8.23,1.34,12.35.32,1.2.65,2.4.95,3.61.75,3.09,2.79,4.45,5.81,3.8,5.82-1.27,11.61-2.72,17.38-4.2,2.52-.64,4.98-1.54,7.46-2.32,2.47.22,4.94.44,7.41.66,5.98,3.25,10.32,7.65,10.97,14.88.77,8.66,1.81,17.31,2.46,25.98.12,1.62-1.02,3.33-1.58,5-10.41,3.54-20.58,3.82-30.27-2.28.41-2.04.82-4.08,1.24-6.12.65-.76,1.71-1.44,1.89-2.3.86-4.06,1.48-8.18,2.2-12.27.64-3.58-.14-4.63-4.12-5.47-1.79-.34-3.57-.97-5.36-.97-4.85.02-9.71.52-14.55.45-5.15-.07-6.85-1.38-8.36-6.33-1.05-3.44-1.57-7.03-2.35-10.55-.21-.96-.49-1.9-.75-2.85Z"/><path class="n" d="m34.43,271.92c-.54-.27-1.08-.55-1.62-.82,1.81-7.25,4.37-14.42,5.22-21.78.91-7.93.12-16.05.25-24.08.05-2.94-.53-5.14-3.76-5.8.99-.03,1.99-.06,2.98-.09,6.47-.5,12.94-1,19.41-1.5,1.74,6.72,4.03,13.36,5.08,20.19,1.54,9.94,2.22,20.02,3.2,30.05.13,1.33-.12,2.69-.21,4.47-1.59-.38-2.85-.69-4.11-.99-3.7-1.84-7.25-1.34-10.68.73-1.75.35-3.5.7-5.25,1.05-3.5-.47-7-.95-10.51-1.42Z"/><path class="i" d="m201.04,250.57c.41-.84,1.08-1.65,1.18-2.53.12-1.05.15-2.76-.46-3.15-9.92-6.41-8.32-19.2,2.29-25.89,9.62-6.06,20.14-7.07,30.63-2.11,11.84,5.6,12.83,18.69,2.16,26.28-7.57,5.39-15.96,7.31-25.09,5.44-3.05-.63-5.85-1.03-8.16,1.72-.41.49-1.28.58-1.93.86-.21-.21-.42-.41-.63-.62Zm19.77-16.94c-1.28-1.1-2.11-2.36-2.77-2.27-.91.12-2.06,1.12-2.38,2-.18.49,1.12,2.15,1.76,2.15.94,0,1.9-.99,3.4-1.88Zm-8.5,3.56c.92-1.36,1.94-2.21,1.88-2.98-.06-.78-1.19-1.48-1.85-2.21-.77.76-1.96,1.42-2.17,2.31-.14.61,1.09,1.53,2.14,2.88Zm15.77-8.32c-.91,1.34-1.95,2.2-1.87,2.94.08.77,1.25,1.41,1.95,2.11.77-.77,1.9-1.44,2.17-2.37.15-.51-1.16-1.44-2.25-2.68Zm-4.96,6.93c.82-1.56,1.71-2.49,1.58-3.26-.12-.74-1.28-1.32-1.99-1.97-.62.76-1.72,1.51-1.74,2.29-.02.75,1.06,1.54,2.15,2.94Z"/><path class="ba" d="m56.9,217.85c-6.47.5-12.94,1-19.41,1.5-.5-3.25-.99-6.5-1.49-9.75.01-1.47.02-2.94.03-4.42,3.22.68,6.44,1.36,9.66,2.04.08-.24.16-.48.24-.71-3.31-1.22-6.62-2.43-9.93-3.65-4.21-5.06-5.07-10.86-3.8-17.13,2.3-1.32,4.6-2.64,6.9-3.96,2.05.7,4.11,1.4,6.69,2.27-.32-2.05-.55-3.58-.79-5.11,4.84,1.03,9.73,1.88,14.5,3.17,3.06.83,5.09-.29,6.84-2.45,1.7-2.11,3.28-4.33,4.91-6.5,1.47-2.12,2.94-4.24,4.41-6.37,1.24.77,2.48,1.54,3.72,2.31-.47,1.04-.94,2.08-1.41,3.12-.47.34-1.25.59-1.37,1.02-3.01,11.09-10.13,16.92-22.15,16.93.49.91.73,1.54,1.13,2.05,1.79,2.32,1.51,4.09-.87,5.99-3.3,2.63-2.85,4.64,1.2,5.92,3.19,1.01,6.51,1.62,9.7,2.62,1.47.46,2.78,1.42,4.16,2.16-.28,1.48-.57,2.97-.85,4.45-1.63-.17-3.29-.19-4.87-.56-2.46-.58-4.87-1.4-7.77-2.25.25,2.82.44,5.07.64,7.33Z"/><path class="i" d="m132.31,216.95c-3.58-3.8-7.4-2.68-11.53-2.31-9.41.84-17.79-1.81-23.45-10.04-3.03-4.4-2.3-10.17,1.42-13.98,9.29-9.5,29.57-7.41,36.68,3.77,2.82,4.44,2.55,11.32-1.24,14.46-2.77,2.29-4.49,4.16-1.88,8.09Z"/><path class="d" d="m340.71,23.97c-10.93,0-21.86.05-32.79-.04-2.72-.02-5.46-.36-8.14-.83-2.92-.51-5.09-3.32-4.35-5.54.97-2.93,3.07-3.41,5.96-2.69,6.5,1.62,6.52,1.52,10.2-4.38,1.3-2.09,3-3.24,5.62-2.5,1.55.44,3.15.77,4.75.96,2.73.34,4.74-.17,5.53-3.47C328.45,1.43,331.13.05,335.65,0c4.13-.04,4.85,2.8,5.4,5.84.56,3.12,1.79,3.84,4.9,2.44,1.32-.6,4.05.04,5.1,1.12,2.35,2.43,4.71,3.73,8.16,3.43,3.11-.27,5.43,1.29,5.83,4.52.41,3.33-2.16,4.13-4.74,4.52-6.49.98-12.99,1.86-19.49,2.78-.03-.23-.07-.46-.1-.69Z"/><path class="an" d="m290.48,123.05c.06-9.81,7.98-17.59,17.73-17.42,9.51.17,17.44,8.21,17.34,17.59-.1,9.43-8.11,17.43-17.52,17.48-9.66.05-17.61-7.95-17.55-17.65Zm7.75,4.13c1.84,5.53,6.21,8.2,11.51,7.62,4.08-.45,7.6-3.69,7.82-7.21-8.3,8.37-11.06,7.29-19.34-.41Zm19.53-7.77c-1.48-1.04-2.5-2.28-3.2-2.11-.88.21-2.02,1.53-2.05,2.41-.03.71,1.38,2.03,2.2,2.08.79.04,1.65-1.21,3.05-2.37Zm-12.61.4c.29-.55.59-1.1.88-1.65-.99-.4-2.07-1.25-2.95-1.09-.96.18-1.74,1.31-2.6,2.02.76.75,1.42,1.86,2.32,2.12.61.17,1.55-.89,2.35-1.4Z"/><path class="ae" d="m228.73,64.55c-9.52-.02-16.86-7.29-16.88-16.71-.02-9.82,7.2-17.22,16.8-17.23,9.87-.01,17.36,7.35,17.42,17.12.06,9.32-7.7,16.84-17.34,16.82Zm-7.42-10.28c0,.22.01.43.02.65h16.32c-.02-.22-.03-.43-.05-.65h-16.29Zm14.18-13.39c-1.11,1.51-2.33,2.44-2.24,3.23.09.85,1.41,1.57,2.19,2.35.77-.79,2.03-1.5,2.16-2.38.11-.77-1.06-1.71-2.1-3.21Zm-8.4,2.92c-1.66-1.08-2.56-2.11-3.46-2.11-.67,0-1.83,1.3-1.88,2.07-.04.67,1.17,1.98,1.84,1.99.9.01,1.82-.95,3.5-1.95Z"/><path class="bn" d="m62.33,126.81c0,9.26-7.41,16.66-16.66,16.66-9.28,0-16.59-7.36-16.59-16.69,0-9.33,7.31-16.64,16.61-16.64,9.25,0,16.64,7.41,16.63,16.67Zm-25.1,9.18c5.78-7.54,11.73-5.62,17.78-.13-1.68-4.27-6.1-6.72-10.29-6.29-4.53.46-6.67,2.14-7.49,6.42Zm18.23-12.59c-1.69-1.03-2.63-2.03-3.55-2.02-.71.01-1.96,1.32-1.94,2.02.02.76,1.23,2.07,1.93,2.08.92.01,1.85-1.02,3.56-2.09Zm-11.84-.54c-1.35-.91-2.29-1.94-2.76-1.76-.82.31-1.66,1.3-1.87,2.15-.11.44,1.19,1.76,1.73,1.7.83-.1,1.56-1.05,2.9-2.09Z"/><path class="av" d="m109.17,44.76c.15-8.98,7.42-16.12,16.33-16.05,8.91.06,16.32,7.74,16.15,16.72-.17,8.94-7.46,16.03-16.42,15.97-9.13-.07-16.22-7.41-16.06-16.63Zm23.72,8.56c-2.74-4.29-11.56-4.66-14.79-.64,2.49-.34,4.97-1.03,7.43-.93,2.46.11,4.89,1.01,7.36,1.57Zm-1.53-14.6c-.82,1.55-1.75,2.52-1.68,3.42.05.68,1.38,1.26,2.15,1.88.7-.86,1.8-1.65,1.97-2.61.1-.58-1.22-1.42-2.43-2.69Zm-10.61-.31c-1.06,1.32-2.18,2.1-2.18,2.89,0,.73,1.16,2.02,1.85,2.04.74.03,2.04-1.06,2.14-1.79.11-.77-.92-1.7-1.81-3.14Z"/><path class="ax" d="m205.35,105.27c-7.86,19.56-15.82,39.08-23.41,58.74-.68,1.77,1.02,4.45,1.62,6.72.42,5.2-.92,9.64-5.67,12.45-7.42,4.38-16.79-.87-17-9.48-.02-.99,0-1.98,0-2.97,1.47-4.82,4.57-7.79,9.6-8.88,1.09-.24,2.34-1.31,2.87-2.34,9.64-18.66,19.18-37.36,28.73-56.06,1.06-1.14,2.11-2.29,3.17-3.43.26.08.52.15.78.23-.23,1.68-.46,3.35-.7,5.03Zm-26.98,68.02c.02-3.42-2.62-6.15-6.05-6.25-3.39-.1-6.17,2.55-6.29,5.99-.12,3.58,2.7,6.5,6.21,6.44,3.43-.06,6.11-2.75,6.13-6.17Z"/><path class="p" d="m34.51,219.44c3.23.66,3.81,2.86,3.76,5.8-.13,8.03.66,16.15-.25,24.08-.84,7.36-3.41,14.53-5.22,21.78-4.03-.5-8.07-.94-12.09-1.52-1.98-.28-3.92-.82-6.37-1.35,1.98-2.95,3.54-5.17,4.99-7.46,4.84-7.67,6.24-16.38,7.72-25.12.8-4.75,2.27-9.39,3.66-14.02.35-1.17,1.53-2.09,2.33-3.12.49.31.98.62,1.47.93Z"/><path class="h" d="m264.95,176.53c-.43-4.12-.75-8.26-1.34-12.35-.21-1.41-1.09-2.72-1.67-4.08.31-2.67.62-5.33.93-8,1.51-1.03,3.02-2.06,4.53-3.09.99,0,1.99,0,2.98,0,3.21-1,6.43-2,9.64-3,.83,8.97,1.67,17.93,2.5,26.9.21,2.3-.91,3-3.1,2.9-3.71-.17-7.43-.19-11.14-.12-1.11.02-2.22.55-3.32.85Z"/><path class="ar" d="m20.63,80.14c-4.86,0-9.71.05-14.57-.02-4.61-.07-6.83-2.47-5.82-6.9.55-2.41,1.91-4.86,3.52-6.76,1.91-2.25,4.27-1.72,5.81.76,2.3,3.68,5.28,4.12,8.52,1.2,1.2-1.08,2.23-2.37,3.49-3.37,3.02-2.38,6.22-1.66,8.08,1.71.48.87.9,1.78,1.32,2.68,1.18,2.54,2.75,3.29,5.69,2.36,1.65-.52,4.28.05,5.68,1.14,3.11,2.4,2.24,5.87-1.65,6.32-6.65.78-13.37.88-20.06,1.26,0-.13-.01-.25-.02-.38Z"/><path class="bf" d="m39.1,181.76c-2.3,1.32-4.6,2.64-6.9,3.96-4.27.69-8.52,1.64-12.82,1.95-1.55.11-3.21-1.29-4.82-1.99,1.4-1.59,2.71-3.29,4.25-4.73.54-.5,1.65-.4,2.96-.66-1.07-4.38,1.69-5.98,5.3-6.13,3.58-.15,4.41-2.26,5.19-5.12,1.6-5.88,4.89-8.22,9.62-6.67,1.52.5,2.54,2.51,3.79,3.83-1.6,1.43-3.2,2.86-4.98,4.45.57,1.46,1.31,3.37,2.06,5.28-1.22,1.95-2.43,3.89-3.65,5.84Z"/><path class="ai" d="m50.18,272.29c3.44-2.07,6.98-2.58,10.68-.73.22,5.53.34,11.08.67,16.6.37,6.18,1,12.35,1.41,18.53.4,6.02.8,6.56,6.78,7.76-4.49,2.78-8.56.07-12.75-1.01-2.27-13.72-4.53-27.44-6.8-41.16Z"/><path class="bu" d="m150.36,244.69c-2.69-2.2-4.57-1.16-6.67.4-3.93,2.92-5.49,2.57-8.25-1.33-1.58-2.23-3.19-4.45-4.74-6.7-1.78-2.59-1.55-4.91,1.08-6.79,3.95-2.82,7.93-5.6,11.9-8.38,2.34-1.64,4.51-1.35,6.22.9,2.1,2.77,4.16,5.59,6.02,8.54,1.77,2.8.54,5-1.99,6.6-2.38,1.5-4.62,3.01-3.57,6.76Zm-2.18-11.63c-.17-.06-.35-.13-.52-.19,0-.5.16-1.07-.03-1.47-.69-1.48-1.18-3.58-2.35-4.12-.87-.4-2.68,1.25-4.09,1.97-.81.41-1.73.66-2.43,1.2-1.09.85-2.57,1.75-2.86,2.9-.24.94.72,2.9,1.63,3.29,2.65,1.12,5.53,2.16,8.32,2.16.78,0,1.55-3.72,2.33-5.73Z"/><path class="ai" d="m34.43,271.92c3.5.47,7,.95,10.51,1.42-2.28,9.66-4.36,19.38-6.93,28.96-1.26,4.7-1.88,8.96,1.63,12.89-3.42-.58-5.91-2.13-6.95-5.75-.31-1.07-1.74-1.82-2.65-2.71,1.24-5.19,2.97-10.32,3.59-15.58.76-6.35.58-12.81.8-19.22Z"/><path class="x" d="m150.58,199.02c1.33-2.61,2.56-5.28,4.03-7.81.47-.8,1.86-1.9,2.33-1.7.88.38,1.75,1.52,1.97,2.5.29,1.25-.07,2.64-.15,4.11,2.97.32,5.53.95,5.21,4.53-.27,3.02.11,6.47-3.4,7.99-2.8,1.21-8.1-.37-9.87-2.6-.27-.34-.59-.64-.89-.95.26-2.02.52-4.05.78-6.07Z"/><path class="bm" d="m310.8,320.33c-2.73.8-5.5,1.52-8.19,2.43-2.38.8-3.59.06-3.81-2.4,2.65-1.35,5.45-2.47,7.88-4.15,1.18-.81,1.64-2.66,2.43-4.03,2.77-.5,5.53-1,8.3-1.51,3.14,5.4,2.84,6.25-2.79,8.19-1.29.44-2.54.98-3.81,1.47Z"/><path class="am" d="m298.22,163.05c1.27-2.42,2.21-5.94,5.46-1.57.16.22.72.11,1.05.25,1.28.54,3.35.83,3.67,1.73.94,2.68,2.91,5.6-.55,8.28-1.59,1.23-2.55,3.27-3.79,4.94-3.93-.11-3.07-2.79-2.77-5.16.29-.57.99-1.34.82-1.67-1.19-2.31-2.56-4.53-3.87-6.79Z"/><path class="bd" d="m203.7,188.61c.8-1.2,1.6-2.41,3.05-4.58,1.22,5.41,2.88,9.54,8.99,9.63-4.09,2.99-7.24,5.98-5.78,11.39-.32.08-.64.16-.96.24-1.54-1.11-3.07-2.23-4.61-3.34-.23-.98-.64-1.96-.66-2.95-.08-3.46-.03-6.93-.03-10.39Z"/><path class="bp" d="m277.19,316.39c0,1.12-.01,2.24.02,3.36.07,2.18-.87,3.15-3.14,3.08-4.86-.14-9.72-.16-14.58-.18-2.72-.01-3.23-1.34-2.32-3.62,3.61-.57,7.22-1.15,10.84-1.72,2.82-.5,5.65-.99,8.47-1.49.24.19.47.38.71.57Z"/><path class="t" d="m75.64,318.05c-2.56.74-5.07,1.81-7.68,2.15-2.89.38-5.89-.12-8.81.16-3.75.36-3.71-1.91-3.57-4.45.46-.82.93-1.64,1.39-2.46,4.19,1.08,8.25,3.78,12.75,1.01,2.11.97,5.39.02,5.91,3.6Z"/><path class="ak" d="m42.78,318.1c1.07,2.05.4,3.43-1.83,2.78-2.53-.74-4.83-2.27-7.22-3.46-1.07-1-1.99-2.25-3.22-2.96-5.43-3.14-5.5-3.77-.47-7.73.92.89,2.35,1.64,2.65,2.71,1.04,3.62,3.53,5.17,6.95,5.75,1.05.97,2.1,1.94,3.14,2.9Z"/><path class="k" d="m203.7,188.61c0,3.46-.05,6.93.03,10.39.02.99.43,1.97.66,2.95-2.3.32-4.6.63-7.75,1.07,2.47-4.74,1.82-8.79-1.6-12.05,3.17-.87,5.92-1.61,8.66-2.36Z"/><path class="al" d="m270.37,149c-.99,0-1.99,0-2.98,0-1.24-.52-2.49-1.05-3.73-1.57-2.93-7.34,2.07-12.34,9.25-15.38.89-.38,1.81-.68,2.72-1.02,3.73.46,7.76.41,8.91,5.24-2.8,5.81-7.05,9.9-13.46,11.53-.32.08-.48.78-.71,1.19Zm5.99-14.36c1.19-.34,2.37-.69,3.73-1.08-5.44-2.04-13.8,1.78-15.44,7.06-.35,1.12.25,2.54.42,3.83,1.24.71,2.74,2.28,3.66,1.99,3.56-1.13,7.24-2.42,10.26-4.53,1.52-1.07,1.73-4.02,2.52-6.12-1.72-.38-3.44-.76-5.16-1.14Z"/><path class="br" d="m174.71,208.1c.21-.92.42-1.84.48-2.11,3.2,1.35,6.19,2.61,8.73,3.68-.28,2.82-.6,5.95-.92,9.18-1.32,0-3.35,0-5.39,0-.96-3.58-1.93-7.17-2.89-10.75Z"/><path class="bl" d="m286.74,195.48c3.98.84,4.76,1.89,4.12,5.47-.73,4.09-1.34,8.21-2.2,12.27-.18.86-1.24,1.54-1.89,2.3-.01-6.68-.02-13.36-.03-20.04Z"/><path class="ab" d="m42.75,175.92c-.74-1.91-1.49-3.82-2.06-5.28,1.78-1.59,3.38-3.02,4.98-4.45,1.2,2.3,2.5,4.57,3.51,6.95.15.36-.94,1.57-1.68,1.89-1.21.53-2.59.65-3.91.94-.28-.02-.57-.03-.85-.05Z"/><path class="bg" d="m174.71,208.1c.96,3.58,1.93,7.17,2.89,10.75-.97.86-1.95,1.71-3.33,2.93-.46-2.3-.38-4.19-1.22-5.51-.86-1.37-2.6-2.18-3.73-3.07,1.83-1.73,3.61-3.42,5.39-5.11Z"/><path class="aa" d="m298.22,163.05c1.31,2.25,2.68,4.47,3.87,6.79.17.33-.52,1.11-.82,1.67-1.32,1.22-2.64,2.45-3.97,3.67-.93-.49-1.86-.97-2.96-1.54,1.33-3.63,2.6-7.11,3.87-10.59Z"/><path class="af" d="m150.58,199.02c-.26,2.02-.52,4.05-.78,6.07-1.45-.01-2.9-.02-4.35-.03.11-2.26.21-4.53.32-6.79l4.81.76Z"/><path class="g" d="m270.37,149c.23-.41.39-1.11.71-1.19,6.4-1.63,10.66-5.72,13.46-11.53,1.52,4.65-2.32,6.81-4.53,9.73-3.21,1-6.43,2-9.64,3Z"/><path class="f" d="m42.75,175.92c.28.02.57.03.85.05.47.98.93,1.97,1.4,2.95.24,1.53.47,3.06.79,5.11-2.58-.88-4.64-1.57-6.69-2.27,1.22-1.95,2.43-3.89,3.65-5.84Z"/><path class="aw" d="m68.9,213.33c.28-1.48.57-2.97.85-4.45,1.88.31,3.76.62,5.65.93-.85,3.65-2.68,4.55-6.5,3.52Z"/><path class="aj" d="m34.51,219.44c-.49-.31-.98-.62-1.47-.93.99-2.97,1.98-5.95,2.97-8.92.5,3.25.99,6.5,1.49,9.75-.99.03-1.99.06-2.98.09Z"/><path class="at" d="m297.31,175.18c1.32-1.22,2.64-2.45,3.97-3.67-.29,2.38-1.16,5.06,2.77,5.16-.03.47-.06.93-.1,1.4-2.47-.22-4.94-.44-7.41-.66.26-.74.51-1.49.77-2.23Z"/><path class="l" d="m36,202.85c3.31,1.22,6.62,2.43,9.93,3.65-.08.24-.16.48-.24.71-3.22-.68-6.44-1.36-9.66-2.04-.01-.78-.02-1.55-.04-2.33Z"/><path class="e" d="m141.65,150.07c-.65-2.29-1.3-4.58-2.04-7.19,2.68-1.48,2.37-4.1,1.49-6.86-.3-.95-.92-2.04-.68-2.85.37-1.23,1.14-2.78,2.17-3.24.81-.36,2.5.48,3.35,1.27.72.67.94,2.01,1.11,3.09.43,2.76,1.55,3.74,4.26,2.24.78-.43,2.17-.66,2.84-.25,3.98,2.41,4.43,6.63,5.05,10.68.44,2.89-1.01,4.88-3.63,5.79-2.56.88-5.25,1.43-7.9,2.04-2.95.68-4.4-1.6-6.16-3.25.04-.49.09-.98.13-1.47Z"/><path class="ap" d="m141.65,150.07c-.04.49-.09.98-.13,1.47,0,1.09,0,2.19,0,3.4-3.44,2.19-4.44,1.86-6.7-2.42-2.47-4.67-2.03-5.89,2.86-7.94,1.33,1.84,2.66,3.67,3.98,5.49Z"/><path class="bt" d="m79.36,169.08c-1.24-.77-2.48-1.54-3.72-2.31,1-5.37,2.01-6.47,6.4-6.13-.92,2.89-1.8,5.66-2.69,8.44Z"/><path class="be" d="m298.03,250c-.02-1.69-.03-3.37-.05-5.06.99-2.84,1.98-5.67,2.97-8.51.37.12.74.23,1.1.35-1.34,4.4-2.68,8.81-4.03,13.21Z"/><path class="bu" d="m210.88,173.57c-.76-6.03-4.71-5.02-8.09-5.18-3.82-.18-5.68-2.09-5.6-5.91.08-3.97.28-7.95.58-11.91.23-3.05,1.92-4.83,5.1-4.74,6.21.19,12.43.42,18.63.73,3.14.16,4.73,2,4.69,5.11-.05,3.85-.1,7.71-.35,11.55-.29,4.43-1.96,5.86-6.45,5.82-3.34-.02-7.27-1.47-8.52,4.52Zm-7.77-18.67c2.32,3.07,4.64,6.14,6.97,9.21,2.34-1.58,4.74-3.06,6.97-4.78.83-.64,1.63-1.77,1.77-2.77.2-1.45.31-3.47-.5-4.34-.84-.9-2.83-.75-4.34-.99-1.24-.2-2.62,0-3.72-.48-2.99-1.32-6.2.36-7.15,4.15Z"/><path class="v" d="m262.86,152.09c-.31,2.67-.62,5.33-.93,8-1.91.25-3.82.5-5.73.75-.26-.97-.51-1.94-.77-2.91-.26-.74-.51-1.48-.77-2.22.02-4.04,1.44-5.29,5.27-4.66.23,2.45,1.76,1.25,2.93,1.04Z"/><path class="bj" d="m254.66,155.71c.26.74.51,1.48.77,2.22-3.13,2.01-6.26,4.02-9.39,6.03-.3-.4-.6-.81-.89-1.21,2.73-2.87,5.9-5.2,9.51-7.04Z"/><path class="u" d="m262.86,152.09c-1.18.21-2.7,1.42-2.93-1.04,1.25-1.21,2.49-2.42,3.74-3.63,1.24.52,2.49,1.05,3.73,1.57-1.51,1.03-3.02,2.06-4.53,3.09Z"/><path class="j" d="m220.81,233.63c-1.5.9-2.45,1.89-3.4,1.88-.64,0-1.93-1.66-1.76-2.15.32-.88,1.47-1.88,2.38-2,.66-.09,1.5,1.17,2.77,2.27Z"/><path class="bo" d="m212.31,237.18c-1.05-1.34-2.28-2.27-2.14-2.88.21-.89,1.4-1.55,2.17-2.31.66.73,1.79,1.43,1.85,2.21.06.77-.96,1.62-1.88,2.98Z"/><path class="ao" d="m228.08,228.87c1.09,1.25,2.4,2.18,2.25,2.68-.27.92-1.4,1.59-2.17,2.37-.7-.7-1.86-1.35-1.95-2.11-.08-.74.96-1.6,1.87-2.94Z"/><path class="ay" d="m223.12,235.79c-1.08-1.4-2.17-2.18-2.15-2.94.02-.78,1.12-1.53,1.74-2.29.71.65,1.87,1.23,1.99,1.97.12.77-.77,1.7-1.58,3.26Z"/><path class="bi" d="m298.24,127.18c8.28,7.7,11.03,8.79,19.34.41-.22,3.52-3.74,6.76-7.82,7.21-5.3.58-9.67-2.09-11.51-7.62Z"/><path class="au" d="m317.77,119.4c-1.4,1.16-2.26,2.42-3.05,2.37-.82-.04-2.23-1.36-2.2-2.08.04-.88,1.17-2.21,2.05-2.41.69-.16,1.72,1.08,3.2,2.11Z"/><path class="q" d="m305.16,119.8c-.79.51-1.74,1.57-2.35,1.4-.9-.25-1.56-1.37-2.32-2.12.86-.72,1.64-1.84,2.6-2.02.89-.17,1.96.69,2.95,1.09-.29.55-.59,1.1-.88,1.65Z"/><path class="w" d="m221.3,54.27h16.29c.02.22.03.43.05.65h-16.32c0-.22-.01-.43-.02-.65Z"/><path class="r" d="m235.48,40.88c1.04,1.49,2.21,2.44,2.1,3.21-.13.88-1.39,1.59-2.16,2.38-.78-.78-2.09-1.5-2.19-2.35-.09-.79,1.13-1.72,2.24-3.23Z"/><path class="o" d="m227.09,43.8c-1.67,1-2.59,1.96-3.5,1.95-.67-.01-1.88-1.32-1.84-1.99.05-.77,1.2-2.07,1.88-2.07.9,0,1.8,1.03,3.46,2.11Z"/><path class="as" d="m37.23,135.99c.82-4.28,2.96-5.96,7.49-6.42,4.19-.42,8.61,2.03,10.29,6.29-6.05-5.5-12-7.42-17.78.13Z"/><path class="bb" d="m55.46,123.4c-1.71,1.07-2.64,2.1-3.56,2.09-.7,0-1.91-1.33-1.93-2.08-.02-.71,1.23-2.01,1.94-2.02.92-.02,1.85.99,3.55,2.02Z"/><path class="az" d="m43.62,122.86c-1.34,1.03-2.07,1.99-2.9,2.09-.54.07-1.84-1.26-1.73-1.7.22-.86,1.05-1.84,1.87-2.15.47-.18,1.41.85,2.76,1.76Z"/><path class="m" d="m132.89,53.33c-2.47-.56-4.9-1.46-7.36-1.57-2.45-.11-4.94.58-7.43.93,3.23-4.02,12.05-3.65,14.79.64Z"/><path class="ag" d="m131.37,38.72c1.21,1.28,2.54,2.11,2.43,2.69-.17.96-1.26,1.75-1.97,2.61-.76-.62-2.09-1.2-2.15-1.88-.07-.9.86-1.87,1.68-3.42Z"/><path class="bk" d="m120.76,38.41c.89,1.44,1.91,2.37,1.81,3.14-.1.73-1.4,1.82-2.14,1.79-.69-.03-1.85-1.32-1.85-2.04,0-.79,1.12-1.57,2.18-2.89Z"/><path class="bc" d="m178.38,173.29c-.02,3.42-2.7,6.11-6.13,6.17-3.51.06-6.33-2.85-6.21-6.44.11-3.44,2.9-6.09,6.29-5.99,3.44.11,6.08,2.83,6.05,6.25Z"/><path class="bq" d="m148.18,233.06c-.78,2.01-1.55,5.73-2.33,5.73-2.79,0-5.68-1.04-8.32-2.16-.91-.39-1.87-2.35-1.63-3.29.29-1.14,1.77-2.05,2.86-2.9.7-.54,1.62-.79,2.43-1.2,1.4-.72,3.22-2.38,4.09-1.97,1.18.55,1.67,2.64,2.35,4.12.19.41.03.98.03,1.47.17.06.35.13.52.19Z"/><path class="bh" d="m276.36,134.64c1.72.38,3.44.76,5.16,1.14-.8,2.1-1,5.05-2.52,6.12-3.02,2.11-6.69,3.4-10.26,4.53-.92.29-2.42-1.28-3.66-1.99,2.14-5.14,5.96-8.34,11.28-9.81Z"/><path class="aq" d="m276.36,134.64c-5.33,1.47-9.15,4.67-11.28,9.81-.16-1.28-.77-2.7-.42-3.83,1.64-5.28,10-9.1,15.44-7.06-1.36.39-2.55.74-3.73,1.08Z"/><path class="z" d="m203.12,154.9c.95-3.79,4.16-5.47,7.15-4.15,1.1.48,2.48.29,3.72.48,1.5.24,3.49.09,4.34.99.82.87.71,2.89.5,4.34-.14,1-.94,2.12-1.77,2.77-2.23,1.72-4.63,3.2-6.97,4.78-2.32-3.07-4.64-6.14-6.97-9.21Z"/></g></svg>